{
DisplayStrings = (
"fitting  /knmI   I\012/knDA/knDA/knRA/knmI/knDA/knDA  \012/knDA/knDA/knTTHA/knmI/knDA/knDA  \012/knDA/knDA/knJHA/knmI/knDA/knDA  \012/knDA/knDA/knYA/knmI/knDA/knDA  \012/knDA/knDA/knKA/knmI/knDA/knDA  \012/knDA/knDA/knPA/knmI/knDA/knDA  \012/knDA/knDA/knPHA/knmI/knDA/knDA  \012/knDA/knDA/knSSA/knmI/knDA/knDA  \012/knDA/knDA/knMA/knmI/knDA/knDA  \012/knDA/knDA/knVA/knmI/knDA/knDA  \012/knDA/knDA/knGHA/knmI/knDA/knDA  \012/knDA/knDA/knBA/knmI/knDA/knDA  \012/knDA/knDA/knBHA/knmI/knDA/knDA  \012/knDA/knDA/knCA/knmI/knDA/knDA  \012/knDA/knDA/knDA/knmI/knDA/knDA  \012/knDA/knDA/knDHA/knmI/knDA/knDA  \012/knDA/knDA/knTHA/knmI/knDA/knDA  \012/knDA/knDA/knDDA/knmI/knDA/knDA  \012/knDA/knDA/knDDHA/knmI/knDA/knDA  \012/knDA/knDA/knCHA/knmI/knDA/knDA  \012/knDA/knDA/knTTA/knmI/knDA/knDA  \012/knDA/knDA/knKHA/knmI/knDA/knDA  \012/knDA/knDA/knGA/knmI/knDA/knDA  \012/knDA/knDA/knNNA/knmI/knDA/knDA  \012/knDA/knDA/knTA/knmI/knDA/knDA  \012/knDA/knDA/knNA/knmI/knDA/knDA  \012/knDA/knDA/knLA/knmI/knDA/knDA  \012/knDA/knDA/knSHA/knmI/knDA/knDA  \012/knDA/knDA/knSA/knmI/knDA/knDA  \012/knDA/knDA/knHA/knmI/knDA/knDA  \012/knDA/knDA/knLLA/knmI/knDA/knDA  \012/knDA/knDA/knNGA/knmI/knDA/knDA  \012/knDA/knDA/knJA/knmI/knDA/knDA  \012/knDA/knDA/knRRA/knmI/knDA/knDA  \012/knDA/knDA/knLLLA/knmI/knDA/knDA  \012/knDA/knDA/kaNYA/knmI/knDA/knDA",

glyphs = (
{
color = 3;
glyphname = knA;
lastChange = "2015-12-01 17:49:50 +0000";
layers = (
{
layerId = "034236B8-3FA8-43DA-9EDA-EFF269A687EC";
leftMetricsKey = "=knLA";
rightMetricsKey = "=knLA";
name = Regular;
paths = (
{
closed = 1;
nodes = (
"103 171 OFFCURVE",
"199 71 OFFCURVE",
"390 71 CURVE SMOOTH",
"580 71 OFFCURVE",
"678 171 OFFCURVE",
"678 294 CURVE SMOOTH",
"678 389 OFFCURVE",
"638 459 OFFCURVE",
"560 459 CURVE SMOOTH",
"518 459 OFFCURVE",
"493 440 OFFCURVE",
"493 405 CURVE SMOOTH",
"493 375 OFFCURVE",
"512 354 OFFCURVE",
"560 354 CURVE SMOOTH",
"613 354 LINE",
"613 283 LINE",
"383 283 LINE",
"383 354 LINE",
"478 354 LINE",
"469 362 OFFCURVE",
"464 379 OFFCURVE",
"464 405 CURVE SMOOTH",
"464 467 OFFCURVE",
"490 520 OFFCURVE",
"560 520 CURVE SMOOTH",
"646 520 OFFCURVE",
"725 414 OFFCURVE",
"725 283 CURVE SMOOTH",
"725 104 OFFCURVE",
"601 -14 OFFCURVE",
"390 -14 CURVE",
"179 -14 OFFCURVE",
"55 104 OFFCURVE",
"55 283 CURVE",
"55 414 OFFCURVE",
"127 519 OFFCURVE",
"229 519 CURVE SMOOTH",
"300 519 OFFCURVE",
"336 457 OFFCURVE",
"336 391 CURVE SMOOTH",
"336 325 OFFCURVE",
"294 273 OFFCURVE",
"231 273 CURVE SMOOTH",
"173 273 OFFCURVE",
"131 308 OFFCURVE",
"131 381 CURVE SMOOTH",
"131 394 OFFCURVE",
"132 407 OFFCURVE",
"135 429 CURVE",
"156 497 LINE",
"171 501 OFFCURVE",
"176 475 OFFCURVE",
"165 450 CURVE",
"162 440 OFFCURVE",
"161 419 OFFCURVE",
"161 408 CURVE SMOOTH",
"161 362 OFFCURVE",
"189 344 OFFCURVE",
"231 344 CURVE SMOOTH",
"278 344 OFFCURVE",
"306 365 OFFCURVE",
"306 401 CURVE SMOOTH",
"306 440 OFFCURVE",
"272 459 OFFCURVE",
"234 459 CURVE SMOOTH",
"141 459 OFFCURVE",
"103 407 OFFCURVE",
"103 294 CURVE"
);
}
);
width = 780;
}
);
leftMetricsKey = "=knLA";
rightMetricsKey = "=knLA";
unicode = 0C85;
},
{
color = 3;
glyphname = knAA;
lastChange = "2015-12-01 17:49:50 +0000";
layers = (
{
layerId = "034236B8-3FA8-43DA-9EDA-EFF269A687EC";
leftMetricsKey = "=knLA";
rightMetricsKey = "=knLA-20";
name = Regular;
paths = (
{
closed = 1;
nodes = (
"102 171 OFFCURVE",
"201 71 OFFCURVE",
"370 71 CURVE",
"514 71 OFFCURVE",
"618 126 OFFCURVE",
"618 213 CURVE SMOOTH",
"618 286 OFFCURVE",
"512 328 OFFCURVE",
"512 416 CURVE SMOOTH",
"512 477 OFFCURVE",
"564 519 OFFCURVE",
"612 519 CURVE SMOOTH",
"665 519 OFFCURVE",
"707 471 OFFCURVE",
"707 403 CURVE SMOOTH",
"707 327 OFFCURVE",
"651 283 OFFCURVE",
"567 283 CURVE",
"395 283 LINE",
"395 355 LINE",
"600 355 LINE SMOOTH",
"645 355 OFFCURVE",
"672 383 OFFCURVE",
"672 413 CURVE SMOOTH",
"672 440 OFFCURVE",
"650 459 OFFCURVE",
"618 459 CURVE SMOOTH",
"585 459 OFFCURVE",
"558 440 OFFCURVE",
"558 406 CURVE SMOOTH",
"558 337 OFFCURVE",
"672 314 OFFCURVE",
"672 199 CURVE SMOOTH",
"672 73 OFFCURVE",
"534 -14 OFFCURVE",
"380 -14 CURVE",
"179 -14 OFFCURVE",
"55 104 OFFCURVE",
"55 276 CURVE",
"55 414 OFFCURVE",
"127 519 OFFCURVE",
"229 519 CURVE SMOOTH",
"300 519 OFFCURVE",
"336 457 OFFCURVE",
"336 391 CURVE SMOOTH",
"336 325 OFFCURVE",
"294 273 OFFCURVE",
"231 273 CURVE SMOOTH",
"173 273 OFFCURVE",
"131 308 OFFCURVE",
"131 381 CURVE SMOOTH",
"131 394 OFFCURVE",
"132 407 OFFCURVE",
"135 429 CURVE",
"156 497 LINE",
"171 501 OFFCURVE",
"176 475 OFFCURVE",
"165 450 CURVE",
"162 440 OFFCURVE",
"161 419 OFFCURVE",
"161 408 CURVE SMOOTH",
"161 362 OFFCURVE",
"189 344 OFFCURVE",
"231 344 CURVE SMOOTH",
"278 344 OFFCURVE",
"306 365 OFFCURVE",
"306 401 CURVE SMOOTH",
"306 440 OFFCURVE",
"272 459 OFFCURVE",
"234 459 CURVE SMOOTH",
"141 459 OFFCURVE",
"103 407 OFFCURVE",
"103 294 CURVE"
);
}
);
width = 742;
}
);
leftMetricsKey = "=la-kannada";
rightMetricsKey = "=la-kannada";
unicode = 0C86;
},
{
color = 3;
glyphname = knI;
lastChange = "2015-12-01 17:49:49 +0000";
layers = (
{
background = {
paths = (
{
closed = 1;
nodes = (
"563 446 OFFCURVE",
"598 377 OFFCURVE",
"598 285 CURVE",
"598 149 OFFCURVE",
"528 71 OFFCURVE",
"406 71 CURVE",
"347 71 OFFCURVE",
"306 85 OFFCURVE",
"306 124 CURVE SMOOTH",
"306 153 OFFCURVE",
"341 176 OFFCURVE",
"399 176 CURVE SMOOTH",
"534 176 OFFCURVE",
"635 48 OFFCURVE",
"635 -70 CURVE SMOOTH",
"635 -85 OFFCURVE",
"647 -97 OFFCURVE",
"659 -97 CURVE SMOOTH",
"672 -97 OFFCURVE",
"684 -85 OFFCURVE",
"684 -61 CURVE SMOOTH",
"684 30 OFFCURVE",
"578 223 OFFCURVE",
"389 223 CURVE SMOOTH",
"293 223 OFFCURVE",
"233 168 OFFCURVE",
"233 108 CURVE SMOOTH",
"233 38 OFFCURVE",
"308 -14 OFFCURVE",
"398 -14 CURVE SMOOTH",
"543 -14 OFFCURVE",
"647 108 OFFCURVE",
"647 294 CURVE",
"647 430 OFFCURVE",
"596 519 OFFCURVE",
"503 519 CURVE",
"424 519 OFFCURVE",
"366 461 OFFCURVE",
"343 377 CURVE",
"341 377 LINE",
"318 461 OFFCURVE",
"258 519 OFFCURVE",
"181 519 CURVE",
"105 519 OFFCURVE",
"46 456 OFFCURVE",
"46 377 CURVE SMOOTH",
"46 347 OFFCURVE",
"55 321 OFFCURVE",
"76 296 CURVE",
"107 317 LINE",
"101 325 OFFCURVE",
"95 340 OFFCURVE",
"95 354 CURVE SMOOTH",
"95 397 OFFCURVE",
"132 446 OFFCURVE",
"183 446 CURVE",
"258 446 OFFCURVE",
"325 358 OFFCURVE",
"337 283 CURVE",
"347 283 LINE",
"360 358 OFFCURVE",
"424 446 OFFCURVE",
"498 446 CURVE"
);
}
);
};
guideLines = (
{
position = "{14, 368}";
},
{
position = "{42, 444}";
},
{
position = "{62, 71}";
}
);
layerId = "034236B8-3FA8-43DA-9EDA-EFF269A687EC";
rightMetricsKey = "=knLA";
name = Regular;
paths = (
{
closed = 1;
nodes = (
"435 519 OFFCURVE",
"366 461 OFFCURVE",
"343 377 CURVE",
"341 377 LINE",
"318 461 OFFCURVE",
"249 519 OFFCURVE",
"180 519 CURVE",
"104 519 OFFCURVE",
"45 456 OFFCURVE",
"45 377 CURVE SMOOTH",
"45 347 OFFCURVE",
"54 321 OFFCURVE",
"75 296 CURVE",
"106 317 LINE",
"100 325 OFFCURVE",
"94 340 OFFCURVE",
"94 359 CURVE SMOOTH",
"94 401 OFFCURVE",
"122 444 OFFCURVE",
"183 444 CURVE",
"268 444 OFFCURVE",
"324 358 OFFCURVE",
"338 283 CURVE",
"347 283 LINE",
"359 357 OFFCURVE",
"415 446 OFFCURVE",
"499 446 CURVE",
"564 446 OFFCURVE",
"599 377 OFFCURVE",
"599 285 CURVE",
"599 149 OFFCURVE",
"529 71 OFFCURVE",
"407 71 CURVE",
"348 71 OFFCURVE",
"307 85 OFFCURVE",
"307 124 CURVE SMOOTH",
"307 153 OFFCURVE",
"342 176 OFFCURVE",
"400 176 CURVE SMOOTH",
"535 176 OFFCURVE",
"636 48 OFFCURVE",
"636 -70 CURVE SMOOTH",
"636 -85 OFFCURVE",
"648 -97 OFFCURVE",
"660 -97 CURVE SMOOTH",
"673 -97 OFFCURVE",
"685 -85 OFFCURVE",
"685 -61 CURVE SMOOTH",
"685 30 OFFCURVE",
"579 223 OFFCURVE",
"390 223 CURVE SMOOTH",
"294 223 OFFCURVE",
"234 168 OFFCURVE",
"234 108 CURVE SMOOTH",
"234 38 OFFCURVE",
"309 -14 OFFCURVE",
"399 -14 CURVE SMOOTH",
"544 -14 OFFCURVE",
"648 108 OFFCURVE",
"648 294 CURVE",
"648 430 OFFCURVE",
"597 519 OFFCURVE",
"504 519 CURVE"
);
}
);
width = 740;
}
);
rightMetricsKey = "=knLA";
unicode = 0C87;
},
{
color = 3;
glyphname = knII;
lastChange = "2015-11-30 15:09:02 +0000";
layers = (
{
layerId = "034236B8-3FA8-43DA-9EDA-EFF269A687EC";
name = Regular;
paths = (
{
closed = 1;
nodes = (
"817 226 OFFCURVE",
"689 279 OFFCURVE",
"689 363 CURVE SMOOTH",
"689 399 OFFCURVE",
"713 418 OFFCURVE",
"739 418 CURVE SMOOTH",
"767 418 OFFCURVE",
"790 399 OFFCURVE",
"790 362 CURVE SMOOTH",
"790 324 OFFCURVE",
"773 298 OFFCURVE",
"692 298 CURVE SMOOTH",
"45 298 LINE",
"45 239 LINE",
"659 239 LINE SMOOTH",
"784 239 OFFCURVE",
"836 286 OFFCURVE",
"836 369 CURVE",
"836 434 OFFCURVE",
"790 479 OFFCURVE",
"741 479 CURVE SMOOTH",
"685 479 OFFCURVE",
"642 441 OFFCURVE",
"642 379 CURVE SMOOTH",
"642 277 OFFCURVE",
"760 241 OFFCURVE",
"760 140 CURVE",
"761 108 OFFCURVE",
"746 89 OFFCURVE",
"716 79 CURVE SMOOTH",
"697 72 OFFCURVE",
"676 74 OFFCURVE",
"661 69 CURVE SMOOTH",
"644 63 OFFCURVE",
"633 48 OFFCURVE",
"633 30 CURVE SMOOTH",
"633 5 OFFCURVE",
"652 -14 OFFCURVE",
"690 -14 CURVE SMOOTH",
"762 -14 OFFCURVE",
"817 33 OFFCURVE",
"817 111 CURVE"
);
},
{
closed = 1;
nodes = (
"236 478 OFFCURVE",
"115 402 OFFCURVE",
"115 250 CURVE SMOOTH",
"115 99 OFFCURVE",
"206 -14 OFFCURVE",
"345 -14 CURVE",
"484 -14 OFFCURVE",
"575 99 OFFCURVE",
"575 250 CURVE SMOOTH",
"575 402 OFFCURVE",
"454 478 OFFCURVE",
"345 478 CURVE"
);
},
{
closed = 1;
nodes = (
"446 443 OFFCURVE",
"521 360 OFFCURVE",
"521 261 CURVE SMOOTH",
"521 151 OFFCURVE",
"446 71 OFFCURVE",
"345 71 CURVE",
"244 71 OFFCURVE",
"169 151 OFFCURVE",
"169 261 CURVE SMOOTH",
"169 360 OFFCURVE",
"244 443 OFFCURVE",
"345 443 CURVE"
);
},
{
closed = 1;
nodes = (
"490 644 LINE",
"514 635 OFFCURVE",
"536 610 OFFCURVE",
"536 576 CURVE SMOOTH",
"536 536 OFFCURVE",
"505 509 OFFCURVE",
"444 509 CURVE SMOOTH",
"115 509 LINE",
"115 434 LINE",
"235 434 LINE",
"345 444 LINE",
"444 434 LINE",
"525 434 OFFCURVE",
"579 480 OFFCURVE",
"579 552 CURVE SMOOTH",
"579 607 OFFCURVE",
"548 648 OFFCURVE",
"505 664 CURVE"
);
}
);
width = 896;
},
{
associatedMasterId = "034236B8-3FA8-43DA-9EDA-EFF269A687EC";
layerId = "3DA93FC8-5D78-4078-9953-D9D244ADBC50";
name = "Regular Nov 17 15, 18:00";
paths = (
{
closed = 1;
nodes = (
"262 404 OFFCURVE",
"230 393 OFFCURVE",
"202 378 CURVE SMOOTH",
"138 345 OFFCURVE",
"98 283 OFFCURVE",
"98 206 CURVE SMOOTH",
"98 84 OFFCURVE",
"187 -14 OFFCURVE",
"298 -14 CURVE",
"409 -14 OFFCURVE",
"498 84 OFFCURVE",
"498 206 CURVE SMOOTH",
"498 283 OFFCURVE",
"458 345 OFFCURVE",
"394 378 CURVE SMOOTH",
"366 393 OFFCURVE",
"334 404 OFFCURVE",
"298 404 CURVE"
);
},
{
closed = 1;
nodes = (
"386 378 OFFCURVE",
"451 313 OFFCURVE",
"451 230 CURVE SMOOTH",
"451 143 OFFCURVE",
"386 76 OFFCURVE",
"298 76 CURVE",
"210 76 OFFCURVE",
"145 143 OFFCURVE",
"145 230 CURVE SMOOTH",
"145 313 OFFCURVE",
"210 378 OFFCURVE",
"298 378 CURVE"
);
},
{
closed = 1;
nodes = (
"427 567 LINE",
"451 552 OFFCURVE",
"459 530 OFFCURVE",
"459 511 CURVE SMOOTH",
"459 475 OFFCURVE",
"432 450 OFFCURVE",
"387 450 CURVE SMOOTH",
"96 450 LINE",
"96 378 LINE",
"387 378 LINE SMOOTH",
"456 378 OFFCURVE",
"505 426 OFFCURVE",
"505 486 CURVE SMOOTH",
"505 525 OFFCURVE",
"485 561 OFFCURVE",
"440 585 CURVE"
);
},
{
closed = 1;
nodes = (
"708 215 OFFCURVE",
"597 251 OFFCURVE",
"597 317 CURVE SMOOTH",
"597 345 OFFCURVE",
"618 362 OFFCURVE",
"639 362 CURVE SMOOTH",
"665 362 OFFCURVE",
"685 344 OFFCURVE",
"685 318 CURVE SMOOTH",
"685 262 OFFCURVE",
"625 254 OFFCURVE",
"545 255 CURVE SMOOTH",
"37 259 LINE",
"37 206 LINE",
"571 206 LINE SMOOTH",
"680 206 OFFCURVE",
"725 247 OFFCURVE",
"725 319 CURVE",
"725 383 OFFCURVE",
"684 415 OFFCURVE",
"640 415 CURVE SMOOTH",
"594 415 OFFCURVE",
"556 372 OFFCURVE",
"556 322 CURVE SMOOTH",
"556 229 OFFCURVE",
"659 208 OFFCURVE",
"659 131 CURVE",
"660 102 OFFCURVE",
"647 76 OFFCURVE",
"621 67 CURVE SMOOTH",
"604 61 OFFCURVE",
"588 63 OFFCURVE",
"572 58 CURVE SMOOTH",
"558 54 OFFCURVE",
"548 40 OFFCURVE",
"548 23 CURVE SMOOTH",
"548 3 OFFCURVE",
"565 -14 OFFCURVE",
"596 -14 CURVE SMOOTH",
"661 -14 OFFCURVE",
"708 47 OFFCURVE",
"708 113 CURVE"
);
}
);
width = 772;
}
);
unicode = 0C88;
},
{
color = 3;
glyphname = knU;
lastChange = "2015-12-04 14:39:57 +0000";
layers = (
{
layerId = "034236B8-3FA8-43DA-9EDA-EFF269A687EC";
leftMetricsKey = "=knLA";
rightMetricsKey = "=knA";
name = Regular;
paths = (
{
closed = 1;
nodes = (
"871 71 OFFCURVE",
"925 123 OFFCURVE",
"925 253 CURVE",
"925 365 OFFCURVE",
"886 414 OFFCURVE",
"849 426 CURVE SMOOTH",
"825 434 OFFCURVE",
"816 430 OFFCURVE",
"793 436 CURVE SMOOTH",
"776 441 OFFCURVE",
"765 457 OFFCURVE",
"765 477 CURVE SMOOTH",
"765 500 OFFCURVE",
"784 519 OFFCURVE",
"820 519 CURVE SMOOTH",
"895 519 OFFCURVE",
"972 439 OFFCURVE",
"972 283 CURVE",
"972 113 OFFCURVE",
"888 -14 OFFCURVE",
"781 -14 CURVE",
"680 -14 OFFCURVE",
"629 65 OFFCURVE",
"629 150 CURVE SMOOTH",
"629 220 OFFCURVE",
"634 276 OFFCURVE",
"634 339 CURVE SMOOTH",
"634 406 OFFCURVE",
"604 454 OFFCURVE",
"550 454 CURVE",
"491 454 OFFCURVE",
"464 396 OFFCURVE",
"464 339 CURVE SMOOTH",
"464 284 OFFCURVE",
"476 229 OFFCURVE",
"476 150 CURVE SMOOTH",
"476 42 OFFCURVE",
"396 -14 OFFCURVE",
"288 -14 CURVE",
"162 -14 OFFCURVE",
"55 107 OFFCURVE",
"55 283 CURVE",
"55 414 OFFCURVE",
"127 519 OFFCURVE",
"229 519 CURVE SMOOTH",
"300 519 OFFCURVE",
"336 457 OFFCURVE",
"336 391 CURVE SMOOTH",
"336 325 OFFCURVE",
"294 273 OFFCURVE",
"231 273 CURVE SMOOTH",
"173 273 OFFCURVE",
"131 308 OFFCURVE",
"131 381 CURVE SMOOTH",
"131 394 OFFCURVE",
"132 407 OFFCURVE",
"135 429 CURVE",
"156 497 LINE",
"171 501 OFFCURVE",
"176 475 OFFCURVE",
"165 450 CURVE",
"162 440 OFFCURVE",
"161 419 OFFCURVE",
"161 408 CURVE SMOOTH",
"161 362 OFFCURVE",
"189 344 OFFCURVE",
"231 344 CURVE SMOOTH",
"278 344 OFFCURVE",
"306 365 OFFCURVE",
"306 401 CURVE SMOOTH",
"306 440 OFFCURVE",
"272 459 OFFCURVE",
"234 459 CURVE SMOOTH",
"141 459 OFFCURVE",
"103 407 OFFCURVE",
"103 294 CURVE",
"103 218 OFFCURVE",
"154 71 OFFCURVE",
"300 71 CURVE SMOOTH",
"378 71 OFFCURVE",
"435 118 OFFCURVE",
"435 189 CURVE SMOOTH",
"435 256 OFFCURVE",
"418 312 OFFCURVE",
"418 368 CURVE SMOOTH",
"418 453 OFFCURVE",
"468 519 OFFCURVE",
"555 519 CURVE",
"636 519 OFFCURVE",
"680 453 OFFCURVE",
"680 375 CURVE SMOOTH",
"680 312 OFFCURVE",
"671 256 OFFCURVE",
"671 206 CURVE SMOOTH",
"671 138 OFFCURVE",
"712 71 OFFCURVE",
"785 71 CURVE"
);
}
);
width = 1027;
}
);
leftMetricsKey = "=knLA";
rightMetricsKey = "=knLA";
unicode = 0C89;
},
{
color = 3;
glyphname = knUU;
lastChange = "2015-12-04 14:39:57 +0000";
layers = (
{
annotations = (
{
position = "{-9223372036854775808, 404}";
type = Minus;
}
);
background = {
paths = (
{
closed = 1;
nodes = (
"187 455 OFFCURVE",
"200 459 OFFCURVE",
"214 459 CURVE SMOOTH",
"262 459 OFFCURVE",
"287 440 OFFCURVE",
"287 401 CURVE SMOOTH",
"287 375 OFFCURVE",
"268 354 OFFCURVE",
"231 354 CURVE SMOOTH",
"199 354 OFFCURVE",
"172 372 OFFCURVE",
"172 418 CURVE SMOOTH",
"172 429 OFFCURVE",
"173 440 OFFCURVE",
"175 451 CURVE"
);
},
{
closed = 0;
nodes = (
"102 294 LINE SMOOTH",
"102 354 OFFCURVE",
"118 400 OFFCURVE",
"145 429 CURVE",
"143 417 OFFCURVE",
"142 405 OFFCURVE",
"142 391 CURVE SMOOTH",
"142 318 OFFCURVE",
"183 283 OFFCURVE",
"231 283 CURVE SMOOTH",
"284 283 OFFCURVE",
"316 336 OFFCURVE",
"316 401 CURVE SMOOTH",
"316 467 OFFCURVE",
"290 520 OFFCURVE",
"220 520 CURVE SMOOTH",
"134 520 OFFCURVE",
"55 414 OFFCURVE",
"55 283 CURVE SMOOTH"
);
}
);
};
layerId = "034236B8-3FA8-43DA-9EDA-EFF269A687EC";
leftMetricsKey = "=knA";
rightMetricsKey = "=knA";
name = Regular;
paths = (
{
closed = 1;
nodes = (
"162 440 OFFCURVE",
"161 419 OFFCURVE",
"161 408 CURVE SMOOTH",
"161 362 OFFCURVE",
"189 344 OFFCURVE",
"231 344 CURVE SMOOTH",
"278 344 OFFCURVE",
"306 365 OFFCURVE",
"306 401 CURVE SMOOTH",
"306 440 OFFCURVE",
"272 454 OFFCURVE",
"234 454 CURVE",
"141 454 OFFCURVE",
"103 407 OFFCURVE",
"103 294 CURVE",
"103 218 OFFCURVE",
"154 71 OFFCURVE",
"280 71 CURVE SMOOTH",
"368 71 OFFCURVE",
"425 118 OFFCURVE",
"425 189 CURVE SMOOTH",
"425 256 OFFCURVE",
"408 312 OFFCURVE",
"408 368 CURVE SMOOTH",
"408 453 OFFCURVE",
"458 519 OFFCURVE",
"545 519 CURVE",
"626 519 OFFCURVE",
"670 453 OFFCURVE",
"670 375 CURVE SMOOTH",
"670 312 OFFCURVE",
"661 256 OFFCURVE",
"661 206 CURVE SMOOTH",
"661 138 OFFCURVE",
"682 71 OFFCURVE",
"765 71 CURVE SMOOTH",
"848 71 OFFCURVE",
"864 177 OFFCURVE",
"864 293 CURVE",
"864 456 OFFCURVE",
"962 519 OFFCURVE",
"1055 519 CURVE",
"1172 519 OFFCURVE",
"1286 438 OFFCURVE",
"1286 252 CURVE SMOOTH",
"1286 77 OFFCURVE",
"1207 -14 OFFCURVE",
"1108 -14 CURVE SMOOTH",
"1047 -14 OFFCURVE",
"996 36 OFFCURVE",
"996 99 CURVE",
"996 153 OFFCURVE",
"1026 206 OFFCURVE",
"1086 206 CURVE SMOOTH",
"1129 206 OFFCURVE",
"1154 176 OFFCURVE",
"1154 149 CURVE SMOOTH",
"1154 120 OFFCURVE",
"1133 97 OFFCURVE",
"1105 97 CURVE SMOOTH",
"1078 97 OFFCURVE",
"1060 118 OFFCURVE",
"1060 148 CURVE SMOOTH",
"1060 154 OFFCURVE",
"1059 155 OFFCURVE",
"1057 155 CURVE SMOOTH",
"1044 155 OFFCURVE",
"1037 132 OFFCURVE",
"1037 116 CURVE",
"1037 79 OFFCURVE",
"1072 50 OFFCURVE",
"1115 50 CURVE SMOOTH",
"1197 50 OFFCURVE",
"1244 125 OFFCURVE",
"1244 217 CURVE SMOOTH",
"1244 373 OFFCURVE",
"1159 454 OFFCURVE",
"1066 454 CURVE SMOOTH",
"981 454 OFFCURVE",
"911 416 OFFCURVE",
"911 294 CURVE",
"911 103 OFFCURVE",
"885 -14 OFFCURVE",
"758 -14 CURVE SMOOTH",
"660 -14 OFFCURVE",
"619 65 OFFCURVE",
"619 150 CURVE SMOOTH",
"619 220 OFFCURVE",
"624 276 OFFCURVE",
"624 339 CURVE SMOOTH",
"624 406 OFFCURVE",
"594 454 OFFCURVE",
"540 454 CURVE",
"481 454 OFFCURVE",
"454 396 OFFCURVE",
"454 339 CURVE SMOOTH",
"454 284 OFFCURVE",
"466 229 OFFCURVE",
"466 150 CURVE SMOOTH",
"466 42 OFFCURVE",
"396 -14 OFFCURVE",
"288 -14 CURVE",
"162 -14 OFFCURVE",
"55 107 OFFCURVE",
"55 283 CURVE",
"55 414 OFFCURVE",
"127 519 OFFCURVE",
"229 519 CURVE SMOOTH",
"300 519 OFFCURVE",
"336 457 OFFCURVE",
"336 391 CURVE SMOOTH",
"336 325 OFFCURVE",
"294 273 OFFCURVE",
"231 273 CURVE SMOOTH",
"173 273 OFFCURVE",
"131 308 OFFCURVE",
"131 381 CURVE SMOOTH",
"131 394 OFFCURVE",
"132 407 OFFCURVE",
"135 429 CURVE",
"156 497 LINE",
"171 501 OFFCURVE",
"176 475 OFFCURVE",
"165 450 CURVE"
);
}
);
width = 1341;
}
);
leftMetricsKey = "=knA";
rightMetricsKey = "=knA";
unicode = 0C8A;
},
{
color = 3;
glyphname = knvR;
lastChange = "2015-12-04 14:39:57 +0000";
layers = (
{
background = {
paths = (
{
closed = 1;
nodes = (
"686 392 OFFCURVE",
"572 509 OFFCURVE",
"486 509 CURVE SMOOTH",
"450 509 OFFCURVE",
"431 496 OFFCURVE",
"431 473 CURVE SMOOTH",
"431 450 OFFCURVE",
"442 434 OFFCURVE",
"472 434 CURVE",
"571 434 OFFCURVE",
"644 338 OFFCURVE",
"644 257 CURVE SMOOTH",
"644 158 OFFCURVE",
"575 71 OFFCURVE",
"490 71 CURVE",
"403 71 OFFCURVE",
"354 145 OFFCURVE",
"334 189 CURVE",
"310 139 LINE",
"322 82 OFFCURVE",
"397 -14 OFFCURVE",
"502 -14 CURVE",
"627 -14 OFFCURVE",
"686 109 OFFCURVE",
"686 245 CURVE SMOOTH"
);
},
{
closed = 1;
nodes = (
"-4 519 OFFCURVE",
"-95 402 OFFCURVE",
"-95 250 CURVE SMOOTH",
"-95 99 OFFCURVE",
"-4 -14 OFFCURVE",
"135 -14 CURVE",
"274 -14 OFFCURVE",
"365 99 OFFCURVE",
"365 250 CURVE SMOOTH",
"365 402 OFFCURVE",
"274 519 OFFCURVE",
"135 519 CURVE SMOOTH"
);
},
{
closed = 1;
nodes = (
"236 434 OFFCURVE",
"323 371 OFFCURVE",
"323 256 CURVE SMOOTH",
"323 146 OFFCURVE",
"236 70 OFFCURVE",
"135 70 CURVE",
"34 70 OFFCURVE",
"-51 146 OFFCURVE",
"-51 261 CURVE SMOOTH",
"-51 371 OFFCURVE",
"34 434 OFFCURVE",
"135 434 CURVE SMOOTH"
);
},
{
closed = 1;
nodes = (
"628 644 LINE",
"652 635 OFFCURVE",
"674 610 OFFCURVE",
"674 576 CURVE SMOOTH",
"674 536 OFFCURVE",
"643 509 OFFCURVE",
"582 509 CURVE SMOOTH",
"390 509 LINE",
"390 434 LINE",
"582 434 LINE SMOOTH",
"663 434 OFFCURVE",
"717 480 OFFCURVE",
"717 552 CURVE SMOOTH",
"717 607 OFFCURVE",
"686 648 OFFCURVE",
"643 664 CURVE"
);
},
{
closed = 1;
nodes = (
"743 71 OFFCURVE",
"694 145 OFFCURVE",
"674 189 CURVE",
"650 139 LINE",
"662 82 OFFCURVE",
"737 -14 OFFCURVE",
"833 -14 CURVE",
"946 -14 OFFCURVE",
"1026 115 OFFCURVE",
"1026 242 CURVE",
"1026 415 OFFCURVE",
"940 513 OFFCURVE",
"869 513 CURVE SMOOTH",
"838 513 OFFCURVE",
"821 493 OFFCURVE",
"821 470 CURVE SMOOTH",
"821 451 OFFCURVE",
"833 435 OFFCURVE",
"849 430 CURVE SMOOTH",
"872 423 OFFCURVE",
"893 428 OFFCURVE",
"917 420 CURVE SMOOTH",
"954 407 OFFCURVE",
"985 344 OFFCURVE",
"985 255 CURVE",
"985 159 OFFCURVE",
"915 71 OFFCURVE",
"833 71 CURVE"
);
}
);
};
layerId = "034236B8-3FA8-43DA-9EDA-EFF269A687EC";
rightMetricsKey = "=knA";
name = Regular;
paths = (
{
closed = 1;
nodes = (
"366 436 OFFCURVE",
"260 519 OFFCURVE",
"167 519 CURVE",
"96 519 OFFCURVE",
"60 457 OFFCURVE",
"60 401 CURVE SMOOTH",
"60 325 OFFCURVE",
"102 283 OFFCURVE",
"165 283 CURVE SMOOTH",
"223 283 OFFCURVE",
"265 308 OFFCURVE",
"265 381 CURVE SMOOTH",
"265 394 OFFCURVE",
"264 407 OFFCURVE",
"261 429 CURVE",
"221 450 LINE",
"234 440 OFFCURVE",
"235 419 OFFCURVE",
"235 408 CURVE SMOOTH",
"235 372 OFFCURVE",
"207 354 OFFCURVE",
"165 354 CURVE SMOOTH",
"118 354 OFFCURVE",
"90 375 OFFCURVE",
"90 407 CURVE SMOOTH",
"90 440 OFFCURVE",
"114 459 OFFCURVE",
"152 459 CURVE",
"239 459 OFFCURVE",
"324 381 OFFCURVE",
"324 253 CURVE",
"324 124 OFFCURVE",
"239 46 OFFCURVE",
"152 46 CURVE",
"114 46 OFFCURVE",
"90 65 OFFCURVE",
"90 98 CURVE SMOOTH",
"90 130 OFFCURVE",
"118 151 OFFCURVE",
"165 151 CURVE SMOOTH",
"207 151 OFFCURVE",
"235 133 OFFCURVE",
"235 97 CURVE SMOOTH",
"235 86 OFFCURVE",
"234 65 OFFCURVE",
"221 55 CURVE",
"261 76 LINE",
"264 98 OFFCURVE",
"265 111 OFFCURVE",
"265 124 CURVE SMOOTH",
"265 197 OFFCURVE",
"223 222 OFFCURVE",
"165 222 CURVE SMOOTH",
"102 222 OFFCURVE",
"60 180 OFFCURVE",
"60 104 CURVE SMOOTH",
"60 48 OFFCURVE",
"96 -14 OFFCURVE",
"167 -14 CURVE",
"260 -14 OFFCURVE",
"366 69 OFFCURVE",
"366 253 CURVE"
);
},
{
closed = 1;
nodes = (
"686 392 OFFCURVE",
"572 509 OFFCURVE",
"486 509 CURVE SMOOTH",
"450 509 OFFCURVE",
"431 496 OFFCURVE",
"431 473 CURVE SMOOTH",
"431 450 OFFCURVE",
"442 434 OFFCURVE",
"472 434 CURVE",
"571 434 OFFCURVE",
"644 338 OFFCURVE",
"644 257 CURVE SMOOTH",
"644 158 OFFCURVE",
"575 71 OFFCURVE",
"490 71 CURVE",
"403 71 OFFCURVE",
"354 145 OFFCURVE",
"334 189 CURVE",
"310 139 LINE",
"322 82 OFFCURVE",
"397 -14 OFFCURVE",
"502 -14 CURVE",
"627 -14 OFFCURVE",
"686 109 OFFCURVE",
"686 245 CURVE SMOOTH"
);
},
{
closed = 1;
nodes = (
"628 644 LINE",
"652 635 OFFCURVE",
"674 610 OFFCURVE",
"674 576 CURVE SMOOTH",
"674 536 OFFCURVE",
"643 509 OFFCURVE",
"582 509 CURVE SMOOTH",
"390 509 LINE",
"390 434 LINE",
"582 434 LINE SMOOTH",
"663 434 OFFCURVE",
"717 480 OFFCURVE",
"717 552 CURVE SMOOTH",
"717 607 OFFCURVE",
"686 648 OFFCURVE",
"643 664 CURVE"
);
},
{
closed = 1;
nodes = (
"743 71 OFFCURVE",
"694 145 OFFCURVE",
"674 189 CURVE",
"650 139 LINE",
"662 82 OFFCURVE",
"737 -14 OFFCURVE",
"833 -14 CURVE",
"946 -14 OFFCURVE",
"1026 115 OFFCURVE",
"1026 242 CURVE",
"1026 415 OFFCURVE",
"940 513 OFFCURVE",
"869 513 CURVE SMOOTH",
"838 513 OFFCURVE",
"821 493 OFFCURVE",
"821 470 CURVE SMOOTH",
"821 451 OFFCURVE",
"833 435 OFFCURVE",
"849 430 CURVE SMOOTH",
"872 423 OFFCURVE",
"893 428 OFFCURVE",
"917 420 CURVE SMOOTH",
"954 407 OFFCURVE",
"985 344 OFFCURVE",
"985 255 CURVE",
"985 159 OFFCURVE",
"915 71 OFFCURVE",
"833 71 CURVE"
);
}
);
width = 1081;
},
{
associatedMasterId = "034236B8-3FA8-43DA-9EDA-EFF269A687EC";
background = {
paths = (
{
closed = 1;
nodes = (
"383 339 OFFCURVE",
"284 450 OFFCURVE",
"209 450 CURVE SMOOTH",
"178 450 OFFCURVE",
"161 433 OFFCURVE",
"161 413 CURVE SMOOTH",
"161 393 OFFCURVE",
"171 378 OFFCURVE",
"197 378 CURVE",
"283 362 OFFCURVE",
"347 292 OFFCURVE",
"347 213 CURVE SMOOTH",
"347 136 OFFCURVE",
"287 79 OFFCURVE",
"213 79 CURVE",
"154 79 OFFCURVE",
"94 124 OFFCURVE",
"77 163 CURVE",
"56 102 LINE",
"84 52 OFFCURVE",
"158 -14 OFFCURVE",
"223 -14 CURVE",
"332 -14 OFFCURVE",
"383 93 OFFCURVE",
"383 203 CURVE SMOOTH"
);
}
);
};
layerId = "CC23B812-8F97-44EF-8D0E-01E21B7BC2CA";
name = "Regular Nov 3 15, 12:19";
paths = (
{
closed = 1;
nodes = (
"574 567 LINE",
"598 552 OFFCURVE",
"606 530 OFFCURVE",
"606 511 CURVE SMOOTH",
"606 475 OFFCURVE",
"579 450 OFFCURVE",
"534 450 CURVE SMOOTH",
"366 450 LINE",
"366 378 LINE",
"534 378 LINE SMOOTH",
"603 378 OFFCURVE",
"652 426 OFFCURVE",
"652 486 CURVE SMOOTH",
"652 525 OFFCURVE",
"632 561 OFFCURVE",
"587 585 CURVE"
);
},
{
closed = 1;
nodes = (
"623 339 OFFCURVE",
"524 450 OFFCURVE",
"449 450 CURVE SMOOTH",
"418 450 OFFCURVE",
"401 433 OFFCURVE",
"401 413 CURVE SMOOTH",
"401 393 OFFCURVE",
"411 378 OFFCURVE",
"437 378 CURVE",
"523 362 OFFCURVE",
"587 292 OFFCURVE",
"587 213 CURVE SMOOTH",
"587 136 OFFCURVE",
"527 79 OFFCURVE",
"453 79 CURVE",
"394 79 OFFCURVE",
"334 124 OFFCURVE",
"317 163 CURVE",
"296 102 LINE",
"324 52 OFFCURVE",
"398 -14 OFFCURVE",
"463 -14 CURVE",
"572 -14 OFFCURVE",
"623 93 OFFCURVE",
"623 203 CURVE SMOOTH"
);
},
{
closed = 1;
nodes = (
"917 339 OFFCURVE",
"818 450 OFFCURVE",
"743 450 CURVE SMOOTH",
"712 450 OFFCURVE",
"695 433 OFFCURVE",
"695 413 CURVE SMOOTH",
"695 398 OFFCURVE",
"704 385 OFFCURVE",
"716 379 CURVE SMOOTH",
"729 372 OFFCURVE",
"749 376 OFFCURVE",
"777 370 CURVE SMOOTH",
"830 359 OFFCURVE",
"881 286 OFFCURVE",
"881 213 CURVE",
"881 136 OFFCURVE",
"821 79 OFFCURVE",
"747 79 CURVE",
"688 79 OFFCURVE",
"628 124 OFFCURVE",
"611 163 CURVE",
"590 102 LINE",
"618 52 OFFCURVE",
"692 -14 OFFCURVE",
"757 -14 CURVE",
"866 -14 OFFCURVE",
"917 93 OFFCURVE",
"917 203 CURVE"
);
},
{
closed = 1;
nodes = (
"323 343 OFFCURVE",
"231 450 OFFCURVE",
"150 450 CURVE SMOOTH",
"89 450 OFFCURVE",
"66 404 OFFCURVE",
"66 347 CURVE SMOOTH",
"66 290 OFFCURVE",
"94 244 OFFCURVE",
"140 244 CURVE SMOOTH",
"182 244 OFFCURVE",
"218 275 OFFCURVE",
"218 338 CURVE SMOOTH",
"218 370 OFFCURVE",
"211 398 OFFCURVE",
"200 417 CURVE",
"179 413 LINE",
"188 403 OFFCURVE",
"192 382 OFFCURVE",
"192 362 CURVE SMOOTH",
"192 322 OFFCURVE",
"168 306 OFFCURVE",
"140 306 CURVE SMOOTH",
"108 306 OFFCURVE",
"92 324 OFFCURVE",
"92 347 CURVE SMOOTH",
"92 381 OFFCURVE",
"113 397 OFFCURVE",
"155 397 CURVE SMOOTH",
"222 397 OFFCURVE",
"287 295 OFFCURVE",
"287 214 CURVE",
"287 111 OFFCURVE",
"222 39 OFFCURVE",
"155 39 CURVE SMOOTH",
"113 39 OFFCURVE",
"92 55 OFFCURVE",
"92 89 CURVE SMOOTH",
"92 112 OFFCURVE",
"108 130 OFFCURVE",
"140 130 CURVE SMOOTH",
"168 130 OFFCURVE",
"192 114 OFFCURVE",
"192 74 CURVE SMOOTH",
"192 54 OFFCURVE",
"188 33 OFFCURVE",
"179 23 CURVE",
"200 19 LINE",
"211 38 OFFCURVE",
"218 66 OFFCURVE",
"218 98 CURVE SMOOTH",
"218 161 OFFCURVE",
"182 192 OFFCURVE",
"140 192 CURVE SMOOTH",
"94 192 OFFCURVE",
"66 146 OFFCURVE",
"66 89 CURVE SMOOTH",
"66 32 OFFCURVE",
"89 -14 OFFCURVE",
"150 -14 CURVE SMOOTH",
"231 -14 OFFCURVE",
"323 91 OFFCURVE",
"323 207 CURVE"
);
}
);
width = 962;
}
);
rightMetricsKey = "=knA";
unicode = 0C8B;
},
{
color = 3;
glyphname = knvRR;
lastChange = "2015-12-01 17:49:49 +0000";
layers = (
{
background = {
paths = (
{
closed = 1;
nodes = (
"96 519 OFFCURVE",
"60 457 OFFCURVE",
"60 391 CURVE SMOOTH",
"60 325 OFFCURVE",
"102 283 OFFCURVE",
"165 283 CURVE SMOOTH",
"223 283 OFFCURVE",
"265 308 OFFCURVE",
"265 381 CURVE SMOOTH",
"265 394 OFFCURVE",
"264 407 OFFCURVE",
"261 429 CURVE",
"231 450 LINE",
"234 440 OFFCURVE",
"235 419 OFFCURVE",
"235 408 CURVE SMOOTH",
"235 372 OFFCURVE",
"207 354 OFFCURVE",
"165 354 CURVE SMOOTH",
"118 354 OFFCURVE",
"90 375 OFFCURVE",
"90 407 CURVE SMOOTH",
"90 440 OFFCURVE",
"114 459 OFFCURVE",
"157 459 CURVE",
"239 459 OFFCURVE",
"324 361 OFFCURVE",
"324 248 CURVE",
"324 100 OFFCURVE",
"239 51 OFFCURVE",
"161 51 CURVE",
"120 51 OFFCURVE",
"90 65 OFFCURVE",
"90 96 CURVE SMOOTH",
"90 130 OFFCURVE",
"118 151 OFFCURVE",
"165 151 CURVE SMOOTH",
"207 151 OFFCURVE",
"235 132 OFFCURVE",
"235 97 CURVE SMOOTH",
"235 86 OFFCURVE",
"233 67 OFFCURVE",
"225 55 CURVE",
"257 70 LINE",
"263 87 OFFCURVE",
"265 111 OFFCURVE",
"265 124 CURVE SMOOTH",
"265 197 OFFCURVE",
"225 222 OFFCURVE",
"165 222 CURVE SMOOTH",
"102 222 OFFCURVE",
"60 180 OFFCURVE",
"60 114 CURVE SMOOTH",
"60 48 OFFCURVE",
"96 -14 OFFCURVE",
"167 -14 CURVE",
"260 -14 OFFCURVE",
"366 77 OFFCURVE",
"366 240 CURVE",
"366 416 OFFCURVE",
"260 519 OFFCURVE",
"167 519 CURVE"
);
}
);
};
layerId = "034236B8-3FA8-43DA-9EDA-EFF269A687EC";
rightMetricsKey = "=knA";
name = Regular;
paths = (
{
closed = 1;
nodes = (
"1030 519 OFFCURVE",
"932 456 OFFCURVE",
"932 273 CURVE SMOOTH",
"932 117 OFFCURVE",
"906 71 OFFCURVE",
"833 71 CURVE SMOOTH",
"775 71 OFFCURVE",
"716 145 OFFCURVE",
"697 189 CURVE",
"673 119 LINE",
"705 62 OFFCURVE",
"770 -14 OFFCURVE",
"855 -14 CURVE SMOOTH",
"964 -14 OFFCURVE",
"979 103 OFFCURVE",
"979 274 CURVE SMOOTH",
"979 416 OFFCURVE",
"1049 454 OFFCURVE",
"1134 454 CURVE SMOOTH",
"1227 454 OFFCURVE",
"1312 373 OFFCURVE",
"1312 217 CURVE SMOOTH",
"1312 125 OFFCURVE",
"1265 50 OFFCURVE",
"1183 50 CURVE SMOOTH",
"1140 50 OFFCURVE",
"1105 79 OFFCURVE",
"1105 116 CURVE",
"1105 132 OFFCURVE",
"1112 155 OFFCURVE",
"1125 155 CURVE SMOOTH",
"1127 155 OFFCURVE",
"1128 154 OFFCURVE",
"1128 148 CURVE SMOOTH",
"1128 118 OFFCURVE",
"1146 97 OFFCURVE",
"1173 97 CURVE SMOOTH",
"1201 97 OFFCURVE",
"1222 120 OFFCURVE",
"1222 149 CURVE SMOOTH",
"1222 176 OFFCURVE",
"1197 206 OFFCURVE",
"1154 206 CURVE SMOOTH",
"1094 206 OFFCURVE",
"1064 153 OFFCURVE",
"1064 99 CURVE",
"1064 36 OFFCURVE",
"1115 -14 OFFCURVE",
"1176 -14 CURVE SMOOTH",
"1275 -14 OFFCURVE",
"1354 77 OFFCURVE",
"1354 252 CURVE SMOOTH",
"1354 438 OFFCURVE",
"1240 519 OFFCURVE",
"1123 519 CURVE"
);
},
{
closed = 1;
nodes = (
"475 508 OFFCURVE",
"456 488 OFFCURVE",
"456 465 CURVE SMOOTH",
"456 442 OFFCURVE",
"467 434 OFFCURVE",
"497 434 CURVE",
"596 434 OFFCURVE",
"669 358 OFFCURVE",
"669 247 CURVE SMOOTH",
"669 158 OFFCURVE",
"600 71 OFFCURVE",
"515 71 CURVE SMOOTH",
"428 71 OFFCURVE",
"379 145 OFFCURVE",
"359 189 CURVE",
"335 119 LINE",
"367 62 OFFCURVE",
"432 -14 OFFCURVE",
"527 -14 CURVE SMOOTH",
"652 -14 OFFCURVE",
"711 109 OFFCURVE",
"711 235 CURVE SMOOTH",
"711 392 OFFCURVE",
"597 508 OFFCURVE",
"511 508 CURVE SMOOTH"
);
},
{
closed = 1;
nodes = (
"641 644 LINE",
"665 635 OFFCURVE",
"687 610 OFFCURVE",
"687 576 CURVE SMOOTH",
"687 536 OFFCURVE",
"656 509 OFFCURVE",
"595 509 CURVE SMOOTH",
"404 509 LINE",
"404 434 LINE",
"595 434 LINE SMOOTH",
"676 434 OFFCURVE",
"730 480 OFFCURVE",
"730 552 CURVE SMOOTH",
"730 607 OFFCURVE",
"699 648 OFFCURVE",
"656 664 CURVE"
);
},
{
closed = 1;
nodes = (
"366 436 OFFCURVE",
"260 519 OFFCURVE",
"167 519 CURVE",
"96 519 OFFCURVE",
"60 457 OFFCURVE",
"60 401 CURVE SMOOTH",
"60 325 OFFCURVE",
"102 283 OFFCURVE",
"165 283 CURVE SMOOTH",
"223 283 OFFCURVE",
"265 308 OFFCURVE",
"265 381 CURVE SMOOTH",
"265 394 OFFCURVE",
"264 407 OFFCURVE",
"261 429 CURVE",
"221 450 LINE",
"234 440 OFFCURVE",
"235 419 OFFCURVE",
"235 408 CURVE SMOOTH",
"235 372 OFFCURVE",
"207 354 OFFCURVE",
"165 354 CURVE SMOOTH",
"118 354 OFFCURVE",
"90 375 OFFCURVE",
"90 407 CURVE SMOOTH",
"90 440 OFFCURVE",
"114 459 OFFCURVE",
"152 459 CURVE",
"239 459 OFFCURVE",
"324 381 OFFCURVE",
"324 253 CURVE",
"324 124 OFFCURVE",
"239 46 OFFCURVE",
"152 46 CURVE",
"114 46 OFFCURVE",
"90 65 OFFCURVE",
"90 98 CURVE SMOOTH",
"90 130 OFFCURVE",
"118 151 OFFCURVE",
"165 151 CURVE SMOOTH",
"207 151 OFFCURVE",
"235 133 OFFCURVE",
"235 97 CURVE SMOOTH",
"235 86 OFFCURVE",
"234 65 OFFCURVE",
"221 55 CURVE",
"261 76 LINE",
"264 98 OFFCURVE",
"265 111 OFFCURVE",
"265 124 CURVE SMOOTH",
"265 197 OFFCURVE",
"223 222 OFFCURVE",
"165 222 CURVE SMOOTH",
"102 222 OFFCURVE",
"60 180 OFFCURVE",
"60 104 CURVE SMOOTH",
"60 48 OFFCURVE",
"96 -14 OFFCURVE",
"167 -14 CURVE",
"260 -14 OFFCURVE",
"366 69 OFFCURVE",
"366 253 CURVE"
);
}
);
width = 1409;
}
);
rightMetricsKey = "=knA";
unicode = 0CE0;
},
{
color = 3;
glyphname = knvL;
lastChange = "2015-12-01 17:49:49 +0000";
layers = (
{
background = {
paths = (
{
closed = 1;
nodes = (
"638 242 LINE",
"658 254 LINE",
"658 391 OFFCURVE",
"597 519 OFFCURVE",
"484 519 CURVE SMOOTH",
"415 519 OFFCURVE",
"347 461 OFFCURVE",
"324 377 CURVE",
"322 377 LINE",
"299 461 OFFCURVE",
"230 519 OFFCURVE",
"161 519 CURVE",
"72 519 OFFCURVE",
"10 431 OFFCURVE",
"10 350 CURVE",
"41 330 LINE",
"58 377 OFFCURVE",
"84 444 OFFCURVE",
"164 444 CURVE SMOOTH",
"249 444 OFFCURVE",
"305 358 OFFCURVE",
"319 283 CURVE",
"328 283 LINE",
"340 357 OFFCURVE",
"396 444 OFFCURVE",
"480 444 CURVE SMOOTH",
"569 444 OFFCURVE",
"616 370 OFFCURVE",
"616 254 CURVE"
);
}
);
};
guideLines = (
{
position = "{55, 453}";
}
);
layerId = "034236B8-3FA8-43DA-9EDA-EFF269A687EC";
rightMetricsKey = "=knA";
name = Regular;
paths = (
{
closed = 1;
nodes = (
"916 372 OFFCURVE",
"813 509 OFFCURVE",
"726 509 CURVE SMOOTH",
"691 509 OFFCURVE",
"671 496 OFFCURVE",
"671 473 CURVE SMOOTH",
"671 456 OFFCURVE",
"682 444 OFFCURVE",
"695 437 CURVE SMOOTH",
"710 429 OFFCURVE",
"733 435 OFFCURVE",
"766 427 CURVE SMOOTH",
"815 414 OFFCURVE",
"874 306 OFFCURVE",
"874 215 CURVE",
"874 135 OFFCURVE",
"816 71 OFFCURVE",
"728 71 CURVE SMOOTH",
"559 71 LINE SMOOTH",
"496 71 OFFCURVE",
"464 113 OFFCURVE",
"464 155 CURVE SMOOTH",
"464 236 OFFCURVE",
"607 252 OFFCURVE",
"607 371 CURVE SMOOTH",
"607 461 OFFCURVE",
"548 519 OFFCURVE",
"484 519 CURVE SMOOTH",
"415 519 OFFCURVE",
"347 461 OFFCURVE",
"324 377 CURVE",
"322 377 LINE",
"299 461 OFFCURVE",
"230 519 OFFCURVE",
"161 519 CURVE SMOOTH",
"85 519 OFFCURVE",
"26 456 OFFCURVE",
"26 377 CURVE SMOOTH",
"26 347 OFFCURVE",
"34 321 OFFCURVE",
"56 296 CURVE",
"87 317 LINE",
"80 325 OFFCURVE",
"74 340 OFFCURVE",
"74 354 CURVE SMOOTH",
"74 392 OFFCURVE",
"105 444 OFFCURVE",
"164 444 CURVE SMOOTH",
"249 444 OFFCURVE",
"304 358 OFFCURVE",
"318 283 CURVE",
"327 283 LINE",
"340 358 OFFCURVE",
"396 444 OFFCURVE",
"479 444 CURVE SMOOTH",
"532 444 OFFCURVE",
"560 416 OFFCURVE",
"560 372 CURVE SMOOTH",
"560 269 OFFCURVE",
"417 275 OFFCURVE",
"417 140 CURVE SMOOTH",
"417 55 OFFCURVE",
"470 0 OFFCURVE",
"536 0 CURVE SMOOTH",
"728 0 LINE SMOOTH",
"846 0 OFFCURVE",
"916 73 OFFCURVE",
"916 194 CURVE"
);
}
);
width = 971;
}
);
rightMetricsKey = "=knA";
unicode = 0C8C;
},
{
color = 3;
glyphname = knvLL;
lastChange = "2015-12-04 15:48:21 +0000";
layers = (
{
background = {
paths = (
{
closed = 0;
nodes = (
"1284 235 LINE",
"1284 140 OFFCURVE",
"1234 71 OFFCURVE",
"1142 71 CURVE SMOOTH",
"1071 71 OFFCURVE",
"1029 112 OFFCURVE",
"1029 169 CURVE",
"1029 211 OFFCURVE",
"1038 237 OFFCURVE",
"1050 237 CURVE SMOOTH",
"1055 237 OFFCURVE",
"1056 232 OFFCURVE",
"1056 227 CURVE SMOOTH",
"1056 191 OFFCURVE",
"1078 165 OFFCURVE",
"1111 165 CURVE SMOOTH",
"1146 165 OFFCURVE",
"1171 194 OFFCURVE",
"1171 230 CURVE SMOOTH",
"1171 262 OFFCURVE",
"1146 299 OFFCURVE",
"1093 299 CURVE SMOOTH",
"1014 299 OFFCURVE",
"977 233 OFFCURVE",
"977 155 CURVE",
"977 56 OFFCURVE",
"1040 -14 OFFCURVE",
"1126 -14 CURVE SMOOTH",
"1237 -14 OFFCURVE",
"1323 82 OFFCURVE",
"1323 238 CURVE"
);
},
{
closed = 0;
nodes = (
"1325 252 LINE",
"1325 418 OFFCURVE",
"1217 509 OFFCURVE",
"1070 509 CURVE",
"750 509 LINE",
"737 469 LINE",
"797 421 OFFCURVE",
"874 335 OFFCURVE",
"874 215 CURVE",
"874 135 OFFCURVE",
"816 71 OFFCURVE",
"728 71 CURVE SMOOTH",
"559 71 LINE SMOOTH",
"496 71 OFFCURVE",
"464 114 OFFCURVE",
"464 161 CURVE SMOOTH",
"464 232 OFFCURVE",
"607 242 OFFCURVE",
"607 371 CURVE SMOOTH",
"607 461 OFFCURVE",
"548 519 OFFCURVE",
"484 519 CURVE SMOOTH",
"415 519 OFFCURVE",
"347 461 OFFCURVE",
"324 377 CURVE",
"322 377 LINE",
"299 461 OFFCURVE",
"230 519 OFFCURVE",
"161 519 CURVE SMOOTH",
"85 519 OFFCURVE",
"26 456 OFFCURVE",
"26 377 CURVE SMOOTH",
"26 347 OFFCURVE",
"34 321 OFFCURVE",
"56 296 CURVE",
"87 317 LINE",
"80 325 OFFCURVE",
"74 340 OFFCURVE",
"74 354 CURVE SMOOTH",
"74 392 OFFCURVE",
"105 444 OFFCURVE",
"164 444 CURVE SMOOTH",
"249 444 OFFCURVE",
"304 358 OFFCURVE",
"318 283 CURVE",
"327 283 LINE",
"340 358 OFFCURVE",
"396 444 OFFCURVE",
"479 444 CURVE SMOOTH",
"532 444 OFFCURVE",
"560 416 OFFCURVE",
"560 372 CURVE SMOOTH",
"560 269 OFFCURVE",
"417 275 OFFCURVE",
"417 140 CURVE SMOOTH",
"417 55 OFFCURVE",
"470 0 OFFCURVE",
"536 0 CURVE SMOOTH",
"728 0 LINE SMOOTH",
"846 0 OFFCURVE",
"916 73 OFFCURVE",
"916 194 CURVE",
"916 306 OFFCURVE",
"875 391 OFFCURVE",
"817 444 CURVE",
"1081 444 LINE SMOOTH",
"1204 444 OFFCURVE",
"1283 353 OFFCURVE",
"1283 217 CURVE"
);
}
);
};
layerId = "034236B8-3FA8-43DA-9EDA-EFF269A687EC";
name = Regular;
paths = (
{
closed = 1;
nodes = (
"1323 424 OFFCURVE",
"1207 509 OFFCURVE",
"1070 509 CURVE",
"750 509 LINE",
"737 469 LINE",
"797 421 OFFCURVE",
"874 335 OFFCURVE",
"874 215 CURVE",
"874 135 OFFCURVE",
"816 71 OFFCURVE",
"728 71 CURVE SMOOTH",
"559 71 LINE SMOOTH",
"496 71 OFFCURVE",
"464 114 OFFCURVE",
"464 161 CURVE SMOOTH",
"464 232 OFFCURVE",
"607 242 OFFCURVE",
"607 371 CURVE SMOOTH",
"607 461 OFFCURVE",
"548 519 OFFCURVE",
"484 519 CURVE SMOOTH",
"415 519 OFFCURVE",
"347 461 OFFCURVE",
"324 377 CURVE",
"322 377 LINE",
"299 461 OFFCURVE",
"230 519 OFFCURVE",
"161 519 CURVE SMOOTH",
"85 519 OFFCURVE",
"26 456 OFFCURVE",
"26 377 CURVE SMOOTH",
"26 347 OFFCURVE",
"34 321 OFFCURVE",
"56 296 CURVE",
"87 317 LINE",
"80 325 OFFCURVE",
"74 340 OFFCURVE",
"74 354 CURVE SMOOTH",
"74 392 OFFCURVE",
"105 444 OFFCURVE",
"164 444 CURVE SMOOTH",
"249 444 OFFCURVE",
"304 358 OFFCURVE",
"318 283 CURVE",
"327 283 LINE",
"340 358 OFFCURVE",
"396 444 OFFCURVE",
"479 444 CURVE SMOOTH",
"532 444 OFFCURVE",
"560 416 OFFCURVE",
"560 372 CURVE SMOOTH",
"560 269 OFFCURVE",
"417 275 OFFCURVE",
"417 140 CURVE SMOOTH",
"417 55 OFFCURVE",
"470 0 OFFCURVE",
"536 0 CURVE SMOOTH",
"728 0 LINE SMOOTH",
"846 0 OFFCURVE",
"916 73 OFFCURVE",
"916 194 CURVE",
"916 306 OFFCURVE",
"875 391 OFFCURVE",
"817 444 CURVE",
"1081 444 LINE SMOOTH",
"1204 444 OFFCURVE",
"1284 341 OFFCURVE",
"1284 235 CURVE",
"1284 140 OFFCURVE",
"1234 71 OFFCURVE",
"1142 71 CURVE SMOOTH",
"1071 71 OFFCURVE",
"1029 112 OFFCURVE",
"1029 169 CURVE",
"1029 211 OFFCURVE",
"1038 237 OFFCURVE",
"1050 237 CURVE SMOOTH",
"1055 237 OFFCURVE",
"1056 232 OFFCURVE",
"1056 227 CURVE SMOOTH",
"1056 191 OFFCURVE",
"1078 165 OFFCURVE",
"1111 165 CURVE SMOOTH",
"1146 165 OFFCURVE",
"1171 194 OFFCURVE",
"1171 230 CURVE SMOOTH",
"1171 262 OFFCURVE",
"1146 299 OFFCURVE",
"1093 299 CURVE SMOOTH",
"1014 299 OFFCURVE",
"977 233 OFFCURVE",
"977 155 CURVE",
"977 56 OFFCURVE",
"1040 -14 OFFCURVE",
"1126 -14 CURVE SMOOTH",
"1237 -14 OFFCURVE",
"1323 82 OFFCURVE",
"1323 248 CURVE"
);
}
);
width = 1479;
},
{
associatedMasterId = "034236B8-3FA8-43DA-9EDA-EFF269A687EC";
layerId = "5ACBC9B8-96C0-4446-975D-7682D443440F";
name = "Regular Nov 4 15, 19:09";
paths = (
{
closed = 1;
nodes = (
"781 282 OFFCURVE",
"781 185 CURVE",
"781 116 OFFCURVE",
"731 79 OFFCURVE",
"654 79 CURVE SMOOTH",
"507 79 LINE SMOOTH",
"453 79 OFFCURVE",
"425 102 OFFCURVE",
"425 138 CURVE SMOOTH",
"425 217 OFFCURVE",
"549 200 OFFCURVE",
"549 321 CURVE SMOOTH",
"549 399 OFFCURVE",
"498 450 OFFCURVE",
"445 450 CURVE SMOOTH",
"377 450 OFFCURVE",
"322 399 OFFCURVE",
"303 326 CURVE",
"301 326 LINE",
"281 399 OFFCURVE",
"221 450 OFFCURVE",
"161 450 CURVE SMOOTH",
"95 450 OFFCURVE",
"44 395 OFFCURVE",
"44 326 CURVE SMOOTH",
"44 300 OFFCURVE",
"51 277 OFFCURVE",
"70 256 CURVE",
"97 274 LINE",
"91 281 OFFCURVE",
"86 294 OFFCURVE",
"86 306 CURVE SMOOTH",
"86 339 OFFCURVE",
"113 357 OFFCURVE",
"154 357 CURVE SMOOTH",
"225 357 OFFCURVE",
"286 310 OFFCURVE",
"298 244 CURVE",
"306 244 LINE",
"317 310 OFFCURVE",
"376 357 OFFCURVE",
"432 357 CURVE SMOOTH",
"478 357 OFFCURVE",
"508 334 OFFCURVE",
"508 296 CURVE SMOOTH",
"508 232 OFFCURVE",
"384 237 OFFCURVE",
"384 120 CURVE SMOOTH",
"384 46 OFFCURVE",
"430 -14 OFFCURVE",
"487 -14 CURVE SMOOTH",
"654 -14 LINE SMOOTH",
"757 -14 OFFCURVE",
"818 62 OFFCURVE",
"818 167 CURVE",
"818 257 OFFCURVE",
"787 331 OFFCURVE",
"747 378 CURVE",
"945 378 LINE",
"1007 378 OFFCURVE",
"1100 313 OFFCURVE",
"1100 217 CURVE SMOOTH",
"1100 107 OFFCURVE",
"1049 42 OFFCURVE",
"987 42 CURVE SMOOTH",
"950 42 OFFCURVE",
"920 67 OFFCURVE",
"920 99 CURVE",
"920 113 OFFCURVE",
"926 133 OFFCURVE",
"937 133 CURVE SMOOTH",
"939 133 OFFCURVE",
"940 132 OFFCURVE",
"940 127 CURVE SMOOTH",
"940 101 OFFCURVE",
"955 83 OFFCURVE",
"979 83 CURVE SMOOTH",
"1003 83 OFFCURVE",
"1021 103 OFFCURVE",
"1021 128 CURVE SMOOTH",
"1021 151 OFFCURVE",
"1000 177 OFFCURVE",
"962 177 CURVE SMOOTH",
"910 177 OFFCURVE",
"884 131 OFFCURVE",
"884 84 CURVE",
"884 30 OFFCURVE",
"928 -14 OFFCURVE",
"981 -14 CURVE SMOOTH",
"1067 -14 OFFCURVE",
"1136 65 OFFCURVE",
"1136 217 CURVE SMOOTH",
"1136 379 OFFCURVE",
"1037 450 OFFCURVE",
"935 450 CURVE",
"618 450 LINE",
"700 382 OFFCURVE"
);
}
);
width = 1180;
}
);
unicode = 0CE1;
},
{
color = 3;
glyphname = knE;
lastChange = "2015-11-30 18:00:34 +0000";
layers = (
{
background = {
paths = (
{
closed = 1;
nodes = (
"602 154 LINE",
"572 154 LINE",
"572 116 OFFCURVE",
"539 71 OFFCURVE",
"491 71 CURVE SMOOTH",
"418 71 OFFCURVE",
"352 146 OFFCURVE",
"339 221 CURVE",
"330 221 LINE",
"316 145 OFFCURVE",
"251 71 OFFCURVE",
"178 71 CURVE SMOOTH",
"125 71 OFFCURVE",
"98 114 OFFCURVE",
"98 156 CURVE",
"63 156 LINE",
"47 125 LINE",
"47 38 OFFCURVE",
"108 -14 OFFCURVE",
"175 -14 CURVE SMOOTH",
"243 -14 OFFCURVE",
"311 43 OFFCURVE",
"334 126 CURVE",
"336 126 LINE",
"359 43 OFFCURVE",
"427 -14 OFFCURVE",
"495 -14 CURVE SMOOTH",
"561 -14 OFFCURVE",
"622 38 OFFCURVE",
"622 125 CURVE"
);
}
);
};
layerId = "034236B8-3FA8-43DA-9EDA-EFF269A687EC";
name = Regular;
paths = (
{
closed = 1;
nodes = (
"418 71 OFFCURVE",
"352 146 OFFCURVE",
"339 221 CURVE",
"330 221 LINE",
"316 145 OFFCURVE",
"251 71 OFFCURVE",
"178 71 CURVE SMOOTH",
"125 71 OFFCURVE",
"93 114 OFFCURVE",
"93 156 CURVE",
"93 203 OFFCURVE",
"119 227 OFFCURVE",
"156 227 CURVE SMOOTH",
"186 227 OFFCURVE",
"211 217 OFFCURVE",
"222 193 CURVE",
"238 208 LINE",
"225 250 OFFCURVE",
"201 287 OFFCURVE",
"153 287 CURVE SMOOTH",
"93 287 OFFCURVE",
"50 232 OFFCURVE",
"50 143 CURVE",
"50 56 OFFCURVE",
"84 -14 OFFCURVE",
"173 -14 CURVE SMOOTH",
"243 -14 OFFCURVE",
"311 43 OFFCURVE",
"334 126 CURVE",
"336 126 LINE",
"359 43 OFFCURVE",
"427 -14 OFFCURVE",
"497 -14 CURVE",
"608 -14 OFFCURVE",
"670 78 OFFCURVE",
"670 224 CURVE SMOOTH",
"670 426 OFFCURVE",
"476 519 OFFCURVE",
"343 519 CURVE SMOOTH",
"308 519 OFFCURVE",
"288 500 OFFCURVE",
"288 477 CURVE SMOOTH",
"288 460 OFFCURVE",
"297 444 OFFCURVE",
"312 438 CURVE SMOOTH",
"334 430 OFFCURVE",
"354 439 OFFCURVE",
"383 439 CURVE SMOOTH",
"512 439 OFFCURVE",
"629 362 OFFCURVE",
"629 237 CURVE SMOOTH",
"629 168 OFFCURVE",
"589 71 OFFCURVE",
"491 71 CURVE"
);
}
);
width = 725;
}
);
unicode = 0C8E;
},
{
color = 3;
glyphname = knEE;
lastChange = "2015-11-30 18:02:43 +0000";
layers = (
{
background = {
paths = (
{
closed = 1;
nodes = (
"418 71 OFFCURVE",
"352 146 OFFCURVE",
"339 221 CURVE",
"330 221 LINE",
"316 145 OFFCURVE",
"251 71 OFFCURVE",
"178 71 CURVE SMOOTH",
"125 71 OFFCURVE",
"93 114 OFFCURVE",
"93 156 CURVE",
"93 203 OFFCURVE",
"119 227 OFFCURVE",
"156 227 CURVE SMOOTH",
"186 227 OFFCURVE",
"211 217 OFFCURVE",
"222 193 CURVE",
"238 208 LINE",
"225 250 OFFCURVE",
"201 287 OFFCURVE",
"153 287 CURVE SMOOTH",
"93 287 OFFCURVE",
"50 232 OFFCURVE",
"50 143 CURVE",
"50 56 OFFCURVE",
"84 -14 OFFCURVE",
"173 -14 CURVE SMOOTH",
"243 -14 OFFCURVE",
"311 43 OFFCURVE",
"334 126 CURVE",
"336 126 LINE",
"359 43 OFFCURVE",
"427 -14 OFFCURVE",
"497 -14 CURVE",
"608 -14 OFFCURVE",
"670 78 OFFCURVE",
"670 224 CURVE SMOOTH",
"670 426 OFFCURVE",
"476 519 OFFCURVE",
"343 519 CURVE SMOOTH",
"308 519 OFFCURVE",
"288 500 OFFCURVE",
"288 477 CURVE SMOOTH",
"288 460 OFFCURVE",
"297 444 OFFCURVE",
"312 438 CURVE SMOOTH",
"334 430 OFFCURVE",
"354 439 OFFCURVE",
"383 439 CURVE SMOOTH",
"512 439 OFFCURVE",
"629 362 OFFCURVE",
"629 237 CURVE SMOOTH",
"629 168 OFFCURVE",
"589 71 OFFCURVE",
"491 71 CURVE"
);
}
);
};
layerId = "034236B8-3FA8-43DA-9EDA-EFF269A687EC";
name = Regular;
paths = (
{
closed = 1;
nodes = (
"608 -14 OFFCURVE",
"670 78 OFFCURVE",
"670 224 CURVE",
"670 391 OFFCURVE",
"547 532 OFFCURVE",
"373 532 CURVE",
"349 480 OFFCURVE",
"318 457 OFFCURVE",
"273 457 CURVE SMOOTH",
"217 457 OFFCURVE",
"174 506 OFFCURVE",
"190 581 CURVE",
"169 594 LINE",
"104 500 OFFCURVE",
"152 378 OFFCURVE",
"265 378 CURVE SMOOTH",
"330 378 OFFCURVE",
"369 420 OFFCURVE",
"394 476 CURVE",
"522 459 OFFCURVE",
"629 370 OFFCURVE",
"629 237 CURVE",
"629 151 OFFCURVE",
"578 71 OFFCURVE",
"490 71 CURVE",
"417 71 OFFCURVE",
"352 146 OFFCURVE",
"339 221 CURVE",
"330 221 LINE",
"316 145 OFFCURVE",
"250 71 OFFCURVE",
"177 71 CURVE SMOOTH",
"124 71 OFFCURVE",
"93 114 OFFCURVE",
"93 156 CURVE",
"93 203 OFFCURVE",
"120 227 OFFCURVE",
"157 227 CURVE SMOOTH",
"187 227 OFFCURVE",
"212 217 OFFCURVE",
"223 193 CURVE",
"239 208 LINE",
"226 250 OFFCURVE",
"202 287 OFFCURVE",
"154 287 CURVE SMOOTH",
"93 287 OFFCURVE",
"50 232 OFFCURVE",
"50 145 CURVE",
"50 56 OFFCURVE",
"84 -14 OFFCURVE",
"174 -14 CURVE SMOOTH",
"242 -14 OFFCURVE",
"311 43 OFFCURVE",
"334 126 CURVE",
"336 126 LINE",
"359 43 OFFCURVE",
"426 -14 OFFCURVE",
"498 -14 CURVE"
);
}
);
width = 724;
}
);
unicode = 0C8F;
},
{
color = 3;
glyphname = knAI;
lastChange = "2015-11-30 18:03:47 +0000";
layers = (
{
background = {
paths = (
{
closed = 0;
nodes = (
"647 237 LINE",
"647 151 OFFCURVE",
"596 71 OFFCURVE",
"508 71 CURVE",
"435 71 OFFCURVE",
"370 146 OFFCURVE",
"357 221 CURVE",
"348 221 LINE",
"334 145 OFFCURVE",
"268 71 OFFCURVE",
"195 71 CURVE SMOOTH",
"142 71 OFFCURVE",
"111 114 OFFCURVE",
"111 156 CURVE",
"111 203 OFFCURVE",
"138 227 OFFCURVE",
"175 227 CURVE SMOOTH",
"205 227 OFFCURVE",
"230 217 OFFCURVE",
"241 193 CURVE",
"257 208 LINE",
"244 250 OFFCURVE",
"220 287 OFFCURVE",
"172 287 CURVE SMOOTH",
"111 287 OFFCURVE",
"68 232 OFFCURVE",
"68 145 CURVE",
"68 56 OFFCURVE",
"102 -14 OFFCURVE",
"192 -14 CURVE SMOOTH",
"260 -14 OFFCURVE",
"329 43 OFFCURVE",
"352 126 CURVE",
"354 126 LINE",
"377 43 OFFCURVE",
"444 -14 OFFCURVE",
"516 -14 CURVE",
"626 -14 OFFCURVE",
"688 78 OFFCURVE",
"688 224 CURVE"
);
}
);
};
guideLines = (
{
position = "{37, 368}";
}
);
layerId = "034236B8-3FA8-43DA-9EDA-EFF269A687EC";
name = Regular;
paths = (
{
closed = 1;
nodes = (
"444 519 OFFCURVE",
"377 461 OFFCURVE",
"354 377 CURVE",
"352 377 LINE",
"329 461 OFFCURVE",
"259 519 OFFCURVE",
"190 519 CURVE SMOOTH",
"102 519 OFFCURVE",
"40 431 OFFCURVE",
"40 350 CURVE",
"71 330 LINE",
"88 377 OFFCURVE",
"114 444 OFFCURVE",
"194 444 CURVE SMOOTH",
"279 444 OFFCURVE",
"335 358 OFFCURVE",
"349 283 CURVE",
"358 283 LINE",
"370 357 OFFCURVE",
"426 444 OFFCURVE",
"509 444 CURVE SMOOTH",
"599 444 OFFCURVE",
"646 370 OFFCURVE",
"646 254 CURVE SMOOTH",
"646 151 OFFCURVE",
"595 71 OFFCURVE",
"509 71 CURVE SMOOTH",
"435 71 OFFCURVE",
"370 146 OFFCURVE",
"357 221 CURVE",
"348 221 LINE",
"334 145 OFFCURVE",
"269 71 OFFCURVE",
"196 71 CURVE SMOOTH",
"143 71 OFFCURVE",
"111 114 OFFCURVE",
"111 156 CURVE SMOOTH",
"111 203 OFFCURVE",
"138 227 OFFCURVE",
"174 227 CURVE SMOOTH",
"205 227 OFFCURVE",
"230 217 OFFCURVE",
"241 193 CURVE",
"257 208 LINE",
"244 250 OFFCURVE",
"220 287 OFFCURVE",
"172 287 CURVE SMOOTH",
"111 287 OFFCURVE",
"68 232 OFFCURVE",
"68 145 CURVE SMOOTH",
"68 56 OFFCURVE",
"102 -14 OFFCURVE",
"193 -14 CURVE SMOOTH",
"260 -14 OFFCURVE",
"329 43 OFFCURVE",
"352 126 CURVE",
"354 126 LINE",
"377 43 OFFCURVE",
"445 -14 OFFCURVE",
"513 -14 CURVE SMOOTH",
"623 -14 OFFCURVE",
"687 77 OFFCURVE",
"687 254 CURVE SMOOTH",
"687 391 OFFCURVE",
"627 519 OFFCURVE",
"513 519 CURVE SMOOTH"
);
}
);
width = 742;
}
);
unicode = 0C90;
},
{
color = 3;
glyphname = knO;
lastChange = "2015-11-30 15:20:38 +0000";
layers = (
{
background = {
paths = (
{
closed = 0;
nodes = (
"608 154 LINE",
"608 116 OFFCURVE",
"575 71 OFFCURVE",
"527 71 CURVE SMOOTH",
"454 71 OFFCURVE",
"388 146 OFFCURVE",
"375 221 CURVE",
"366 221 LINE",
"352 145 OFFCURVE",
"287 71 OFFCURVE",
"214 71 CURVE SMOOTH",
"161 71 OFFCURVE",
"134 114 OFFCURVE",
"134 156 CURVE"
);
},
{
closed = 0;
nodes = (
"83 125 LINE",
"83 38 OFFCURVE",
"144 -14 OFFCURVE",
"211 -14 CURVE SMOOTH",
"279 -14 OFFCURVE",
"347 43 OFFCURVE",
"370 126 CURVE",
"372 126 LINE",
"395 43 OFFCURVE",
"463 -14 OFFCURVE",
"531 -14 CURVE SMOOTH",
"597 -14 OFFCURVE",
"658 38 OFFCURVE",
"658 125 CURVE"
);
}
);
};
layerId = "034236B8-3FA8-43DA-9EDA-EFF269A687EC";
name = Regular;
paths = (
{
closed = 1;
nodes = (
"658 185 OFFCURVE",
"631 220 OFFCURVE",
"600 250 CURVE",
"574 233 LINE",
"596 209 OFFCURVE",
"608 184 OFFCURVE",
"608 154 CURVE",
"608 116 OFFCURVE",
"585 71 OFFCURVE",
"527 71 CURVE SMOOTH",
"454 71 OFFCURVE",
"388 146 OFFCURVE",
"375 221 CURVE",
"366 221 LINE",
"352 145 OFFCURVE",
"287 71 OFFCURVE",
"214 71 CURVE SMOOTH",
"161 71 OFFCURVE",
"134 114 OFFCURVE",
"134 156 CURVE",
"134 187 OFFCURVE",
"164 219 OFFCURVE",
"196 253 CURVE SMOOTH",
"236 294 OFFCURVE",
"281 340 OFFCURVE",
"281 399 CURVE SMOOTH",
"281 473 OFFCURVE",
"223 519 OFFCURVE",
"157 519 CURVE SMOOTH",
"99 519 OFFCURVE",
"40 485 OFFCURVE",
"40 416 CURVE SMOOTH",
"40 384 OFFCURVE",
"51 352 OFFCURVE",
"72 330 CURVE",
"103 350 LINE",
"95 365 OFFCURVE",
"93 377 OFFCURVE",
"93 388 CURVE SMOOTH",
"93 425 OFFCURVE",
"118 452 OFFCURVE",
"157 452 CURVE SMOOTH",
"194 452 OFFCURVE",
"228 427 OFFCURVE",
"228 385 CURVE SMOOTH",
"228 344 OFFCURVE",
"197 311 OFFCURVE",
"165 278 CURVE SMOOTH",
"126 238 OFFCURVE",
"83 193 OFFCURVE",
"83 125 CURVE",
"83 38 OFFCURVE",
"144 -14 OFFCURVE",
"211 -14 CURVE SMOOTH",
"279 -14 OFFCURVE",
"347 43 OFFCURVE",
"370 126 CURVE",
"372 126 LINE",
"395 43 OFFCURVE",
"463 -14 OFFCURVE",
"531 -14 CURVE SMOOTH",
"597 -14 OFFCURVE",
"658 38 OFFCURVE",
"658 125 CURVE"
);
}
);
width = 698;
}
);
unicode = 0C92;
},
{
color = 3;
glyphname = knOO;
lastChange = "2015-12-04 14:39:57 +0000";
layers = (
{
layerId = "034236B8-3FA8-43DA-9EDA-EFF269A687EC";
leftMetricsKey = "=knO";
rightMetricsKey = "=knO";
name = Regular;
paths = (
{
closed = 1;
nodes = (
"172 532 OFFCURVE",
"159 562 OFFCURVE",
"159 592 CURVE SMOOTH",
"159 625 OFFCURVE",
"181 657 OFFCURVE",
"222 672 CURVE",
"204 694 LINE",
"139 682 OFFCURVE",
"101 641 OFFCURVE",
"101 598 CURVE SMOOTH",
"101 553 OFFCURVE",
"130 519 OFFCURVE",
"186 495 CURVE",
"207 510 LINE"
);
},
{
closed = 1;
nodes = (
"658 185 OFFCURVE",
"631 220 OFFCURVE",
"600 250 CURVE",
"574 233 LINE",
"596 209 OFFCURVE",
"608 184 OFFCURVE",
"608 154 CURVE",
"608 116 OFFCURVE",
"575 71 OFFCURVE",
"527 71 CURVE SMOOTH",
"454 71 OFFCURVE",
"388 146 OFFCURVE",
"375 221 CURVE",
"366 221 LINE",
"352 145 OFFCURVE",
"287 71 OFFCURVE",
"214 71 CURVE SMOOTH",
"161 71 OFFCURVE",
"134 114 OFFCURVE",
"134 156 CURVE",
"134 187 OFFCURVE",
"164 219 OFFCURVE",
"196 253 CURVE SMOOTH",
"236 294 OFFCURVE",
"281 340 OFFCURVE",
"281 399 CURVE SMOOTH",
"281 473 OFFCURVE",
"223 519 OFFCURVE",
"157 519 CURVE SMOOTH",
"99 519 OFFCURVE",
"40 485 OFFCURVE",
"40 416 CURVE SMOOTH",
"40 384 OFFCURVE",
"51 352 OFFCURVE",
"72 330 CURVE",
"103 350 LINE",
"95 365 OFFCURVE",
"93 377 OFFCURVE",
"93 388 CURVE SMOOTH",
"93 425 OFFCURVE",
"118 452 OFFCURVE",
"157 452 CURVE SMOOTH",
"194 452 OFFCURVE",
"228 427 OFFCURVE",
"228 385 CURVE SMOOTH",
"228 344 OFFCURVE",
"197 311 OFFCURVE",
"165 278 CURVE SMOOTH",
"126 238 OFFCURVE",
"83 193 OFFCURVE",
"83 125 CURVE",
"83 38 OFFCURVE",
"144 -14 OFFCURVE",
"211 -14 CURVE SMOOTH",
"279 -14 OFFCURVE",
"347 43 OFFCURVE",
"370 126 CURVE",
"372 126 LINE",
"395 43 OFFCURVE",
"463 -14 OFFCURVE",
"531 -14 CURVE SMOOTH",
"597 -14 OFFCURVE",
"658 38 OFFCURVE",
"658 125 CURVE"
);
}
);
width = 698;
}
);
leftMetricsKey = "=o-kannada";
rightMetricsKey = "=o-kannada";
unicode = 0C93;
},
{
color = 3;
glyphname = knAU;
lastChange = "2015-12-04 14:39:57 +0000";
layers = (
{
layerId = "034236B8-3FA8-43DA-9EDA-EFF269A687EC";
leftMetricsKey = "=knO";
name = Regular;
paths = (
{
closed = 1;
nodes = (
"658 185 OFFCURVE",
"631 220 OFFCURVE",
"600 250 CURVE",
"574 233 LINE",
"596 209 OFFCURVE",
"608 184 OFFCURVE",
"608 156 CURVE",
"623 127 LINE",
"658 127 LINE"
);
},
{
closed = 1;
nodes = (
"393 485 OFFCURVE",
"413 500 OFFCURVE",
"431 500 CURVE SMOOTH",
"435 500 OFFCURVE",
"436 499 OFFCURVE",
"436 493 CURVE SMOOTH",
"436 463 OFFCURVE",
"454 442 OFFCURVE",
"481 442 CURVE SMOOTH",
"509 442 OFFCURVE",
"530 465 OFFCURVE",
"530 494 CURVE SMOOTH",
"530 521 OFFCURVE",
"505 551 OFFCURVE",
"462 551 CURVE SMOOTH",
"402 551 OFFCURVE",
"348 498 OFFCURVE",
"348 419 CURVE",
"348 341 OFFCURVE",
"413 287 OFFCURVE",
"487 287 CURVE SMOOTH",
"573 287 OFFCURVE",
"635 364 OFFCURVE",
"635 467 CURVE SMOOTH",
"635 602 OFFCURVE",
"543 698 OFFCURVE",
"394 698 CURVE SMOOTH",
"44 698 LINE",
"44 626 LINE",
"271 626 LINE",
"272 623 OFFCURVE",
"273 618 OFFCURVE",
"273 614 CURVE SMOOTH",
"273 599 OFFCURVE",
"265 578 OFFCURVE",
"237 578 CURVE SMOOTH",
"44 578 LINE",
"44 508 LINE",
"198 508 LINE",
"219 508 LINE",
"273 508 OFFCURVE",
"313 541 OFFCURVE",
"313 586 CURVE SMOOTH",
"313 599 OFFCURVE",
"310 613 OFFCURVE",
"303 626 CURVE",
"394 626 LINE SMOOTH",
"521 626 OFFCURVE",
"596 561 OFFCURVE",
"596 467 CURVE SMOOTH",
"596 399 OFFCURVE",
"553 349 OFFCURVE",
"487 349 CURVE SMOOTH",
"434 349 OFFCURVE",
"393 386 OFFCURVE",
"393 446 CURVE"
);
},
{
closed = 1;
nodes = (
"134 189 OFFCURVE",
"164 219 OFFCURVE",
"196 253 CURVE SMOOTH",
"236 294 OFFCURVE",
"281 340 OFFCURVE",
"281 399 CURVE SMOOTH",
"281 473 OFFCURVE",
"223 519 OFFCURVE",
"157 519 CURVE SMOOTH",
"99 519 OFFCURVE",
"40 485 OFFCURVE",
"40 416 CURVE SMOOTH",
"40 384 OFFCURVE",
"51 352 OFFCURVE",
"72 330 CURVE",
"103 350 LINE",
"95 365 OFFCURVE",
"93 377 OFFCURVE",
"93 388 CURVE SMOOTH",
"93 425 OFFCURVE",
"118 452 OFFCURVE",
"157 452 CURVE SMOOTH",
"194 452 OFFCURVE",
"228 427 OFFCURVE",
"228 385 CURVE SMOOTH",
"228 344 OFFCURVE",
"197 311 OFFCURVE",
"165 278 CURVE SMOOTH",
"126 238 OFFCURVE",
"83 195 OFFCURVE",
"83 127 CURVE",
"126 127 LINE",
"134 158 LINE"
);
},
{
closed = 1;
nodes = (
"658 185 OFFCURVE",
"631 220 OFFCURVE",
"600 250 CURVE",
"574 233 LINE",
"596 209 OFFCURVE",
"608 184 OFFCURVE",
"608 154 CURVE",
"608 116 OFFCURVE",
"575 71 OFFCURVE",
"527 71 CURVE SMOOTH",
"454 71 OFFCURVE",
"388 146 OFFCURVE",
"375 221 CURVE",
"366 221 LINE",
"352 145 OFFCURVE",
"287 71 OFFCURVE",
"214 71 CURVE SMOOTH",
"161 71 OFFCURVE",
"134 114 OFFCURVE",
"134 156 CURVE",
"134 187 OFFCURVE",
"164 219 OFFCURVE",
"196 253 CURVE SMOOTH",
"236 294 OFFCURVE",
"281 340 OFFCURVE",
"281 399 CURVE SMOOTH",
"281 473 OFFCURVE",
"223 519 OFFCURVE",
"157 519 CURVE SMOOTH",
"99 519 OFFCURVE",
"40 485 OFFCURVE",
"40 416 CURVE SMOOTH",
"40 384 OFFCURVE",
"51 352 OFFCURVE",
"72 330 CURVE",
"103 350 LINE",
"95 365 OFFCURVE",
"93 377 OFFCURVE",
"93 388 CURVE SMOOTH",
"93 425 OFFCURVE",
"118 452 OFFCURVE",
"157 452 CURVE SMOOTH",
"194 452 OFFCURVE",
"228 427 OFFCURVE",
"228 385 CURVE SMOOTH",
"228 344 OFFCURVE",
"197 311 OFFCURVE",
"165 278 CURVE SMOOTH",
"126 238 OFFCURVE",
"83 193 OFFCURVE",
"83 125 CURVE",
"83 38 OFFCURVE",
"144 -14 OFFCURVE",
"211 -14 CURVE SMOOTH",
"279 -14 OFFCURVE",
"347 43 OFFCURVE",
"370 126 CURVE",
"372 126 LINE",
"395 43 OFFCURVE",
"463 -14 OFFCURVE",
"531 -14 CURVE SMOOTH",
"597 -14 OFFCURVE",
"658 38 OFFCURVE",
"658 125 CURVE"
);
}
);
width = 713;
}
);
leftMetricsKey = "=o-kannada";
unicode = 0C94;
},
{
color = 3;
glyphname = knmAA;
lastChange = "2015-12-04 16:50:04 +0000";
layers = (
{
layerId = "034236B8-3FA8-43DA-9EDA-EFF269A687EC";
name = Regular;
paths = (
{
closed = 1;
nodes = (
"251 434 OFFCURVE",
"346 356 OFFCURVE",
"346 236 CURVE SMOOTH",
"346 132 OFFCURVE",
"297 69 OFFCURVE",
"198 69 CURVE SMOOTH",
"124 69 OFFCURVE",
"81 113 OFFCURVE",
"81 170 CURVE",
"81 212 OFFCURVE",
"100 238 OFFCURVE",
"113 238 CURVE SMOOTH",
"117 238 OFFCURVE",
"119 234 OFFCURVE",
"119 228 CURVE SMOOTH",
"119 192 OFFCURVE",
"140 166 OFFCURVE",
"174 166 CURVE SMOOTH",
"208 166 OFFCURVE",
"234 195 OFFCURVE",
"234 231 CURVE SMOOTH",
"234 263 OFFCURVE",
"208 300 OFFCURVE",
"155 300 CURVE SMOOTH",
"76 300 OFFCURVE",
"39 234 OFFCURVE",
"39 156 CURVE",
"39 57 OFFCURVE",
"102 -13 OFFCURVE",
"199 -13 CURVE SMOOTH",
"309 -13 OFFCURVE",
"385 83 OFFCURVE",
"385 239 CURVE SMOOTH",
"385 402 OFFCURVE",
"270 509 OFFCURVE",
"45 509 CURVE",
"-200 509 LINE",
"-200 434 LINE",
"96 434 LINE"
);
}
);
width = 445;
}
);
unicode = 0CBE;
},
{
color = 3;
glyphname = knmI;
lastChange = "2015-12-04 14:24:37 +0000";
layers = (
{
background = {
paths = (
{
closed = 1;
nodes = (
"99 434 LINE",
"180 434 OFFCURVE",
"234 480 OFFCURVE",
"234 553 CURVE SMOOTH",
"234 651 OFFCURVE",
"156 685 OFFCURVE",
"99 685 CURVE SMOOTH",
"44 685 OFFCURVE",
"16 657 OFFCURVE",
"16 625 CURVE SMOOTH",
"16 592 OFFCURVE",
"39 571 OFFCURVE",
"73 571 CURVE SMOOTH",
"107 571 OFFCURVE",
"128 597 OFFCURVE",
"128 633 CURVE SMOOTH",
"128 639 OFFCURVE",
"130 643 OFFCURVE",
"134 643 CURVE SMOOTH",
"147 643 OFFCURVE",
"191 629 OFFCURVE",
"191 577 CURVE",
"191 530 OFFCURVE",
"151 509 OFFCURVE",
"100 509 CURVE"
);
}
);
};
layerId = "034236B8-3FA8-43DA-9EDA-EFF269A687EC";
name = Regular;
paths = (
{
closed = 1;
nodes = (
"234 680 OFFCURVE",
"148 794 OFFCURVE",
"56 794 CURVE SMOOTH",
"-5 794 OFFCURVE",
"-40 753 OFFCURVE",
"-40 695 CURVE SMOOTH",
"-40 626 OFFCURVE",
"14 571 OFFCURVE",
"78 571 CURVE SMOOTH",
"137 571 OFFCURVE",
"159 615 OFFCURVE",
"159 661 CURVE",
"159 707 OFFCURVE",
"140 734 OFFCURVE",
"114 757 CURVE",
"59 761 LINE",
"89 735 OFFCURVE",
"113 708 OFFCURVE",
"113 669 CURVE SMOOTH",
"113 633 OFFCURVE",
"105 605 OFFCURVE",
"60 605 CURVE SMOOTH",
"20 605 OFFCURVE",
"-12 639 OFFCURVE",
"-12 676 CURVE SMOOTH",
"-12 708 OFFCURVE",
"9 734 OFFCURVE",
"53 734 CURVE SMOOTH",
"127 734 OFFCURVE",
"191 698 OFFCURVE",
"191 607 CURVE",
"191 530 OFFCURVE",
"161 509 OFFCURVE",
"100 509 CURVE",
"99 434 LINE",
"180 434 OFFCURVE",
"234 480 OFFCURVE",
"234 583 CURVE"
);
}
);
width = 244;
}
);
unicode = 0CBF;
},
{
color = 3;
glyphname = knmII;
lastChange = "2015-12-04 16:25:27 +0000";
layers = (
{
layerId = "034236B8-3FA8-43DA-9EDA-EFF269A687EC";
rightMetricsKey = "=knmEE";
name = Regular;
paths = (
{
closed = 1;
nodes = (
"234 680 OFFCURVE",
"148 794 OFFCURVE",
"56 794 CURVE SMOOTH",
"-5 794 OFFCURVE",
"-40 753 OFFCURVE",
"-40 695 CURVE SMOOTH",
"-40 626 OFFCURVE",
"14 571 OFFCURVE",
"78 571 CURVE SMOOTH",
"137 571 OFFCURVE",
"159 615 OFFCURVE",
"159 661 CURVE",
"159 707 OFFCURVE",
"140 734 OFFCURVE",
"114 757 CURVE",
"59 761 LINE",
"89 735 OFFCURVE",
"113 708 OFFCURVE",
"113 669 CURVE SMOOTH",
"113 633 OFFCURVE",
"105 605 OFFCURVE",
"60 605 CURVE SMOOTH",
"20 605 OFFCURVE",
"-12 639 OFFCURVE",
"-12 676 CURVE SMOOTH",
"-12 708 OFFCURVE",
"9 734 OFFCURVE",
"53 734 CURVE SMOOTH",
"127 734 OFFCURVE",
"191 698 OFFCURVE",
"191 607 CURVE",
"191 530 OFFCURVE",
"161 509 OFFCURVE",
"100 509 CURVE",
"99 434 LINE",
"180 434 OFFCURVE",
"234 480 OFFCURVE",
"234 583 CURVE"
);
},
{
closed = 1;
nodes = (
"324 392 OFFCURVE",
"314 361 OFFCURVE",
"314 325 CURVE SMOOTH",
"314 267 OFFCURVE",
"341 229 OFFCURVE",
"389 229 CURVE SMOOTH",
"426 229 OFFCURVE",
"483 269 OFFCURVE",
"483 345 CURVE SMOOTH",
"483 421 OFFCURVE",
"446 476 OFFCURVE",
"381 476 CURVE SMOOTH",
"291 476 OFFCURVE",
"240 363 OFFCURVE",
"240 248 CURVE SMOOTH",
"240 151 OFFCURVE",
"278 59 OFFCURVE",
"347 -15 CURVE",
"400 -15 LINE",
"399 14 LINE",
"320 91 OFFCURVE",
"276 170 OFFCURVE",
"276 240 CURVE",
"276 346 OFFCURVE",
"318 408 OFFCURVE",
"388 408 CURVE SMOOTH",
"426 408 OFFCURVE",
"455 386 OFFCURVE",
"455 347 CURVE SMOOTH",
"455 317 OFFCURVE",
"430 287 OFFCURVE",
"391 287 CURVE SMOOTH",
"356 287 OFFCURVE",
"338 314 OFFCURVE",
"338 347 CURVE SMOOTH",
"338 381 OFFCURVE",
"351 408 OFFCURVE",
"378 438 CURVE",
"334 420 LINE"
);
}
);
width = 533;
},
{
associatedMasterId = "034236B8-3FA8-43DA-9EDA-EFF269A687EC";
layerId = "22EAF33D-C426-4B70-83E5-F92CACEADDA1";
name = "Regular Nov 7 15, 13:02";
paths = (
{
closed = 1;
nodes = (
"270 341 OFFCURVE",
"256 314 OFFCURVE",
"256 283 CURVE SMOOTH",
"256 232 OFFCURVE",
"280 199 OFFCURVE",
"322 199 CURVE SMOOTH",
"354 199 OFFCURVE",
"403 234 OFFCURVE",
"403 300 CURVE SMOOTH",
"403 366 OFFCURVE",
"371 414 OFFCURVE",
"315 414 CURVE SMOOTH",
"236 414 OFFCURVE",
"192 316 OFFCURVE",
"192 216 CURVE SMOOTH",
"192 131 OFFCURVE",
"225 52 OFFCURVE",
"285 -12 CURVE",
"357 -12 LINE",
"272 62 OFFCURVE",
"223 140 OFFCURVE",
"223 209 CURVE",
"223 301 OFFCURVE",
"260 355 OFFCURVE",
"321 355 CURVE SMOOTH",
"354 355 OFFCURVE",
"379 336 OFFCURVE",
"379 302 CURVE SMOOTH",
"379 276 OFFCURVE",
"357 250 OFFCURVE",
"323 250 CURVE SMOOTH",
"293 250 OFFCURVE",
"277 273 OFFCURVE",
"277 302 CURVE SMOOTH",
"277 331 OFFCURVE",
"289 355 OFFCURVE",
"312 381 CURVE",
"279 365 LINE"
);
},
{
closed = 1;
nodes = (
"-32 381 OFFCURVE",
"68 404 OFFCURVE",
"68 492 CURVE",
"68 570 OFFCURVE",
"-5 613 OFFCURVE",
"-52 613 CURVE SMOOTH",
"-90 613 OFFCURVE",
"-108 590 OFFCURVE",
"-108 562 CURVE SMOOTH",
"-108 530 OFFCURVE",
"-81 501 OFFCURVE",
"-46 501 CURVE SMOOTH",
"-7 501 OFFCURVE",
"0 525 OFFCURVE",
"0 556 CURVE SMOOTH",
"0 590 OFFCURVE",
"-21 614 OFFCURVE",
"-47 636 CURVE",
"1 633 LINE",
"24 613 OFFCURVE",
"40 589 OFFCURVE",
"40 549 CURVE",
"40 509 OFFCURVE",
"21 471 OFFCURVE",
"-30 471 CURVE SMOOTH",
"-86 471 OFFCURVE",
"-133 519 OFFCURVE",
"-133 579 CURVE SMOOTH",
"-133 629 OFFCURVE",
"-102 665 OFFCURVE",
"-49 665 CURVE SMOOTH",
"31 665 OFFCURVE",
"91 572 OFFCURVE",
"91 493 CURVE SMOOTH",
"91 406 OFFCURVE",
"51 342 OFFCURVE",
"-74 335 CURVE",
"-98 381 LINE"
);
}
);
width = 466;
}
);
rightMetricsKey = "=knmEE";
unicode = 0CC0;
},
{
color = 3;
glyphname = knmU;
lastChange = "2015-12-04 15:40:10 +0000";
layers = (
{
background = {
paths = (
{
closed = 1;
nodes = (
"53 519 OFFCURVE",
"34 500 OFFCURVE",
"34 482 CURVE SMOOTH",
"34 465 OFFCURVE",
"44 455 OFFCURVE",
"58 448 CURVE SMOOTH",
"73 440 OFFCURVE",
"96 444 OFFCURVE",
"128 437 CURVE SMOOTH",
"189 425 OFFCURVE",
"248 351 OFFCURVE",
"248 247 CURVE",
"248 138 OFFCURVE",
"179 71 OFFCURVE",
"93 71 CURVE",
"6 71 OFFCURVE",
"-43 145 OFFCURVE",
"-63 189 CURVE",
"-87 119 LINE",
"-55 62 OFFCURVE",
"10 -14 OFFCURVE",
"105 -14 CURVE",
"230 -14 OFFCURVE",
"289 109 OFFCURVE",
"289 235 CURVE",
"289 392 OFFCURVE",
"175 519 OFFCURVE",
"89 519 CURVE SMOOTH"
);
}
);
};
layerId = "034236B8-3FA8-43DA-9EDA-EFF269A687EC";
rightMetricsKey = "=knYA";
name = Regular;
paths = (
{
closed = 1;
nodes = (
"205 -14 OFFCURVE",
"285 115 OFFCURVE",
"285 242 CURVE",
"285 415 OFFCURVE",
"199 513 OFFCURVE",
"128 513 CURVE SMOOTH",
"97 513 OFFCURVE",
"80 493 OFFCURVE",
"80 470 CURVE SMOOTH",
"80 451 OFFCURVE",
"92 435 OFFCURVE",
"108 430 CURVE SMOOTH",
"131 423 OFFCURVE",
"152 428 OFFCURVE",
"176 420 CURVE SMOOTH",
"213 407 OFFCURVE",
"244 344 OFFCURVE",
"244 255 CURVE",
"244 159 OFFCURVE",
"174 71 OFFCURVE",
"92 71 CURVE",
"13 71 OFFCURVE",
"-52 132 OFFCURVE",
"-87 235 CURVE",
"-107 216 LINE",
"-107 89 OFFCURVE",
"-4 -14 OFFCURVE",
"92 -14 CURVE"
);
}
);
width = 340;
}
);
rightMetricsKey = "=knYA";
unicode = 0CC1;
},
{
color = 3;
glyphname = knmUU;
lastChange = "2015-12-04 15:15:55 +0000";
layers = (
{
background = {
paths = (
{
closed = 1;
nodes = (
"614 140 OFFCURVE",
"564 65 OFFCURVE",
"476 65 CURVE SMOOTH",
"401 65 OFFCURVE",
"359 112 OFFCURVE",
"359 169 CURVE",
"359 211 OFFCURVE",
"368 237 OFFCURVE",
"380 237 CURVE SMOOTH",
"385 237 OFFCURVE",
"386 232 OFFCURVE",
"386 227 CURVE SMOOTH",
"386 191 OFFCURVE",
"408 165 OFFCURVE",
"441 165 CURVE SMOOTH",
"476 165 OFFCURVE",
"501 194 OFFCURVE",
"501 230 CURVE SMOOTH",
"501 262 OFFCURVE",
"476 299 OFFCURVE",
"423 299 CURVE SMOOTH",
"344 299 OFFCURVE",
"307 233 OFFCURVE",
"307 155 CURVE",
"307 56 OFFCURVE",
"370 -14 OFFCURVE",
"456 -14 CURVE SMOOTH",
"567 -14 OFFCURVE",
"653 82 OFFCURVE",
"653 238 CURVE",
"653 424 OFFCURVE",
"515 519 OFFCURVE",
"398 519 CURVE",
"305 519 OFFCURVE",
"184 456 OFFCURVE",
"184 293 CURVE",
"184 177 OFFCURVE",
"168 71 OFFCURVE",
"75 71 CURVE",
"-2 71 OFFCURVE",
"-52 145 OFFCURVE",
"-71 189 CURVE",
"-85 218 LINE",
"-111 182 LINE",
"-96 139 LINE",
"-83 82 OFFCURVE",
"-8 -14 OFFCURVE",
"78 -14 CURVE",
"201 -14 OFFCURVE",
"231 103 OFFCURVE",
"231 294 CURVE",
"231 416 OFFCURVE",
"320 437 OFFCURVE",
"398 437 CURVE SMOOTH",
"492 437 OFFCURVE",
"614 357 OFFCURVE",
"614 235 CURVE"
);
}
);
};
layerId = "034236B8-3FA8-43DA-9EDA-EFF269A687EC";
name = Regular;
paths = (
{
closed = 1;
nodes = (
"614 140 OFFCURVE",
"564 71 OFFCURVE",
"472 71 CURVE SMOOTH",
"401 71 OFFCURVE",
"359 112 OFFCURVE",
"359 169 CURVE",
"359 211 OFFCURVE",
"368 237 OFFCURVE",
"380 237 CURVE SMOOTH",
"385 237 OFFCURVE",
"386 232 OFFCURVE",
"386 227 CURVE SMOOTH",
"386 191 OFFCURVE",
"408 165 OFFCURVE",
"441 165 CURVE SMOOTH",
"476 165 OFFCURVE",
"501 194 OFFCURVE",
"501 230 CURVE SMOOTH",
"501 262 OFFCURVE",
"476 299 OFFCURVE",
"423 299 CURVE SMOOTH",
"344 299 OFFCURVE",
"307 233 OFFCURVE",
"307 155 CURVE",
"307 56 OFFCURVE",
"370 -14 OFFCURVE",
"456 -14 CURVE SMOOTH",
"567 -14 OFFCURVE",
"653 82 OFFCURVE",
"653 238 CURVE",
"653 424 OFFCURVE",
"515 519 OFFCURVE",
"398 519 CURVE",
"305 519 OFFCURVE",
"184 456 OFFCURVE",
"184 273 CURVE",
"184 177 OFFCURVE",
"168 71 OFFCURVE",
"75 71 CURVE",
"-6 71 OFFCURVE",
"-56 145 OFFCURVE",
"-85 222 CURVE",
"-107 182 LINE",
"-98 84 OFFCURVE",
"-11 -14 OFFCURVE",
"78 -14 CURVE",
"201 -14 OFFCURVE",
"231 103 OFFCURVE",
"231 274 CURVE",
"231 416 OFFCURVE",
"320 437 OFFCURVE",
"398 437 CURVE SMOOTH",
"492 437 OFFCURVE",
"614 357 OFFCURVE",
"614 235 CURVE"
);
}
);
width = 708;
}
);
unicode = 0CC2;
},
{
color = 0;
glyphname = knmvR;
lastChange = "2015-12-04 16:03:23 +0000";
layers = (
{
background = {
paths = (
{
closed = 1;
nodes = (
"-103 -254 OFFCURVE",
"-48 -308 OFFCURVE",
"31 -308 CURVE",
"111 -308 OFFCURVE",
"167 -243 OFFCURVE",
"167 -170 CURVE",
"167 -109 OFFCURVE",
"127 -64 OFFCURVE",
"98 -64 CURVE SMOOTH",
"82 -64 OFFCURVE",
"72 -73 OFFCURVE",
"72 -83 CURVE SMOOTH",
"72 -92 OFFCURVE",
"77 -100 OFFCURVE",
"85 -102 CURVE SMOOTH",
"95 -105 OFFCURVE",
"105 -103 OFFCURVE",
"116 -107 CURVE SMOOTH",
"134 -113 OFFCURVE",
"147 -133 OFFCURVE",
"147 -166 CURVE",
"147 -224 OFFCURVE",
"95 -269 OFFCURVE",
"30 -269 CURVE",
"-34 -269 OFFCURVE",
"-83 -229 OFFCURVE",
"-83 -175 CURVE",
"-83 -144 OFFCURVE",
"-76 -120 OFFCURVE",
"-61 -105 CURVE",
"-61 -110 OFFCURVE",
"-61 -116 OFFCURVE",
"-61 -122 CURVE SMOOTH",
"-61 -155 OFFCURVE",
"-43 -171 OFFCURVE",
"-20 -171 CURVE SMOOTH",
"4 -171 OFFCURVE",
"19 -148 OFFCURVE",
"19 -117 CURVE SMOOTH",
"19 -87 OFFCURVE",
"7 -62 OFFCURVE",
"-26 -62 CURVE SMOOTH",
"-69 -62 OFFCURVE",
"-103 -118 OFFCURVE",
"-103 -175 CURVE"
);
},
{
closed = 1;
nodes = (
"5 -129 OFFCURVE",
"-4 -139 OFFCURVE",
"-20 -139 CURVE SMOOTH",
"-35 -139 OFFCURVE",
"-48 -131 OFFCURVE",
"-48 -109 CURVE SMOOTH",
"-48 -104 OFFCURVE",
"-48 -99 OFFCURVE",
"-47 -94 CURVE",
"-41 -92 OFFCURVE",
"-35 -90 OFFCURVE",
"-28 -90 CURVE SMOOTH",
"-6 -90 OFFCURVE",
"5 -99 OFFCURVE",
"5 -117 CURVE SMOOTH"
);
}
);
};
layerId = "034236B8-3FA8-43DA-9EDA-EFF269A687EC";
name = Regular;
paths = (
{
closed = 1;
nodes = (
"-42 -89 OFFCURVE",
"-48 -108 OFFCURVE",
"-48 -123 CURVE SMOOTH",
"-48 -145 OFFCURVE",
"-35 -160 OFFCURVE",
"-17 -160 CURVE SMOOTH",
"2 -160 OFFCURVE",
"13 -144 OFFCURVE",
"13 -124 CURVE SMOOTH",
"13 -105 OFFCURVE",
"-2 -91 OFFCURVE",
"-21 -91 CURVE SMOOTH",
"-47 -91 OFFCURVE",
"-83 -115 OFFCURVE",
"-83 -175 CURVE SMOOTH",
"-83 -229 OFFCURVE",
"-34 -269 OFFCURVE",
"26 -269 CURVE SMOOTH",
"94 -269 OFFCURVE",
"136 -215 OFFCURVE",
"136 -155 CURVE SMOOTH",
"136 -84 OFFCURVE",
"107 -31 OFFCURVE",
"72 6 CURVE SMOOTH",
"41 37 OFFCURVE",
"28 55 OFFCURVE",
"28 71 CURVE SMOOTH",
"28 83 OFFCURVE",
"36 89 OFFCURVE",
"46 89 CURVE SMOOTH",
"56 89 OFFCURVE",
"64 85 OFFCURVE",
"76 68 CURVE SMOOTH",
"117 12 OFFCURVE",
"159 -73 OFFCURVE",
"159 -157 CURVE SMOOTH",
"159 -239 OFFCURVE",
"109 -308 OFFCURVE",
"23 -308 CURVE SMOOTH",
"-39 -308 OFFCURVE",
"-103 -259 OFFCURVE",
"-103 -175 CURVE SMOOTH",
"-103 -95 OFFCURVE",
"-59 -62 OFFCURVE",
"-26 -62 CURVE SMOOTH",
"0 -62 OFFCURVE",
"28 -78 OFFCURVE",
"28 -127 CURVE SMOOTH",
"28 -161 OFFCURVE",
"15 -188 OFFCURVE",
"-17 -188 CURVE SMOOTH",
"-44 -188 OFFCURVE",
"-64 -162 OFFCURVE",
"-64 -134 CURVE SMOOTH",
"-64 -108 OFFCURVE",
"-61 -93 OFFCURVE",
"-51 -77 CURVE",
"-28 -76 LINE"
);
}
);
width = 109;
}
);
unicode = 0CC3;
},
{
color = 0;
glyphname = knmvRR;
lastChange = "2015-12-04 16:15:58 +0000";
layers = (
{
layerId = "034236B8-3FA8-43DA-9EDA-EFF269A687EC";
name = Regular;
paths = (
{
closed = 1;
nodes = (
"132 -224 OFFCURVE",
"81 -269 OFFCURVE",
"16 -269 CURVE",
"-48 -269 OFFCURVE",
"-97 -229 OFFCURVE",
"-97 -175 CURVE",
"-97 -144 OFFCURVE",
"-90 -120 OFFCURVE",
"-75 -105 CURVE",
"-75 -110 OFFCURVE",
"-75 -116 OFFCURVE",
"-75 -122 CURVE SMOOTH",
"-75 -155 OFFCURVE",
"-57 -171 OFFCURVE",
"-34 -171 CURVE SMOOTH",
"-10 -171 OFFCURVE",
"5 -148 OFFCURVE",
"5 -117 CURVE SMOOTH",
"5 -87 OFFCURVE",
"-7 -62 OFFCURVE",
"-40 -62 CURVE SMOOTH",
"-83 -62 OFFCURVE",
"-117 -118 OFFCURVE",
"-117 -175 CURVE",
"-117 -254 OFFCURVE",
"-62 -308 OFFCURVE",
"17 -308 CURVE",
"97 -308 OFFCURVE",
"153 -243 OFFCURVE",
"153 -170 CURVE",
"153 -95 OFFCURVE",
"119 -30 OFFCURVE",
"80 21 CURVE",
"249 21 LINE",
"322 21 OFFCURVE",
"369 -40 OFFCURVE",
"369 -103 CURVE",
"369 -159 OFFCURVE",
"339 -201 OFFCURVE",
"284 -201 CURVE SMOOTH",
"243 -201 OFFCURVE",
"217 -176 OFFCURVE",
"217 -143 CURVE",
"217 -117 OFFCURVE",
"223 -102 OFFCURVE",
"230 -102 CURVE SMOOTH",
"234 -102 OFFCURVE",
"234 -104 OFFCURVE",
"234 -107 CURVE SMOOTH",
"234 -129 OFFCURVE",
"247 -144 OFFCURVE",
"266 -144 CURVE SMOOTH",
"287 -144 OFFCURVE",
"302 -127 OFFCURVE",
"302 -105 CURVE SMOOTH",
"302 -86 OFFCURVE",
"287 -65 OFFCURVE",
"255 -65 CURVE SMOOTH",
"208 -65 OFFCURVE",
"186 -104 OFFCURVE",
"186 -151 CURVE",
"186 -210 OFFCURVE",
"225 -251 OFFCURVE",
"274 -251 CURVE SMOOTH",
"341 -251 OFFCURVE",
"393 -193 OFFCURVE",
"393 -95 CURVE",
"393 9 OFFCURVE",
"324 60 OFFCURVE",
"242 60 CURVE",
"24 60 LINE",
"24 46 LINE",
"70 -3 OFFCURVE",
"132 -78 OFFCURVE",
"132 -168 CURVE"
);
},
{
closed = 1;
nodes = (
"-9 -129 OFFCURVE",
"-18 -139 OFFCURVE",
"-34 -139 CURVE SMOOTH",
"-49 -139 OFFCURVE",
"-62 -131 OFFCURVE",
"-62 -109 CURVE SMOOTH",
"-62 -104 OFFCURVE",
"-62 -99 OFFCURVE",
"-61 -94 CURVE",
"-55 -92 OFFCURVE",
"-49 -90 OFFCURVE",
"-42 -90 CURVE SMOOTH",
"-20 -90 OFFCURVE",
"-9 -99 OFFCURVE",
"-9 -117 CURVE SMOOTH"
);
}
);
width = 336;
}
);
unicode = 0CC4;
},
{
color = 3;
glyphname = knmvL;
lastChange = "2015-12-04 15:55:39 +0000";
layers = (
{
anchors = (
{
name = _bottom;
position = "{-11, 0}";
}
);
background = {
paths = (
{
closed = 1;
nodes = (
"567 -105 OFFCURVE",
"498 -54 OFFCURVE",
"416 -54 CURVE",
"226 -54 LINE",
"218 -78 LINE",
"254 -107 OFFCURVE",
"300 -158 OFFCURVE",
"300 -228 CURVE",
"300 -276 OFFCURVE",
"265 -315 OFFCURVE",
"212 -315 CURVE SMOOTH",
"113 -315 LINE SMOOTH",
"75 -315 OFFCURVE",
"57 -288 OFFCURVE",
"57 -261 CURVE SMOOTH",
"57 -218 OFFCURVE",
"141 -213 OFFCURVE",
"141 -136 CURVE SMOOTH",
"141 -83 OFFCURVE",
"106 -49 OFFCURVE",
"68 -49 CURVE SMOOTH",
"27 -49 OFFCURVE",
"-13 -83 OFFCURVE",
"-26 -132 CURVE",
"-27 -132 LINE",
"-41 -83 OFFCURVE",
"-83 -49 OFFCURVE",
"-124 -49 CURVE SMOOTH",
"-168 -49 OFFCURVE",
"-203 -86 OFFCURVE",
"-203 -132 CURVE SMOOTH",
"-203 -150 OFFCURVE",
"-199 -166 OFFCURVE",
"-185 -181 CURVE",
"-167 -168 LINE",
"-171 -164 OFFCURVE",
"-174 -155 OFFCURVE",
"-174 -146 CURVE SMOOTH",
"-174 -124 OFFCURVE",
"-157 -93 OFFCURVE",
"-122 -93 CURVE SMOOTH",
"-71 -93 OFFCURVE",
"-38 -144 OFFCURVE",
"-30 -188 CURVE",
"-25 -188 LINE",
"-16 -144 OFFCURVE",
"16 -93 OFFCURVE",
"65 -93 CURVE SMOOTH",
"97 -93 OFFCURVE",
"113 -110 OFFCURVE",
"113 -136 CURVE SMOOTH",
"113 -197 OFFCURVE",
"29 -194 OFFCURVE",
"29 -273 CURVE SMOOTH",
"29 -324 OFFCURVE",
"61 -356 OFFCURVE",
"99 -356 CURVE SMOOTH",
"212 -356 LINE SMOOTH",
"282 -356 OFFCURVE",
"325 -313 OFFCURVE",
"325 -241 CURVE",
"325 -175 OFFCURVE",
"300 -124 OFFCURVE",
"266 -93 CURVE",
"423 -93 LINE SMOOTH",
"496 -93 OFFCURVE",
"543 -154 OFFCURVE",
"543 -217 CURVE",
"543 -273 OFFCURVE",
"513 -315 OFFCURVE",
"458 -315 CURVE SMOOTH",
"417 -315 OFFCURVE",
"391 -290 OFFCURVE",
"391 -257 CURVE",
"391 -231 OFFCURVE",
"397 -216 OFFCURVE",
"404 -216 CURVE SMOOTH",
"408 -216 OFFCURVE",
"408 -218 OFFCURVE",
"408 -221 CURVE SMOOTH",
"408 -243 OFFCURVE",
"421 -258 OFFCURVE",
"440 -258 CURVE SMOOTH",
"461 -258 OFFCURVE",
"476 -241 OFFCURVE",
"476 -219 CURVE SMOOTH",
"476 -200 OFFCURVE",
"461 -179 OFFCURVE",
"429 -179 CURVE SMOOTH",
"382 -179 OFFCURVE",
"360 -218 OFFCURVE",
"360 -265 CURVE",
"360 -324 OFFCURVE",
"399 -365 OFFCURVE",
"448 -365 CURVE SMOOTH",
"515 -365 OFFCURVE",
"567 -307 OFFCURVE",
"567 -209 CURVE"
);
}
);
};
layerId = "034236B8-3FA8-43DA-9EDA-EFF269A687EC";
name = Regular;
paths = (
{
closed = 1;
nodes = (
"323 -135 OFFCURVE",
"263 -55 OFFCURVE",
"211 -55 CURVE SMOOTH",
"192 -55 OFFCURVE",
"179 -61 OFFCURVE",
"179 -75 CURVE SMOOTH",
"179 -86 OFFCURVE",
"187 -93 OFFCURVE",
"194 -97 CURVE SMOOTH",
"202 -102 OFFCURVE",
"216 -98 OFFCURVE",
"235 -103 CURVE SMOOTH",
"265 -112 OFFCURVE",
"297 -175 OFFCURVE",
"297 -228 CURVE",
"297 -275 OFFCURVE",
"265 -315 OFFCURVE",
"213 -315 CURVE SMOOTH",
"113 -315 LINE SMOOTH",
"76 -315 OFFCURVE",
"56 -287 OFFCURVE",
"56 -263 CURVE SMOOTH",
"56 -215 OFFCURVE",
"141 -206 OFFCURVE",
"141 -137 CURVE SMOOTH",
"141 -83 OFFCURVE",
"107 -49 OFFCURVE",
"68 -49 CURVE SMOOTH",
"27 -49 OFFCURVE",
"-13 -83 OFFCURVE",
"-27 -134 CURVE",
"-28 -134 LINE",
"-42 -83 OFFCURVE",
"-83 -49 OFFCURVE",
"-122 -49 CURVE SMOOTH",
"-166 -49 OFFCURVE",
"-203 -86 OFFCURVE",
"-203 -134 CURVE SMOOTH",
"-203 -149 OFFCURVE",
"-197 -166 OFFCURVE",
"-184 -180 CURVE",
"-165 -168 LINE",
"-170 -163 OFFCURVE",
"-172 -154 OFFCURVE",
"-172 -147 CURVE SMOOTH",
"-172 -125 OFFCURVE",
"-155 -93 OFFCURVE",
"-120 -93 CURVE SMOOTH",
"-71 -93 OFFCURVE",
"-39 -145 OFFCURVE",
"-30 -189 CURVE",
"-25 -189 LINE",
"-18 -145 OFFCURVE",
"17 -93 OFFCURVE",
"67 -93 CURVE SMOOTH",
"98 -93 OFFCURVE",
"113 -111 OFFCURVE",
"113 -135 CURVE SMOOTH",
"113 -197 OFFCURVE",
"28 -193 OFFCURVE",
"28 -271 CURVE SMOOTH",
"28 -324 OFFCURVE",
"61 -355 OFFCURVE",
"99 -355 CURVE SMOOTH",
"213 -355 LINE SMOOTH",
"282 -355 OFFCURVE",
"323 -314 OFFCURVE",
"323 -239 CURVE"
);
}
);
width = 65;
}
);
unicode = 0CE2;
},
{
color = 3;
glyphname = knmvLL;
lastChange = "2015-12-04 16:06:41 +0000";
layers = (
{
anchors = (
{
name = _bottom;
position = "{50, 0}";
}
);
background = {
anchors = (
{
name = _bottom;
position = "{50, 0}";
}
);
paths = (
{
closed = 1;
nodes = (
"567 -105 OFFCURVE",
"498 -54 OFFCURVE",
"416 -54 CURVE",
"226 -54 LINE",
"218 -78 LINE",
"254 -107 OFFCURVE",
"300 -158 OFFCURVE",
"300 -228 CURVE",
"300 -276 OFFCURVE",
"265 -315 OFFCURVE",
"212 -315 CURVE SMOOTH",
"113 -315 LINE SMOOTH",
"75 -315 OFFCURVE",
"57 -288 OFFCURVE",
"57 -261 CURVE SMOOTH",
"57 -218 OFFCURVE",
"141 -213 OFFCURVE",
"141 -136 CURVE SMOOTH",
"141 -83 OFFCURVE",
"106 -49 OFFCURVE",
"68 -49 CURVE SMOOTH",
"27 -49 OFFCURVE",
"-13 -83 OFFCURVE",
"-26 -132 CURVE",
"-27 -132 LINE",
"-41 -83 OFFCURVE",
"-83 -49 OFFCURVE",
"-124 -49 CURVE SMOOTH",
"-168 -49 OFFCURVE",
"-203 -86 OFFCURVE",
"-203 -132 CURVE SMOOTH",
"-203 -150 OFFCURVE",
"-199 -166 OFFCURVE",
"-185 -181 CURVE",
"-167 -168 LINE",
"-171 -164 OFFCURVE",
"-174 -155 OFFCURVE",
"-174 -146 CURVE SMOOTH",
"-174 -124 OFFCURVE",
"-157 -93 OFFCURVE",
"-122 -93 CURVE SMOOTH",
"-71 -93 OFFCURVE",
"-38 -144 OFFCURVE",
"-30 -188 CURVE",
"-25 -188 LINE",
"-16 -144 OFFCURVE",
"16 -93 OFFCURVE",
"65 -93 CURVE SMOOTH",
"97 -93 OFFCURVE",
"113 -110 OFFCURVE",
"113 -136 CURVE SMOOTH",
"113 -197 OFFCURVE",
"29 -194 OFFCURVE",
"29 -273 CURVE SMOOTH",
"29 -324 OFFCURVE",
"61 -356 OFFCURVE",
"99 -356 CURVE SMOOTH",
"212 -356 LINE SMOOTH",
"282 -356 OFFCURVE",
"325 -313 OFFCURVE",
"325 -241 CURVE",
"325 -175 OFFCURVE",
"300 -124 OFFCURVE",
"266 -93 CURVE",
"423 -93 LINE SMOOTH",
"496 -93 OFFCURVE",
"543 -154 OFFCURVE",
"543 -217 CURVE",
"543 -273 OFFCURVE",
"513 -315 OFFCURVE",
"458 -315 CURVE SMOOTH",
"417 -315 OFFCURVE",
"391 -290 OFFCURVE",
"391 -257 CURVE",
"391 -231 OFFCURVE",
"397 -216 OFFCURVE",
"404 -216 CURVE SMOOTH",
"408 -216 OFFCURVE",
"408 -218 OFFCURVE",
"408 -221 CURVE SMOOTH",
"408 -243 OFFCURVE",
"421 -258 OFFCURVE",
"440 -258 CURVE SMOOTH",
"461 -258 OFFCURVE",
"476 -241 OFFCURVE",
"476 -219 CURVE SMOOTH",
"476 -200 OFFCURVE",
"461 -179 OFFCURVE",
"429 -179 CURVE SMOOTH",
"382 -179 OFFCURVE",
"360 -218 OFFCURVE",
"360 -265 CURVE",
"360 -324 OFFCURVE",
"399 -365 OFFCURVE",
"448 -365 CURVE SMOOTH",
"515 -365 OFFCURVE",
"567 -307 OFFCURVE",
"567 -209 CURVE"
);
}
);
};
layerId = "034236B8-3FA8-43DA-9EDA-EFF269A687EC";
name = Regular;
paths = (
{
closed = 1;
nodes = (
"567 -105 OFFCURVE",
"498 -54 OFFCURVE",
"416 -54 CURVE",
"226 -54 LINE",
"218 -78 LINE",
"254 -107 OFFCURVE",
"300 -158 OFFCURVE",
"300 -228 CURVE",
"300 -276 OFFCURVE",
"265 -315 OFFCURVE",
"212 -315 CURVE SMOOTH",
"113 -315 LINE SMOOTH",
"75 -315 OFFCURVE",
"57 -288 OFFCURVE",
"57 -261 CURVE SMOOTH",
"57 -218 OFFCURVE",
"141 -213 OFFCURVE",
"141 -136 CURVE SMOOTH",
"141 -83 OFFCURVE",
"106 -49 OFFCURVE",
"68 -49 CURVE SMOOTH",
"27 -49 OFFCURVE",
"-13 -83 OFFCURVE",
"-26 -132 CURVE",
"-27 -132 LINE",
"-41 -83 OFFCURVE",
"-83 -49 OFFCURVE",
"-124 -49 CURVE SMOOTH",
"-168 -49 OFFCURVE",
"-203 -86 OFFCURVE",
"-203 -132 CURVE SMOOTH",
"-203 -150 OFFCURVE",
"-199 -166 OFFCURVE",
"-185 -181 CURVE",
"-167 -168 LINE",
"-171 -164 OFFCURVE",
"-174 -155 OFFCURVE",
"-174 -146 CURVE SMOOTH",
"-174 -124 OFFCURVE",
"-157 -93 OFFCURVE",
"-122 -93 CURVE SMOOTH",
"-71 -93 OFFCURVE",
"-38 -144 OFFCURVE",
"-30 -188 CURVE",
"-25 -188 LINE",
"-16 -144 OFFCURVE",
"16 -93 OFFCURVE",
"65 -93 CURVE SMOOTH",
"97 -93 OFFCURVE",
"113 -110 OFFCURVE",
"113 -136 CURVE SMOOTH",
"113 -197 OFFCURVE",
"29 -194 OFFCURVE",
"29 -273 CURVE SMOOTH",
"29 -324 OFFCURVE",
"61 -356 OFFCURVE",
"99 -356 CURVE SMOOTH",
"212 -356 LINE SMOOTH",
"282 -356 OFFCURVE",
"325 -313 OFFCURVE",
"325 -241 CURVE",
"325 -175 OFFCURVE",
"300 -124 OFFCURVE",
"266 -93 CURVE",
"423 -93 LINE SMOOTH",
"496 -93 OFFCURVE",
"543 -154 OFFCURVE",
"543 -217 CURVE",
"543 -273 OFFCURVE",
"513 -315 OFFCURVE",
"458 -315 CURVE SMOOTH",
"417 -315 OFFCURVE",
"391 -290 OFFCURVE",
"391 -257 CURVE",
"391 -231 OFFCURVE",
"397 -216 OFFCURVE",
"404 -216 CURVE SMOOTH",
"408 -216 OFFCURVE",
"408 -218 OFFCURVE",
"408 -221 CURVE SMOOTH",
"408 -243 OFFCURVE",
"421 -258 OFFCURVE",
"440 -258 CURVE SMOOTH",
"461 -258 OFFCURVE",
"476 -241 OFFCURVE",
"476 -219 CURVE SMOOTH",
"476 -200 OFFCURVE",
"461 -179 OFFCURVE",
"429 -179 CURVE SMOOTH",
"382 -179 OFFCURVE",
"360 -218 OFFCURVE",
"360 -265 CURVE",
"360 -324 OFFCURVE",
"399 -365 OFFCURVE",
"448 -365 CURVE SMOOTH",
"515 -365 OFFCURVE",
"567 -307 OFFCURVE",
"567 -209 CURVE"
);
}
);
width = 358;
}
);
unicode = 0CE3;
},
{
color = 3;
glyphname = knmE;
lastChange = "2015-12-04 10:11:12 +0000";
layers = (
{
background = {
paths = (
{
closed = 1;
nodes = (
"60 541 OFFCURVE",
"4 590 OFFCURVE",
"-68 590 CURVE",
"-67 567 LINE",
"-21 566 OFFCURVE",
"14 543 OFFCURVE",
"14 501 CURVE",
"60 476 LINE"
);
}
);
};
layerId = "034236B8-3FA8-43DA-9EDA-EFF269A687EC";
name = Regular;
paths = (
{
closed = 1;
nodes = (
"-200 434 LINE",
"-119 434 OFFCURVE",
"-65 480 OFFCURVE",
"-65 553 CURVE SMOOTH",
"-65 651 OFFCURVE",
"-143 685 OFFCURVE",
"-200 685 CURVE SMOOTH",
"-255 685 OFFCURVE",
"-283 657 OFFCURVE",
"-283 625 CURVE SMOOTH",
"-283 592 OFFCURVE",
"-260 571 OFFCURVE",
"-226 571 CURVE SMOOTH",
"-192 571 OFFCURVE",
"-171 597 OFFCURVE",
"-171 633 CURVE SMOOTH",
"-171 639 OFFCURVE",
"-169 643 OFFCURVE",
"-165 643 CURVE SMOOTH",
"-152 643 OFFCURVE",
"-108 629 OFFCURVE",
"-108 577 CURVE",
"-108 530 OFFCURVE",
"-148 509 OFFCURVE",
"-199 509 CURVE"
);
}
);
width = "-5";
}
);
unicode = 0CC6;
},
{
color = 3;
glyphname = knmEE;
lastChange = "2015-12-04 15:07:20 +0000";
layers = (
{
layerId = "034236B8-3FA8-43DA-9EDA-EFF269A687EC";
name = Regular;
paths = (
{
closed = 1;
nodes = (
"143 392 OFFCURVE",
"133 361 OFFCURVE",
"133 325 CURVE SMOOTH",
"133 267 OFFCURVE",
"160 229 OFFCURVE",
"208 229 CURVE SMOOTH",
"245 229 OFFCURVE",
"302 269 OFFCURVE",
"302 345 CURVE SMOOTH",
"302 421 OFFCURVE",
"265 476 OFFCURVE",
"200 476 CURVE SMOOTH",
"110 476 OFFCURVE",
"59 363 OFFCURVE",
"59 248 CURVE SMOOTH",
"59 151 OFFCURVE",
"97 59 OFFCURVE",
"166 -15 CURVE",
"219 -15 LINE",
"218 14 LINE",
"139 91 OFFCURVE",
"95 170 OFFCURVE",
"95 240 CURVE",
"95 346 OFFCURVE",
"137 408 OFFCURVE",
"207 408 CURVE SMOOTH",
"245 408 OFFCURVE",
"274 386 OFFCURVE",
"274 347 CURVE SMOOTH",
"274 317 OFFCURVE",
"249 287 OFFCURVE",
"210 287 CURVE SMOOTH",
"175 287 OFFCURVE",
"157 314 OFFCURVE",
"157 347 CURVE SMOOTH",
"157 381 OFFCURVE",
"170 408 OFFCURVE",
"197 438 CURVE",
"153 420 LINE"
);
},
{
closed = 1;
nodes = (
"-200 434 LINE",
"-119 434 OFFCURVE",
"-65 480 OFFCURVE",
"-65 553 CURVE SMOOTH",
"-65 651 OFFCURVE",
"-143 685 OFFCURVE",
"-200 685 CURVE SMOOTH",
"-255 685 OFFCURVE",
"-283 657 OFFCURVE",
"-283 625 CURVE SMOOTH",
"-283 592 OFFCURVE",
"-260 571 OFFCURVE",
"-226 571 CURVE SMOOTH",
"-192 571 OFFCURVE",
"-171 597 OFFCURVE",
"-171 633 CURVE SMOOTH",
"-171 639 OFFCURVE",
"-169 643 OFFCURVE",
"-165 643 CURVE SMOOTH",
"-152 643 OFFCURVE",
"-108 629 OFFCURVE",
"-108 577 CURVE",
"-108 530 OFFCURVE",
"-148 509 OFFCURVE",
"-199 509 CURVE"
);
}
);
width = 352;
}
);
unicode = 0CC7;
},
{
color = 0;
glyphname = knmAI;
lastChange = "2015-12-04 16:21:23 +0000";
layers = (
{
layerId = "034236B8-3FA8-43DA-9EDA-EFF269A687EC";
name = Regular;
paths = (
{
closed = 1;
nodes = (
"-255 685 OFFCURVE",
"-283 657 OFFCURVE",
"-283 625 CURVE SMOOTH",
"-283 592 OFFCURVE",
"-260 571 OFFCURVE",
"-226 571 CURVE SMOOTH",
"-192 571 OFFCURVE",
"-171 597 OFFCURVE",
"-171 633 CURVE SMOOTH",
"-171 639 OFFCURVE",
"-169 643 OFFCURVE",
"-165 643 CURVE SMOOTH",
"-152 643 OFFCURVE",
"-108 629 OFFCURVE",
"-108 577 CURVE",
"-108 530 OFFCURVE",
"-148 509 OFFCURVE",
"-199 509 CURVE",
"-200 434 LINE",
"-119 434 OFFCURVE",
"-65 480 OFFCURVE",
"-65 553 CURVE SMOOTH",
"-65 651 OFFCURVE",
"-143 685 OFFCURVE",
"-200 685 CURVE SMOOTH"
);
},
{
closed = 1;
nodes = (
"34 -76 LINE",
"70 -61 OFFCURVE",
"104 -36 OFFCURVE",
"104 6 CURVE SMOOTH",
"104 45 OFFCURVE",
"66 71 OFFCURVE",
"30 85 CURVE",
"22 73 LINE",
"49 61 OFFCURVE",
"70 35 OFFCURVE",
"70 7 CURVE SMOOTH",
"70 -26 OFFCURVE",
"43 -54 OFFCURVE",
"20 -64 CURVE"
);
},
{
closed = 1;
nodes = (
"115 -106 OFFCURVE",
"56 -69 OFFCURVE",
"20 -64 CURVE",
"18 -75 LINE",
"54 -91 OFFCURVE",
"92 -121 OFFCURVE",
"92 -173 CURVE",
"92 -221 OFFCURVE",
"50 -269 OFFCURVE",
"-18 -269 CURVE SMOOTH",
"-78 -269 OFFCURVE",
"-127 -229 OFFCURVE",
"-127 -175 CURVE SMOOTH",
"-127 -115 OFFCURVE",
"-91 -91 OFFCURVE",
"-65 -91 CURVE SMOOTH",
"-46 -91 OFFCURVE",
"-31 -105 OFFCURVE",
"-31 -124 CURVE SMOOTH",
"-31 -144 OFFCURVE",
"-42 -160 OFFCURVE",
"-61 -160 CURVE SMOOTH",
"-79 -160 OFFCURVE",
"-92 -145 OFFCURVE",
"-92 -123 CURVE SMOOTH",
"-92 -108 OFFCURVE",
"-86 -89 OFFCURVE",
"-72 -76 CURVE",
"-95 -77 LINE",
"-105 -93 OFFCURVE",
"-108 -108 OFFCURVE",
"-108 -134 CURVE SMOOTH",
"-108 -162 OFFCURVE",
"-88 -188 OFFCURVE",
"-61 -188 CURVE SMOOTH",
"-29 -188 OFFCURVE",
"-16 -161 OFFCURVE",
"-16 -127 CURVE SMOOTH",
"-16 -78 OFFCURVE",
"-44 -62 OFFCURVE",
"-70 -62 CURVE SMOOTH",
"-103 -62 OFFCURVE",
"-147 -95 OFFCURVE",
"-147 -175 CURVE SMOOTH",
"-147 -259 OFFCURVE",
"-83 -308 OFFCURVE",
"-21 -308 CURVE SMOOTH",
"65 -308 OFFCURVE",
"115 -245 OFFCURVE",
"115 -177 CURVE"
);
}
);
width = 101;
}
);
unicode = 0CC8;
},
{
color = 3;
glyphname = knmO;
lastChange = "2015-12-04 15:21:34 +0000";
layers = (
{
layerId = "034236B8-3FA8-43DA-9EDA-EFF269A687EC";
leftMetricsKey = "=knUUmatra";
name = Regular;
paths = (
{
closed = 1;
nodes = (
"623 140 OFFCURVE",
"573 71 OFFCURVE",
"481 71 CURVE SMOOTH",
"410 71 OFFCURVE",
"368 112 OFFCURVE",
"368 169 CURVE",
"368 211 OFFCURVE",
"377 237 OFFCURVE",
"389 237 CURVE SMOOTH",
"394 237 OFFCURVE",
"395 232 OFFCURVE",
"395 227 CURVE SMOOTH",
"395 191 OFFCURVE",
"417 165 OFFCURVE",
"450 165 CURVE SMOOTH",
"485 165 OFFCURVE",
"510 194 OFFCURVE",
"510 230 CURVE SMOOTH",
"510 262 OFFCURVE",
"485 299 OFFCURVE",
"432 299 CURVE SMOOTH",
"353 299 OFFCURVE",
"316 233 OFFCURVE",
"316 155 CURVE",
"316 56 OFFCURVE",
"379 -14 OFFCURVE",
"465 -14 CURVE SMOOTH",
"576 -14 OFFCURVE",
"662 82 OFFCURVE",
"662 238 CURVE",
"662 424 OFFCURVE",
"524 519 OFFCURVE",
"407 519 CURVE",
"314 519 OFFCURVE",
"193 456 OFFCURVE",
"193 273 CURVE",
"193 177 OFFCURVE",
"177 71 OFFCURVE",
"84 71 CURVE",
"3 71 OFFCURVE",
"-47 145 OFFCURVE",
"-76 222 CURVE",
"-98 182 LINE",
"-89 84 OFFCURVE",
"-2 -14 OFFCURVE",
"87 -14 CURVE",
"210 -14 OFFCURVE",
"240 103 OFFCURVE",
"240 274 CURVE",
"240 416 OFFCURVE",
"329 437 OFFCURVE",
"407 437 CURVE SMOOTH",
"501 437 OFFCURVE",
"623 357 OFFCURVE",
"623 235 CURVE"
);
},
{
closed = 1;
nodes = (
"-200 434 LINE",
"-119 434 OFFCURVE",
"-65 480 OFFCURVE",
"-65 553 CURVE SMOOTH",
"-65 651 OFFCURVE",
"-143 685 OFFCURVE",
"-200 685 CURVE SMOOTH",
"-255 685 OFFCURVE",
"-283 657 OFFCURVE",
"-283 625 CURVE SMOOTH",
"-283 592 OFFCURVE",
"-260 571 OFFCURVE",
"-226 571 CURVE SMOOTH",
"-192 571 OFFCURVE",
"-171 597 OFFCURVE",
"-171 633 CURVE SMOOTH",
"-171 639 OFFCURVE",
"-169 643 OFFCURVE",
"-165 643 CURVE SMOOTH",
"-152 643 OFFCURVE",
"-108 629 OFFCURVE",
"-108 577 CURVE",
"-108 530 OFFCURVE",
"-148 509 OFFCURVE",
"-199 509 CURVE"
);
}
);
width = 732;
},
{
associatedMasterId = "034236B8-3FA8-43DA-9EDA-EFF269A687EC";
layerId = "CD0E6DFA-EC3B-4ACF-B72C-A107C9C8004F";
name = "Regular Nov 20 15, 18:29";
paths = (
{
closed = 1;
nodes = (
"-45 591 OFFCURVE",
"-77 655 OFFCURVE",
"-146 655 CURVE SMOOTH",
"-192 655 OFFCURVE",
"-214 623 OFFCURVE",
"-214 595 CURVE SMOOTH",
"-214 564 OFFCURVE",
"-192 539 OFFCURVE",
"-162 539 CURVE SMOOTH",
"-133 539 OFFCURVE",
"-114 561 OFFCURVE",
"-114 593 CURVE SMOOTH",
"-114 600 OFFCURVE",
"-113 601 OFFCURVE",
"-109 601 CURVE SMOOTH",
"-98 601 OFFCURVE",
"-79 583 OFFCURVE",
"-79 543 CURVE",
"-79 482 OFFCURVE",
"-139 450 OFFCURVE",
"-283 450 CURVE",
"-283 378 LINE",
"-122 378 OFFCURVE",
"-45 421 OFFCURVE",
"-45 533 CURVE"
);
},
{
closed = 1;
nodes = (
"182 -14 OFFCURVE",
"204 88 OFFCURVE",
"204 254 CURVE",
"204 360 OFFCURVE",
"291 378 OFFCURVE",
"339 378 CURVE SMOOTH",
"411 378 OFFCURVE",
"494 313 OFFCURVE",
"494 207 CURVE SMOOTH",
"494 107 OFFCURVE",
"443 42 OFFCURVE",
"381 42 CURVE SMOOTH",
"344 42 OFFCURVE",
"314 67 OFFCURVE",
"314 99 CURVE",
"314 113 OFFCURVE",
"320 133 OFFCURVE",
"331 133 CURVE SMOOTH",
"333 133 OFFCURVE",
"334 132 OFFCURVE",
"334 127 CURVE SMOOTH",
"334 101 OFFCURVE",
"349 83 OFFCURVE",
"373 83 CURVE SMOOTH",
"397 83 OFFCURVE",
"415 103 OFFCURVE",
"415 128 CURVE SMOOTH",
"415 151 OFFCURVE",
"394 177 OFFCURVE",
"356 177 CURVE SMOOTH",
"304 177 OFFCURVE",
"278 131 OFFCURVE",
"278 84 CURVE",
"278 30 OFFCURVE",
"322 -14 OFFCURVE",
"375 -14 CURVE SMOOTH",
"461 -14 OFFCURVE",
"530 65 OFFCURVE",
"530 217 CURVE SMOOTH",
"530 379 OFFCURVE",
"431 450 OFFCURVE",
"329 450 CURVE",
"248 450 OFFCURVE",
"163 395 OFFCURVE",
"163 253 CURVE",
"163 152 OFFCURVE",
"149 79 OFFCURVE",
"77 79 CURVE",
"18 79 OFFCURVE",
"-42 124 OFFCURVE",
"-59 163 CURVE",
"-80 102 LINE",
"-52 52 OFFCURVE",
"23 -14 OFFCURVE",
"87 -14 CURVE"
);
}
);
width = 574;
}
);
leftMetricsKey = "=uuMatra-kannada";
unicode = 0CCA;
},
{
color = 3;
glyphname = knmOO;
lastChange = "2015-12-04 15:37:14 +0000";
layers = (
{
background = {
paths = (
{
closed = 1;
nodes = (
"623 140 OFFCURVE",
"573 71 OFFCURVE",
"481 71 CURVE SMOOTH",
"410 71 OFFCURVE",
"368 112 OFFCURVE",
"368 169 CURVE",
"368 211 OFFCURVE",
"377 237 OFFCURVE",
"389 237 CURVE SMOOTH",
"394 237 OFFCURVE",
"395 232 OFFCURVE",
"395 227 CURVE SMOOTH",
"395 191 OFFCURVE",
"417 165 OFFCURVE",
"450 165 CURVE SMOOTH",
"485 165 OFFCURVE",
"510 194 OFFCURVE",
"510 230 CURVE SMOOTH",
"510 262 OFFCURVE",
"485 299 OFFCURVE",
"432 299 CURVE SMOOTH",
"353 299 OFFCURVE",
"316 233 OFFCURVE",
"316 155 CURVE",
"316 56 OFFCURVE",
"379 -14 OFFCURVE",
"465 -14 CURVE SMOOTH",
"576 -14 OFFCURVE",
"662 82 OFFCURVE",
"662 238 CURVE",
"662 424 OFFCURVE",
"524 519 OFFCURVE",
"407 519 CURVE",
"314 519 OFFCURVE",
"193 456 OFFCURVE",
"193 273 CURVE",
"193 177 OFFCURVE",
"177 71 OFFCURVE",
"84 71 CURVE",
"3 71 OFFCURVE",
"-47 145 OFFCURVE",
"-76 222 CURVE",
"-98 182 LINE",
"-89 84 OFFCURVE",
"-2 -14 OFFCURVE",
"87 -14 CURVE",
"210 -14 OFFCURVE",
"240 103 OFFCURVE",
"240 274 CURVE",
"240 416 OFFCURVE",
"329 437 OFFCURVE",
"407 437 CURVE SMOOTH",
"501 437 OFFCURVE",
"623 357 OFFCURVE",
"623 235 CURVE"
);
},
{
closed = 1;
nodes = (
"-200 434 LINE",
"-119 434 OFFCURVE",
"-65 480 OFFCURVE",
"-65 553 CURVE SMOOTH",
"-65 651 OFFCURVE",
"-143 685 OFFCURVE",
"-200 685 CURVE SMOOTH",
"-255 685 OFFCURVE",
"-283 657 OFFCURVE",
"-283 625 CURVE SMOOTH",
"-283 592 OFFCURVE",
"-260 571 OFFCURVE",
"-226 571 CURVE SMOOTH",
"-192 571 OFFCURVE",
"-171 597 OFFCURVE",
"-171 633 CURVE SMOOTH",
"-171 639 OFFCURVE",
"-169 643 OFFCURVE",
"-165 643 CURVE SMOOTH",
"-152 643 OFFCURVE",
"-108 629 OFFCURVE",
"-108 577 CURVE",
"-108 530 OFFCURVE",
"-148 509 OFFCURVE",
"-199 509 CURVE"
);
}
);
};
layerId = "034236B8-3FA8-43DA-9EDA-EFF269A687EC";
leftMetricsKey = "=knUUmatra";
rightMetricsKey = "=knmEE";
name = Regular;
paths = (
{
closed = 1;
nodes = (
"-200 434 LINE",
"-119 434 OFFCURVE",
"-65 480 OFFCURVE",
"-65 553 CURVE SMOOTH",
"-65 651 OFFCURVE",
"-143 685 OFFCURVE",
"-200 685 CURVE SMOOTH",
"-255 685 OFFCURVE",
"-283 657 OFFCURVE",
"-283 625 CURVE SMOOTH",
"-283 592 OFFCURVE",
"-260 571 OFFCURVE",
"-226 571 CURVE SMOOTH",
"-192 571 OFFCURVE",
"-171 597 OFFCURVE",
"-171 633 CURVE SMOOTH",
"-171 639 OFFCURVE",
"-169 643 OFFCURVE",
"-165 643 CURVE SMOOTH",
"-152 643 OFFCURVE",
"-108 629 OFFCURVE",
"-108 577 CURVE",
"-108 530 OFFCURVE",
"-148 509 OFFCURVE",
"-199 509 CURVE"
);
},
{
closed = 1;
nodes = (
"853 392 OFFCURVE",
"843 361 OFFCURVE",
"843 325 CURVE SMOOTH",
"843 267 OFFCURVE",
"870 229 OFFCURVE",
"918 229 CURVE SMOOTH",
"955 229 OFFCURVE",
"1012 269 OFFCURVE",
"1012 345 CURVE SMOOTH",
"1012 421 OFFCURVE",
"975 476 OFFCURVE",
"910 476 CURVE SMOOTH",
"820 476 OFFCURVE",
"769 363 OFFCURVE",
"769 248 CURVE SMOOTH",
"769 151 OFFCURVE",
"807 59 OFFCURVE",
"876 -15 CURVE",
"929 -15 LINE",
"928 14 LINE",
"849 91 OFFCURVE",
"805 170 OFFCURVE",
"805 240 CURVE",
"805 346 OFFCURVE",
"847 408 OFFCURVE",
"917 408 CURVE SMOOTH",
"955 408 OFFCURVE",
"984 386 OFFCURVE",
"984 347 CURVE SMOOTH",
"984 317 OFFCURVE",
"959 287 OFFCURVE",
"920 287 CURVE SMOOTH",
"885 287 OFFCURVE",
"867 314 OFFCURVE",
"867 347 CURVE SMOOTH",
"867 381 OFFCURVE",
"880 408 OFFCURVE",
"907 438 CURVE",
"863 420 LINE"
);
},
{
closed = 1;
nodes = (
"624 140 OFFCURVE",
"574 71 OFFCURVE",
"482 71 CURVE SMOOTH",
"411 71 OFFCURVE",
"369 112 OFFCURVE",
"369 169 CURVE",
"369 211 OFFCURVE",
"378 237 OFFCURVE",
"390 237 CURVE SMOOTH",
"395 237 OFFCURVE",
"396 232 OFFCURVE",
"396 227 CURVE SMOOTH",
"396 191 OFFCURVE",
"418 165 OFFCURVE",
"451 165 CURVE SMOOTH",
"486 165 OFFCURVE",
"511 194 OFFCURVE",
"511 230 CURVE SMOOTH",
"511 262 OFFCURVE",
"486 299 OFFCURVE",
"433 299 CURVE SMOOTH",
"354 299 OFFCURVE",
"317 233 OFFCURVE",
"317 155 CURVE",
"317 56 OFFCURVE",
"380 -14 OFFCURVE",
"466 -14 CURVE SMOOTH",
"577 -14 OFFCURVE",
"663 82 OFFCURVE",
"663 238 CURVE",
"663 424 OFFCURVE",
"525 519 OFFCURVE",
"408 519 CURVE",
"315 519 OFFCURVE",
"194 456 OFFCURVE",
"194 273 CURVE",
"194 177 OFFCURVE",
"178 71 OFFCURVE",
"85 71 CURVE",
"4 71 OFFCURVE",
"-46 145 OFFCURVE",
"-75 222 CURVE",
"-97 182 LINE",
"-88 84 OFFCURVE",
"-1 -14 OFFCURVE",
"88 -14 CURVE",
"211 -14 OFFCURVE",
"241 103 OFFCURVE",
"241 274 CURVE",
"241 416 OFFCURVE",
"330 437 OFFCURVE",
"408 437 CURVE SMOOTH",
"502 437 OFFCURVE",
"624 357 OFFCURVE",
"624 235 CURVE"
);
}
);
width = 1062;
},
{
associatedMasterId = "034236B8-3FA8-43DA-9EDA-EFF269A687EC";
layerId = "D117E8D1-7E84-4CE2-983C-EDDF3C1B6C05";
name = "Regular Nov 20 15, 18:29";
paths = (
{
closed = 1;
nodes = (
"105 591 OFFCURVE",
"73 655 OFFCURVE",
"4 655 CURVE SMOOTH",
"-42 655 OFFCURVE",
"-64 623 OFFCURVE",
"-64 595 CURVE SMOOTH",
"-64 564 OFFCURVE",
"-42 539 OFFCURVE",
"-12 539 CURVE SMOOTH",
"17 539 OFFCURVE",
"36 561 OFFCURVE",
"36 593 CURVE SMOOTH",
"36 600 OFFCURVE",
"37 601 OFFCURVE",
"41 601 CURVE SMOOTH",
"52 601 OFFCURVE",
"71 583 OFFCURVE",
"71 543 CURVE",
"71 482 OFFCURVE",
"11 450 OFFCURVE",
"-133 450 CURVE",
"-133 378 LINE",
"28 378 OFFCURVE",
"105 421 OFFCURVE",
"105 533 CURVE"
);
},
{
closed = 1;
nodes = (
"182 -14 OFFCURVE",
"204 88 OFFCURVE",
"204 254 CURVE",
"204 360 OFFCURVE",
"291 378 OFFCURVE",
"339 378 CURVE SMOOTH",
"411 378 OFFCURVE",
"494 313 OFFCURVE",
"494 207 CURVE SMOOTH",
"494 107 OFFCURVE",
"443 42 OFFCURVE",
"381 42 CURVE SMOOTH",
"344 42 OFFCURVE",
"314 67 OFFCURVE",
"314 99 CURVE",
"314 113 OFFCURVE",
"320 133 OFFCURVE",
"331 133 CURVE SMOOTH",
"333 133 OFFCURVE",
"334 132 OFFCURVE",
"334 127 CURVE SMOOTH",
"334 101 OFFCURVE",
"349 83 OFFCURVE",
"373 83 CURVE SMOOTH",
"397 83 OFFCURVE",
"415 103 OFFCURVE",
"415 128 CURVE SMOOTH",
"415 151 OFFCURVE",
"394 177 OFFCURVE",
"356 177 CURVE SMOOTH",
"304 177 OFFCURVE",
"278 131 OFFCURVE",
"278 84 CURVE",
"278 30 OFFCURVE",
"322 -14 OFFCURVE",
"375 -14 CURVE SMOOTH",
"461 -14 OFFCURVE",
"530 65 OFFCURVE",
"530 217 CURVE SMOOTH",
"530 379 OFFCURVE",
"431 450 OFFCURVE",
"329 450 CURVE",
"248 450 OFFCURVE",
"163 395 OFFCURVE",
"163 253 CURVE",
"163 152 OFFCURVE",
"149 79 OFFCURVE",
"77 79 CURVE",
"18 79 OFFCURVE",
"-42 124 OFFCURVE",
"-59 163 CURVE",
"-80 102 LINE",
"-52 52 OFFCURVE",
"23 -14 OFFCURVE",
"87 -14 CURVE"
);
},
{
closed = 1;
nodes = (
"680 341 OFFCURVE",
"666 314 OFFCURVE",
"666 283 CURVE SMOOTH",
"666 232 OFFCURVE",
"690 199 OFFCURVE",
"732 199 CURVE SMOOTH",
"764 199 OFFCURVE",
"813 234 OFFCURVE",
"813 300 CURVE SMOOTH",
"813 366 OFFCURVE",
"781 414 OFFCURVE",
"725 414 CURVE SMOOTH",
"646 414 OFFCURVE",
"602 316 OFFCURVE",
"602 216 CURVE SMOOTH",
"602 131 OFFCURVE",
"635 52 OFFCURVE",
"695 -12 CURVE",
"767 -12 LINE",
"682 62 OFFCURVE",
"633 140 OFFCURVE",
"633 209 CURVE",
"633 301 OFFCURVE",
"670 355 OFFCURVE",
"731 355 CURVE SMOOTH",
"764 355 OFFCURVE",
"789 336 OFFCURVE",
"789 302 CURVE SMOOTH",
"789 276 OFFCURVE",
"767 250 OFFCURVE",
"733 250 CURVE SMOOTH",
"703 250 OFFCURVE",
"687 273 OFFCURVE",
"687 302 CURVE SMOOTH",
"687 331 OFFCURVE",
"699 355 OFFCURVE",
"722 381 CURVE",
"689 365 LINE"
);
}
);
width = 857;
}
);
leftMetricsKey = "=uuMatra-kannada";
rightMetricsKey = "=eeMatra-kannada";
unicode = 0CCB;
},
{
color = 3;
glyphname = knmAU;
lastChange = "2015-12-04 16:49:05 +0000";
layers = (
{
layerId = "034236B8-3FA8-43DA-9EDA-EFF269A687EC";
name = Regular;
paths = (
{
closed = 1;
nodes = (
"219 634 OFFCURVE",
"314 556 OFFCURVE",
"314 436 CURVE SMOOTH",
"314 332 OFFCURVE",
"265 269 OFFCURVE",
"166 269 CURVE SMOOTH",
"92 269 OFFCURVE",
"49 313 OFFCURVE",
"49 370 CURVE",
"49 412 OFFCURVE",
"68 438 OFFCURVE",
"81 438 CURVE SMOOTH",
"85 438 OFFCURVE",
"87 434 OFFCURVE",
"87 428 CURVE SMOOTH",
"87 392 OFFCURVE",
"108 366 OFFCURVE",
"142 366 CURVE SMOOTH",
"176 366 OFFCURVE",
"202 395 OFFCURVE",
"202 431 CURVE SMOOTH",
"202 463 OFFCURVE",
"176 500 OFFCURVE",
"123 500 CURVE SMOOTH",
"44 500 OFFCURVE",
"7 434 OFFCURVE",
"7 356 CURVE",
"7 257 OFFCURVE",
"70 187 OFFCURVE",
"167 187 CURVE SMOOTH",
"277 187 OFFCURVE",
"353 283 OFFCURVE",
"353 439 CURVE SMOOTH",
"353 602 OFFCURVE",
"238 709 OFFCURVE",
"13 709 CURVE",
"-302 709 LINE",
"-302 634 LINE",
"64 634 LINE"
);
},
{
closed = 1;
nodes = (
"-155 644 LINE",
"-131 635 OFFCURVE",
"-109 610 OFFCURVE",
"-109 576 CURVE SMOOTH",
"-109 536 OFFCURVE",
"-140 509 OFFCURVE",
"-201 509 CURVE SMOOTH",
"-222 509 LINE",
"-222 434 LINE",
"-201 434 LINE SMOOTH",
"-120 434 OFFCURVE",
"-66 480 OFFCURVE",
"-66 552 CURVE SMOOTH",
"-66 607 OFFCURVE",
"-97 648 OFFCURVE",
"-140 664 CURVE"
);
}
);
width = 383;
}
);
unicode = 0CCC;
},
{
color = 3;
glyphname = knLengthmark;
lastChange = "2015-12-04 14:39:57 +0000";
layers = (
{
layerId = "034236B8-3FA8-43DA-9EDA-EFF269A687EC";
rightMetricsKey = "=knmEE";
name = Regular;
paths = (
{
closed = 1;
nodes = (
"140 391 OFFCURVE",
"124 360 OFFCURVE",
"124 324 CURVE SMOOTH",
"124 266 OFFCURVE",
"152 228 OFFCURVE",
"200 228 CURVE SMOOTH",
"237 228 OFFCURVE",
"293 268 OFFCURVE",
"293 344 CURVE SMOOTH",
"293 420 OFFCURVE",
"256 475 OFFCURVE",
"192 475 CURVE SMOOTH",
"101 475 OFFCURVE",
"50 362 OFFCURVE",
"50 247 CURVE SMOOTH",
"50 150 OFFCURVE",
"88 59 OFFCURVE",
"157 -15 CURVE",
"240 -15 LINE",
"142 70 OFFCURVE",
"86 160 OFFCURVE",
"86 239 CURVE",
"86 345 OFFCURVE",
"129 407 OFFCURVE",
"199 407 CURVE SMOOTH",
"237 407 OFFCURVE",
"265 385 OFFCURVE",
"265 346 CURVE SMOOTH",
"265 316 OFFCURVE",
"240 286 OFFCURVE",
"201 286 CURVE SMOOTH",
"167 286 OFFCURVE",
"148 313 OFFCURVE",
"148 346 CURVE SMOOTH",
"148 380 OFFCURVE",
"162 407 OFFCURVE",
"188 437 CURVE",
"150 419 LINE"
);
}
);
width = 343;
}
);
rightMetricsKey = "=eeMatra-kannada";
unicode = 0CD5;
},
{
color = 0;
glyphname = knAIlengthmark;
lastChange = "2015-12-04 16:21:08 +0000";
layers = (
{
layerId = "034236B8-3FA8-43DA-9EDA-EFF269A687EC";
name = Regular;
paths = (
{
closed = 1;
nodes = (
"34 -76 LINE",
"70 -61 OFFCURVE",
"104 -36 OFFCURVE",
"104 6 CURVE SMOOTH",
"104 45 OFFCURVE",
"66 71 OFFCURVE",
"30 85 CURVE",
"22 73 LINE",
"49 61 OFFCURVE",
"70 35 OFFCURVE",
"70 7 CURVE SMOOTH",
"70 -26 OFFCURVE",
"43 -54 OFFCURVE",
"20 -64 CURVE"
);
},
{
closed = 1;
nodes = (
"115 -106 OFFCURVE",
"56 -69 OFFCURVE",
"20 -64 CURVE",
"18 -75 LINE",
"54 -91 OFFCURVE",
"92 -121 OFFCURVE",
"92 -173 CURVE",
"92 -221 OFFCURVE",
"50 -269 OFFCURVE",
"-18 -269 CURVE SMOOTH",
"-78 -269 OFFCURVE",
"-127 -229 OFFCURVE",
"-127 -175 CURVE SMOOTH",
"-127 -115 OFFCURVE",
"-91 -91 OFFCURVE",
"-65 -91 CURVE SMOOTH",
"-46 -91 OFFCURVE",
"-31 -105 OFFCURVE",
"-31 -124 CURVE SMOOTH",
"-31 -144 OFFCURVE",
"-42 -160 OFFCURVE",
"-61 -160 CURVE SMOOTH",
"-79 -160 OFFCURVE",
"-92 -145 OFFCURVE",
"-92 -123 CURVE SMOOTH",
"-92 -108 OFFCURVE",
"-86 -89 OFFCURVE",
"-72 -76 CURVE",
"-95 -77 LINE",
"-105 -93 OFFCURVE",
"-108 -108 OFFCURVE",
"-108 -134 CURVE SMOOTH",
"-108 -162 OFFCURVE",
"-88 -188 OFFCURVE",
"-61 -188 CURVE SMOOTH",
"-29 -188 OFFCURVE",
"-16 -161 OFFCURVE",
"-16 -127 CURVE SMOOTH",
"-16 -78 OFFCURVE",
"-44 -62 OFFCURVE",
"-70 -62 CURVE SMOOTH",
"-103 -62 OFFCURVE",
"-147 -95 OFFCURVE",
"-147 -175 CURVE SMOOTH",
"-147 -259 OFFCURVE",
"-83 -308 OFFCURVE",
"-21 -308 CURVE SMOOTH",
"65 -308 OFFCURVE",
"115 -245 OFFCURVE",
"115 -177 CURVE"
);
}
);
width = 105;
}
);
unicode = 0CD6;
},
{
color = 3;
glyphname = knKA;
lastChange = "2015-12-01 16:46:08 +0000";
layers = (
{
background = {
paths = (
{
closed = 1;
nodes = (
"303 72 OFFCURVE",
"355 124 OFFCURVE",
"355 187 CURVE SMOOTH",
"355 251 OFFCURVE",
"303 303 OFFCURVE",
"238 303 CURVE SMOOTH",
"174 303 OFFCURVE",
"122 251 OFFCURVE",
"122 187 CURVE SMOOTH",
"122 124 OFFCURVE",
"174 72 OFFCURVE",
"238 72 CURVE SMOOTH"
);
},
{
closed = 1;
nodes = (
"142 -14 OFFCURVE",
"65 64 OFFCURVE",
"65 158 CURVE SMOOTH",
"65 253 OFFCURVE",
"142 330 OFFCURVE",
"238 330 CURVE SMOOTH",
"334 330 OFFCURVE",
"411 253 OFFCURVE",
"411 158 CURVE SMOOTH",
"411 64 OFFCURVE",
"334 -14 OFFCURVE",
"238 -14 CURVE SMOOTH"
);
}
);
};
guideLines = (
{
angle = 90;
position = "{286, 488}";
},
{
angle = 270;
position = "{31, -78}";
}
);
layerId = "034236B8-3FA8-43DA-9EDA-EFF269A687EC";
name = Regular;
paths = (
{
closed = 1;
nodes = (
"142 327 OFFCURVE",
"65 248 OFFCURVE",
"65 158 CURVE SMOOTH",
"65 64 OFFCURVE",
"142 -14 OFFCURVE",
"239 -14 CURVE SMOOTH",
"333 -14 OFFCURVE",
"410 64 OFFCURVE",
"410 158 CURVE SMOOTH",
"410 248 OFFCURVE",
"333 327 OFFCURVE",
"239 327 CURVE SMOOTH"
);
},
{
closed = 1;
nodes = (
"301 303 OFFCURVE",
"354 251 OFFCURVE",
"354 185 CURVE SMOOTH",
"354 117 OFFCURVE",
"303 71 OFFCURVE",
"239 71 CURVE SMOOTH",
"174 71 OFFCURVE",
"123 117 OFFCURVE",
"123 185 CURVE SMOOTH",
"123 251 OFFCURVE",
"176 303 OFFCURVE",
"239 303 CURVE"
);
},
{
closed = 1;
nodes = (
"25 360 LINE",
"25 294 LINE",
"183 294 LINE",
"239 306 LINE SMOOTH",
"298 294 LINE",
"450 294 LINE",
"450 360 LINE"
);
},
{
closed = 1;
nodes = (
"361 644 LINE",
"385 635 OFFCURVE",
"407 610 OFFCURVE",
"407 576 CURVE SMOOTH",
"407 536 OFFCURVE",
"376 509 OFFCURVE",
"315 509 CURVE SMOOTH",
"25 509 LINE",
"25 434 LINE",
"315 434 LINE SMOOTH",
"397 434 OFFCURVE",
"450 480 OFFCURVE",
"450 552 CURVE SMOOTH",
"450 607 OFFCURVE",
"419 648 OFFCURVE",
"376 664 CURVE"
);
},
{
closed = 1;
nodes = (
"266 438 OFFCURVE",
"249 471 OFFCURVE",
"209 488 CURVE",
"194 465 LINE",
"218 453 OFFCURVE",
"230 430 OFFCURVE",
"230 401 CURVE SMOOTH",
"230 372 OFFCURVE",
"218 349 OFFCURVE",
"194 337 CURVE",
"209 314 LINE",
"249 331 OFFCURVE",
"266 364 OFFCURVE",
"266 401 CURVE SMOOTH"
);
}
);
width = 480;
}
);
unicode = 0C95;
},
{
color = 3;
glyphname = knKHA;
lastChange = "2015-11-30 18:15:03 +0000";
layers = (
{
background = {
paths = (
{
closed = 0;
nodes = (
"526 -15 LINE SMOOTH",
"680 -15 OFFCURVE",
"768 169 OFFCURVE",
"768 279 CURVE",
"768 445 OFFCURVE",
"689 520 OFFCURVE",
"590 520 CURVE SMOOTH"
);
},
{
closed = 0;
nodes = (
"597 455 LINE SMOOTH",
"668 455 OFFCURVE",
"727 397 OFFCURVE",
"727 287 CURVE",
"727 159 OFFCURVE",
"658 71 OFFCURVE",
"531 71 CURVE SMOOTH"
);
}
);
};
layerId = "034236B8-3FA8-43DA-9EDA-EFF269A687EC";
name = Regular;
paths = (
{
closed = 1;
nodes = (
"382 71 OFFCURVE",
"335 229 OFFCURVE",
"180 229 CURVE SMOOTH",
"94 229 OFFCURVE",
"40 181 OFFCURVE",
"40 109 CURVE",
"40 39 OFFCURVE",
"109 -14 OFFCURVE",
"195 -14 CURVE SMOOTH",
"349 -14 OFFCURVE",
"437 169 OFFCURVE",
"437 279 CURVE",
"437 445 OFFCURVE",
"358 520 OFFCURVE",
"259 520 CURVE SMOOTH",
"198 520 OFFCURVE",
"147 469 OFFCURVE",
"147 407 CURVE",
"147 353 OFFCURVE",
"177 300 OFFCURVE",
"237 300 CURVE SMOOTH",
"281 300 OFFCURVE",
"305 330 OFFCURVE",
"305 356 CURVE SMOOTH",
"305 385 OFFCURVE",
"284 408 OFFCURVE",
"257 408 CURVE SMOOTH",
"229 408 OFFCURVE",
"212 387 OFFCURVE",
"212 357 CURVE SMOOTH",
"212 352 OFFCURVE",
"211 351 OFFCURVE",
"208 351 CURVE SMOOTH",
"196 351 OFFCURVE",
"189 374 OFFCURVE",
"189 390 CURVE",
"189 426 OFFCURVE",
"223 455 OFFCURVE",
"266 455 CURVE SMOOTH",
"337 455 OFFCURVE",
"396 397 OFFCURVE",
"396 287 CURVE",
"396 159 OFFCURVE",
"327 71 OFFCURVE",
"200 71 CURVE SMOOTH",
"137 71 OFFCURVE",
"112 98 OFFCURVE",
"112 127 CURVE",
"112 167 OFFCURVE",
"143 193 OFFCURVE",
"200 193 CURVE SMOOTH",
"346 193 OFFCURVE",
"373 -14 OFFCURVE",
"529 -14 CURVE SMOOTH",
"689 -14 OFFCURVE",
"768 115 OFFCURVE",
"768 282 CURVE",
"768 415 OFFCURVE",
"681 513 OFFCURVE",
"610 513 CURVE SMOOTH",
"579 513 OFFCURVE",
"562 493 OFFCURVE",
"562 470 CURVE SMOOTH",
"562 451 OFFCURVE",
"574 435 OFFCURVE",
"590 430 CURVE SMOOTH",
"613 423 OFFCURVE",
"634 428 OFFCURVE",
"658 420 CURVE SMOOTH",
"695 407 OFFCURVE",
"727 364 OFFCURVE",
"727 292 CURVE",
"727 159 OFFCURVE",
"658 71 OFFCURVE",
"531 71 CURVE SMOOTH"
);
}
);
width = 823;
},
{
associatedMasterId = "034236B8-3FA8-43DA-9EDA-EFF269A687EC";
layerId = "D6E0259D-88FF-445B-AE63-115C229FBC8F";
name = "Regular Nov 2 15, 17:16";
paths = (
{
closed = 1;
nodes = (
"698 92 OFFCURVE",
"626 -14 OFFCURVE",
"503 -14 CURVE SMOOTH",
"387 -14 OFFCURVE",
"326 167 OFFCURVE",
"209 167 CURVE SMOOTH",
"161 167 OFFCURVE",
"122 144 OFFCURVE",
"122 118 CURVE",
"122 93 OFFCURVE",
"154 79 OFFCURVE",
"194 79 CURVE SMOOTH",
"310 79 OFFCURVE",
"369 137 OFFCURVE",
"369 254 CURVE SMOOTH",
"369 344 OFFCURVE",
"318 409 OFFCURVE",
"256 409 CURVE SMOOTH",
"219 409 OFFCURVE",
"189 384 OFFCURVE",
"189 352 CURVE SMOOTH",
"189 323 OFFCURVE",
"203 301 OFFCURVE",
"220 301 CURVE",
"211 308 OFFCURVE",
"206 319 OFFCURVE",
"206 331 CURVE SMOOTH",
"206 351 OFFCURVE",
"224 367 OFFCURVE",
"245 367 CURVE SMOOTH",
"269 367 OFFCURVE",
"286 350 OFFCURVE",
"286 326 CURVE SMOOTH",
"286 301 OFFCURVE",
"262 280 OFFCURVE",
"230 280 CURVE SMOOTH",
"188 280 OFFCURVE",
"153 319 OFFCURVE",
"153 367 CURVE SMOOTH",
"153 421 OFFCURVE",
"197 465 OFFCURVE",
"250 465 CURVE SMOOTH",
"336 465 OFFCURVE",
"405 386 OFFCURVE",
"405 244 CURVE SMOOTH",
"405 146 OFFCURVE",
"328 -14 OFFCURVE",
"194 -14 CURVE SMOOTH",
"120 -14 OFFCURVE",
"60 33 OFFCURVE",
"60 89 CURVE",
"60 148 OFFCURVE",
"127 198 OFFCURVE",
"209 198 CURVE SMOOTH",
"316 198 OFFCURVE",
"383 79 OFFCURVE",
"503 79 CURVE SMOOTH",
"582 79 OFFCURVE",
"657 124 OFFCURVE",
"657 243 CURVE",
"657 383 OFFCURVE",
"576 512 OFFCURVE",
"474 512 CURVE SMOOTH",
"465 512 OFFCURVE",
"457 509 OFFCURVE",
"450 506 CURVE SMOOTH",
"444 504 OFFCURVE",
"438 501 OFFCURVE",
"431 501 CURVE SMOOTH",
"419 501 OFFCURVE",
"410 511 OFFCURVE",
"410 522 CURVE SMOOTH",
"410 546 OFFCURVE",
"438 563 OFFCURVE",
"472 563 CURVE SMOOTH",
"550 563 OFFCURVE",
"698 444 OFFCURVE",
"698 223 CURVE"
);
}
);
width = 698;
},
{
associatedMasterId = "034236B8-3FA8-43DA-9EDA-EFF269A687EC";
layerId = "16A2C33D-AFAE-47CB-AF6F-98191B6DF76D";
name = "Regular Nov 18 15, 11:36";
paths = (
{
closed = 1;
nodes = (
"385 146 OFFCURVE",
"308 -14 OFFCURVE",
"174 -14 CURVE SMOOTH",
"100 -14 OFFCURVE",
"40 33 OFFCURVE",
"40 94 CURVE",
"40 148 OFFCURVE",
"87 198 OFFCURVE",
"179 198 CURVE SMOOTH",
"296 198 OFFCURVE",
"363 79 OFFCURVE",
"483 79 CURVE SMOOTH",
"562 79 OFFCURVE",
"637 124 OFFCURVE",
"637 243 CURVE",
"637 383 OFFCURVE",
"556 512 OFFCURVE",
"454 512 CURVE SMOOTH",
"445 512 OFFCURVE",
"437 509 OFFCURVE",
"430 506 CURVE SMOOTH",
"424 504 OFFCURVE",
"418 501 OFFCURVE",
"411 501 CURVE SMOOTH",
"399 501 OFFCURVE",
"390 511 OFFCURVE",
"390 522 CURVE SMOOTH",
"390 546 OFFCURVE",
"418 563 OFFCURVE",
"452 563 CURVE SMOOTH",
"530 563 OFFCURVE",
"678 444 OFFCURVE",
"678 243 CURVE",
"678 92 OFFCURVE",
"606 -14 OFFCURVE",
"483 -14 CURVE SMOOTH",
"367 -14 OFFCURVE",
"306 167 OFFCURVE",
"179 167 CURVE SMOOTH",
"129 167 OFFCURVE",
"102 144 OFFCURVE",
"102 118 CURVE",
"102 93 OFFCURVE",
"124 79 OFFCURVE",
"179 79 CURVE SMOOTH",
"289 79 OFFCURVE",
"349 137 OFFCURVE",
"349 254 CURVE",
"349 344 OFFCURVE",
"298 409 OFFCURVE",
"236 409 CURVE SMOOTH",
"199 409 OFFCURVE",
"169 384 OFFCURVE",
"169 352 CURVE",
"169 338 OFFCURVE",
"175 318 OFFCURVE",
"186 318 CURVE SMOOTH",
"188 318 OFFCURVE",
"189 319 OFFCURVE",
"189 324 CURVE SMOOTH",
"189 350 OFFCURVE",
"204 368 OFFCURVE",
"228 368 CURVE SMOOTH",
"252 368 OFFCURVE",
"270 348 OFFCURVE",
"270 323 CURVE SMOOTH",
"270 300 OFFCURVE",
"249 274 OFFCURVE",
"211 274 CURVE SMOOTH",
"159 274 OFFCURVE",
"133 320 OFFCURVE",
"133 367 CURVE",
"133 421 OFFCURVE",
"177 465 OFFCURVE",
"230 465 CURVE SMOOTH",
"316 465 OFFCURVE",
"385 386 OFFCURVE",
"385 244 CURVE"
);
}
);
width = 728;
}
);
unicode = 0C96;
},
{
color = 3;
glyphname = knGA;
lastChange = "2015-12-01 16:54:29 +0000";
layers = (
{
background = {
paths = (
{
closed = 1;
nodes = (
"443 641 LINE",
"471 623 OFFCURVE",
"480 598 OFFCURVE",
"480 576 CURVE SMOOTH",
"480 535 OFFCURVE",
"449 506 OFFCURVE",
"397 506 CURVE SMOOTH",
"77 506 LINE",
"77 423 LINE",
"397 423 LINE",
"477 423 OFFCURVE",
"533 478 OFFCURVE",
"533 547 CURVE SMOOTH",
"533 592 OFFCURVE",
"510 634 OFFCURVE",
"458 661 CURVE"
);
}
);
};
guideLines = (
{
angle = 270;
position = "{40, -78}";
}
);
layerId = "034236B8-3FA8-43DA-9EDA-EFF269A687EC";
name = Regular;
paths = (
{
closed = 1;
nodes = (
"231 449 LINE",
"128 388 OFFCURVE",
"65 247 OFFCURVE",
"65 71 CURVE SMOOTH",
"65 0 LINE",
"143 0 LINE",
"143 118 LINE SMOOTH",
"143 317 OFFCURVE",
"217 438 OFFCURVE",
"302 438 CURVE SMOOTH",
"387 438 OFFCURVE",
"461 317 OFFCURVE",
"461 118 CURVE SMOOTH",
"461 0 LINE",
"539 0 LINE",
"539 71 LINE SMOOTH",
"539 247 OFFCURVE",
"476 388 OFFCURVE",
"373 449 CURVE",
"302 465 LINE"
);
},
{
closed = 1;
nodes = (
"444 644 LINE",
"468 635 OFFCURVE",
"490 610 OFFCURVE",
"490 576 CURVE SMOOTH",
"490 536 OFFCURVE",
"459 509 OFFCURVE",
"398 509 CURVE SMOOTH",
"77 509 LINE",
"77 434 LINE",
"237 434 LINE",
"302 444 LINE",
"368 434 LINE",
"398 434 LINE SMOOTH",
"479 434 OFFCURVE",
"533 480 OFFCURVE",
"533 552 CURVE SMOOTH",
"533 607 OFFCURVE",
"502 648 OFFCURVE",
"459 664 CURVE"
);
}
);
width = 604;
}
);
unicode = 0C97;
},
{
color = 3;
glyphname = knGHA;
lastChange = "2015-12-04 14:39:57 +0000";
layers = (
{
background = {
paths = (
{
closed = 1;
nodes = (
"598 -14 OFFCURVE",
"635 84 OFFCURVE",
"635 179 CURVE SMOOTH",
"635 271 OFFCURVE",
"613 392 OFFCURVE",
"561 392 CURVE SMOOTH",
"536 392 OFFCURVE",
"519 375 OFFCURVE",
"519 352 CURVE SMOOTH",
"519 304 OFFCURVE",
"597 339 OFFCURVE",
"597 202 CURVE SMOOTH",
"597 141 OFFCURVE",
"569 71 OFFCURVE",
"493 71 CURVE",
"428 71 OFFCURVE",
"363 145 OFFCURVE",
"349 221 CURVE",
"340 221 LINE",
"326 145 OFFCURVE",
"261 71 OFFCURVE",
"186 71 CURVE",
"135 71 OFFCURVE",
"103 114 OFFCURVE",
"103 156 CURVE SMOOTH",
"103 203 OFFCURVE",
"129 227 OFFCURVE",
"166 227 CURVE SMOOTH",
"196 227 OFFCURVE",
"221 217 OFFCURVE",
"232 193 CURVE",
"248 208 LINE",
"235 250 OFFCURVE",
"211 287 OFFCURVE",
"163 287 CURVE",
"103 287 OFFCURVE",
"60 232 OFFCURVE",
"60 143 CURVE SMOOTH",
"60 56 OFFCURVE",
"94 -14 OFFCURVE",
"183 -14 CURVE",
"251 -14 OFFCURVE",
"321 43 OFFCURVE",
"344 126 CURVE",
"346 126 LINE",
"369 43 OFFCURVE",
"438 -14 OFFCURVE",
"503 -14 CURVE"
);
}
);
};
guideLines = (
{
angle = 270;
position = "{60, -78}";
}
);
layerId = "034236B8-3FA8-43DA-9EDA-EFF269A687EC";
leftMetricsKey = "=knSSA";
name = Regular;
paths = (
{
closed = 1;
nodes = (
"309 390 OFFCURVE",
"284 363 OFFCURVE",
"284 331 CURVE SMOOTH",
"284 298 OFFCURVE",
"309 271 OFFCURVE",
"343 271 CURVE SMOOTH",
"376 271 OFFCURVE",
"403 298 OFFCURVE",
"403 331 CURVE SMOOTH",
"403 363 OFFCURVE",
"376 390 OFFCURVE",
"343 390 CURVE SMOOTH"
);
},
{
closed = 1;
nodes = (
"691 472 LINE",
"726 447 OFFCURVE",
"757 401 OFFCURVE",
"757 358 CURVE SMOOTH",
"757 321 OFFCURVE",
"738 294 OFFCURVE",
"704 294 CURVE SMOOTH",
"653 294 OFFCURVE",
"601 368 OFFCURVE",
"585 390 CURVE",
"562 372 LINE",
"599 288 OFFCURVE",
"667 211 OFFCURVE",
"723 211 CURVE SMOOTH",
"779 211 OFFCURVE",
"806 253 OFFCURVE",
"806 323 CURVE SMOOTH",
"806 401 OFFCURVE",
"761 457 OFFCURVE",
"706 490 CURVE"
);
},
{
closed = 1;
nodes = (
"326 145 OFFCURVE",
"261 71 OFFCURVE",
"186 71 CURVE",
"135 71 OFFCURVE",
"103 114 OFFCURVE",
"103 156 CURVE SMOOTH",
"103 203 OFFCURVE",
"129 227 OFFCURVE",
"166 227 CURVE SMOOTH",
"196 227 OFFCURVE",
"221 217 OFFCURVE",
"232 193 CURVE",
"248 208 LINE",
"235 250 OFFCURVE",
"211 287 OFFCURVE",
"163 287 CURVE",
"103 287 OFFCURVE",
"60 232 OFFCURVE",
"60 143 CURVE SMOOTH",
"60 56 OFFCURVE",
"94 -14 OFFCURVE",
"183 -14 CURVE",
"251 -14 OFFCURVE",
"321 43 OFFCURVE",
"344 126 CURVE",
"346 126 LINE",
"369 43 OFFCURVE",
"438 -14 OFFCURVE",
"506 -14 CURVE SMOOTH",
"598 -14 OFFCURVE",
"635 84 OFFCURVE",
"635 174 CURVE SMOOTH",
"635 252 OFFCURVE",
"618 355 OFFCURVE",
"585 390 CURVE",
"562 372 LINE",
"580 330 OFFCURVE",
"597 260 OFFCURVE",
"597 202 CURVE SMOOTH",
"597 141 OFFCURVE",
"569 71 OFFCURVE",
"493 71 CURVE SMOOTH",
"428 71 OFFCURVE",
"363 145 OFFCURVE",
"349 221 CURVE",
"340 221 LINE"
);
},
{
closed = 1;
nodes = (
"407 -90 OFFCURVE",
"365 -34 OFFCURVE",
"352 46 CURVE",
"334 46 LINE",
"322 -34 OFFCURVE",
"278 -90 OFFCURVE",
"278 -131 CURVE SMOOTH",
"278 -180 OFFCURVE",
"316 -200 OFFCURVE",
"343 -200 CURVE",
"367 -200 OFFCURVE",
"407 -184 OFFCURVE",
"407 -131 CURVE SMOOTH"
);
},
{
closed = 1;
nodes = (
"597 644 LINE",
"621 635 OFFCURVE",
"643 610 OFFCURVE",
"643 576 CURVE SMOOTH",
"643 536 OFFCURVE",
"612 509 OFFCURVE",
"551 509 CURVE SMOOTH",
"60 509 LINE",
"60 434 LINE",
"551 434 LINE SMOOTH",
"632 434 OFFCURVE",
"686 480 OFFCURVE",
"686 552 CURVE SMOOTH",
"686 607 OFFCURVE",
"655 648 OFFCURVE",
"612 664 CURVE"
);
}
);
width = 831;
}
);
leftMetricsKey = "=ssa-kannada";
unicode = 0C98;
},
{
color = 3;
glyphname = knNGA;
lastChange = "2015-12-04 14:39:57 +0000";
layers = (
{
background = {
paths = (
{
closed = 1;
nodes = (
"638 185 OFFCURVE",
"611 220 OFFCURVE",
"580 250 CURVE",
"554 233 LINE",
"576 209 OFFCURVE",
"588 184 OFFCURVE",
"588 154 CURVE",
"588 116 OFFCURVE",
"565 71 OFFCURVE",
"507 71 CURVE SMOOTH",
"434 71 OFFCURVE",
"368 146 OFFCURVE",
"355 221 CURVE",
"346 221 LINE",
"332 145 OFFCURVE",
"267 71 OFFCURVE",
"194 71 CURVE SMOOTH",
"141 71 OFFCURVE",
"114 114 OFFCURVE",
"114 156 CURVE",
"114 187 OFFCURVE",
"144 219 OFFCURVE",
"176 253 CURVE SMOOTH",
"216 294 OFFCURVE",
"261 340 OFFCURVE",
"261 399 CURVE SMOOTH",
"261 473 OFFCURVE",
"203 519 OFFCURVE",
"137 519 CURVE SMOOTH",
"79 519 OFFCURVE",
"20 485 OFFCURVE",
"20 416 CURVE SMOOTH",
"20 384 OFFCURVE",
"31 352 OFFCURVE",
"52 330 CURVE",
"83 350 LINE",
"75 365 OFFCURVE",
"73 377 OFFCURVE",
"73 388 CURVE SMOOTH",
"73 425 OFFCURVE",
"98 452 OFFCURVE",
"137 452 CURVE SMOOTH",
"174 452 OFFCURVE",
"208 427 OFFCURVE",
"208 385 CURVE SMOOTH",
"208 344 OFFCURVE",
"177 311 OFFCURVE",
"145 278 CURVE SMOOTH",
"106 238 OFFCURVE",
"63 193 OFFCURVE",
"63 125 CURVE",
"63 38 OFFCURVE",
"124 -14 OFFCURVE",
"191 -14 CURVE SMOOTH",
"259 -14 OFFCURVE",
"327 43 OFFCURVE",
"350 126 CURVE",
"352 126 LINE",
"375 43 OFFCURVE",
"443 -14 OFFCURVE",
"511 -14 CURVE SMOOTH",
"577 -14 OFFCURVE",
"638 38 OFFCURVE",
"638 125 CURVE"
);
}
);
};
layerId = "034236B8-3FA8-43DA-9EDA-EFF269A687EC";
leftMetricsKey = "=knBA";
rightMetricsKey = "=knDA";
name = Regular;
paths = (
{
closed = 1;
nodes = (
"329 371 OFFCURVE",
"352 395 OFFCURVE",
"382 395 CURVE SMOOTH",
"412 395 OFFCURVE",
"435 371 OFFCURVE",
"435 341 CURVE SMOOTH",
"435 312 OFFCURVE",
"412 288 OFFCURVE",
"382 288 CURVE SMOOTH",
"352 288 OFFCURVE",
"329 312 OFFCURVE",
"329 341 CURVE SMOOTH"
);
},
{
closed = 1;
nodes = (
"363 536 OFFCURVE",
"271 438 OFFCURVE",
"219 346 CURVE",
"224 307 LINE",
"290 393 OFFCURVE",
"368 467 OFFCURVE",
"465 467 CURVE SMOOTH",
"529 467 OFFCURVE",
"570 430 OFFCURVE",
"570 376 CURVE SMOOTH",
"570 355 OFFCURVE",
"564 337 OFFCURVE",
"550 324 CURVE",
"569 308 LINE",
"595 325 OFFCURVE",
"613 356 OFFCURVE",
"613 402 CURVE SMOOTH",
"613 472 OFFCURVE",
"564 536 OFFCURVE",
"480 536 CURVE SMOOTH"
);
},
{
closed = 1;
nodes = (
"638 185 OFFCURVE",
"611 220 OFFCURVE",
"580 250 CURVE",
"554 233 LINE",
"576 209 OFFCURVE",
"588 184 OFFCURVE",
"588 154 CURVE",
"588 116 OFFCURVE",
"565 71 OFFCURVE",
"507 71 CURVE SMOOTH",
"434 71 OFFCURVE",
"368 146 OFFCURVE",
"355 221 CURVE",
"346 221 LINE",
"332 145 OFFCURVE",
"267 71 OFFCURVE",
"194 71 CURVE SMOOTH",
"141 71 OFFCURVE",
"114 114 OFFCURVE",
"114 156 CURVE",
"114 187 OFFCURVE",
"144 219 OFFCURVE",
"176 253 CURVE SMOOTH",
"216 294 OFFCURVE",
"261 340 OFFCURVE",
"261 399 CURVE SMOOTH",
"261 473 OFFCURVE",
"203 519 OFFCURVE",
"137 519 CURVE SMOOTH",
"79 519 OFFCURVE",
"20 485 OFFCURVE",
"20 416 CURVE SMOOTH",
"20 384 OFFCURVE",
"31 352 OFFCURVE",
"52 330 CURVE",
"83 350 LINE",
"75 365 OFFCURVE",
"73 377 OFFCURVE",
"73 388 CURVE SMOOTH",
"73 425 OFFCURVE",
"98 452 OFFCURVE",
"137 452 CURVE SMOOTH",
"174 452 OFFCURVE",
"208 427 OFFCURVE",
"208 385 CURVE SMOOTH",
"208 344 OFFCURVE",
"177 311 OFFCURVE",
"145 278 CURVE SMOOTH",
"106 238 OFFCURVE",
"63 193 OFFCURVE",
"63 125 CURVE",
"63 38 OFFCURVE",
"124 -14 OFFCURVE",
"191 -14 CURVE SMOOTH",
"259 -14 OFFCURVE",
"327 43 OFFCURVE",
"350 126 CURVE",
"352 126 LINE",
"375 43 OFFCURVE",
"443 -14 OFFCURVE",
"511 -14 CURVE SMOOTH",
"577 -14 OFFCURVE",
"638 38 OFFCURVE",
"638 125 CURVE"
);
}
);
width = 703;
}
);
leftMetricsKey = "=ba-kannada";
rightMetricsKey = "=knDa";
unicode = 0C99;
},
{
color = 3;
glyphname = knCA;
lastChange = "2015-12-04 14:39:57 +0000";
layers = (
{
background = {
paths = (
{
closed = 1;
nodes = (
"616 -14 OFFCURVE",
"670 84 OFFCURVE",
"670 171 CURVE SMOOTH",
"670 360 OFFCURVE",
"527 474 OFFCURVE",
"391 474 CURVE",
"381 434 LINE",
"533 424 OFFCURVE",
"630 301 OFFCURVE",
"630 203 CURVE SMOOTH",
"630 121 OFFCURVE",
"583 71 OFFCURVE",
"507 71 CURVE",
"434 71 OFFCURVE",
"368 146 OFFCURVE",
"355 221 CURVE",
"346 221 LINE",
"332 145 OFFCURVE",
"267 71 OFFCURVE",
"194 71 CURVE SMOOTH",
"141 71 OFFCURVE",
"114 104 OFFCURVE",
"114 146 CURVE",
"114 187 OFFCURVE",
"144 217 OFFCURVE",
"176 251 CURVE SMOOTH",
"216 292 OFFCURVE",
"261 338 OFFCURVE",
"261 397 CURVE SMOOTH",
"261 471 OFFCURVE",
"202 519 OFFCURVE",
"137 519 CURVE SMOOTH",
"79 519 OFFCURVE",
"20 483 OFFCURVE",
"20 414 CURVE SMOOTH",
"20 382 OFFCURVE",
"31 350 OFFCURVE",
"52 328 CURVE",
"83 348 LINE",
"75 363 OFFCURVE",
"72 375 OFFCURVE",
"72 386 CURVE SMOOTH",
"72 423 OFFCURVE",
"98 450 OFFCURVE",
"137 450 CURVE SMOOTH",
"174 450 OFFCURVE",
"208 425 OFFCURVE",
"208 383 CURVE SMOOTH",
"208 342 OFFCURVE",
"177 309 OFFCURVE",
"145 276 CURVE SMOOTH",
"106 236 OFFCURVE",
"63 193 OFFCURVE",
"63 125 CURVE",
"63 38 OFFCURVE",
"124 -14 OFFCURVE",
"191 -14 CURVE SMOOTH",
"259 -14 OFFCURVE",
"327 43 OFFCURVE",
"350 126 CURVE",
"352 126 LINE",
"375 43 OFFCURVE",
"443 -14 OFFCURVE",
"514 -14 CURVE"
);
}
);
};
layerId = "034236B8-3FA8-43DA-9EDA-EFF269A687EC";
leftMetricsKey = "=knBA";
rightMetricsKey = "=knBA+5";
name = Regular;
paths = (
{
closed = 1;
nodes = (
"373 365 LINE",
"373 294 LINE",
"649 294 LINE",
"649 365 LINE"
);
},
{
closed = 1;
nodes = (
"493 448 LINE",
"546 425 OFFCURVE",
"546 365 OFFCURVE",
"493 342 CURVE",
"508 309 LINE",
"590 344 OFFCURVE",
"590 447 OFFCURVE",
"508 482 CURVE"
);
},
{
closed = 1;
nodes = (
"638 225 OFFCURVE",
"592 311 OFFCURVE",
"508 327 CURVE",
"489 310 LINE",
"549 287 OFFCURVE",
"588 244 OFFCURVE",
"588 167 CURVE SMOOTH",
"588 116 OFFCURVE",
"565 71 OFFCURVE",
"507 71 CURVE SMOOTH",
"434 71 OFFCURVE",
"368 146 OFFCURVE",
"355 221 CURVE",
"346 221 LINE",
"332 145 OFFCURVE",
"267 71 OFFCURVE",
"194 71 CURVE SMOOTH",
"141 71 OFFCURVE",
"114 104 OFFCURVE",
"114 146 CURVE",
"114 187 OFFCURVE",
"144 217 OFFCURVE",
"176 251 CURVE SMOOTH",
"216 292 OFFCURVE",
"261 338 OFFCURVE",
"261 399 CURVE SMOOTH",
"261 471 OFFCURVE",
"202 519 OFFCURVE",
"137 519 CURVE SMOOTH",
"79 519 OFFCURVE",
"20 483 OFFCURVE",
"20 416 CURVE SMOOTH",
"20 384 OFFCURVE",
"31 350 OFFCURVE",
"52 328 CURVE",
"83 348 LINE",
"75 363 OFFCURVE",
"72 376 OFFCURVE",
"72 387 CURVE SMOOTH",
"72 424 OFFCURVE",
"98 450 OFFCURVE",
"137 450 CURVE SMOOTH",
"174 450 OFFCURVE",
"208 427 OFFCURVE",
"208 385 CURVE SMOOTH",
"208 342 OFFCURVE",
"177 309 OFFCURVE",
"145 276 CURVE SMOOTH",
"106 236 OFFCURVE",
"63 194 OFFCURVE",
"63 125 CURVE",
"63 39 OFFCURVE",
"125 -14 OFFCURVE",
"191 -14 CURVE SMOOTH",
"260 -14 OFFCURVE",
"327 43 OFFCURVE",
"350 126 CURVE",
"352 126 LINE",
"375 43 OFFCURVE",
"444 -14 OFFCURVE",
"511 -14 CURVE SMOOTH",
"578 -14 OFFCURVE",
"638 38 OFFCURVE",
"638 145 CURVE SMOOTH"
);
},
{
closed = 1;
nodes = (
"571 644 LINE",
"595 635 OFFCURVE",
"617 610 OFFCURVE",
"617 576 CURVE SMOOTH",
"617 536 OFFCURVE",
"586 509 OFFCURVE",
"525 509 CURVE SMOOTH",
"373 509 LINE",
"373 434 LINE",
"525 434 LINE SMOOTH",
"606 434 OFFCURVE",
"660 480 OFFCURVE",
"660 552 CURVE SMOOTH",
"660 607 OFFCURVE",
"629 648 OFFCURVE",
"586 664 CURVE"
);
}
);
width = 725;
}
);
leftMetricsKey = "=knBA";
rightMetricsKey = "=knBA";
unicode = 0C9A;
},
{
color = 3;
glyphname = knCHA;
lastChange = "2015-12-04 14:39:57 +0000";
layers = (
{
background = {
paths = (
{
closed = 1;
nodes = (
"619 643 LINE",
"646 625 OFFCURVE",
"656 600 OFFCURVE",
"656 578 CURVE SMOOTH",
"656 537 OFFCURVE",
"625 508 OFFCURVE",
"573 508 CURVE SMOOTH",
"419 508 LINE",
"419 425 LINE",
"573 425 LINE",
"629 425 OFFCURVE",
"709 480 OFFCURVE",
"709 549 CURVE SMOOTH",
"709 594 OFFCURVE",
"686 636 OFFCURVE",
"634 663 CURVE"
);
},
{
closed = 1;
nodes = (
"115 372 OFFCURVE",
"158 459 OFFCURVE",
"235 459 CURVE SMOOTH",
"283 459 OFFCURVE",
"307 440 OFFCURVE",
"307 401 CURVE SMOOTH",
"307 375 OFFCURVE",
"289 354 OFFCURVE",
"252 354 CURVE SMOOTH",
"220 354 OFFCURVE",
"192 372 OFFCURVE",
"192 418 CURVE SMOOTH",
"192 441 OFFCURVE",
"197 465 OFFCURVE",
"207 477 CURVE",
"183 482 LINE",
"170 460 OFFCURVE",
"162 427 OFFCURVE",
"162 391 CURVE SMOOTH",
"162 318 OFFCURVE",
"204 283 OFFCURVE",
"252 283 CURVE SMOOTH",
"305 283 OFFCURVE",
"337 335 OFFCURVE",
"337 401 CURVE SMOOTH",
"337 467 OFFCURVE",
"311 519 OFFCURVE",
"240 519 CURVE SMOOTH",
"147 519 OFFCURVE",
"74 399 OFFCURVE",
"74 265 CURVE SMOOTH",
"74 77 OFFCURVE",
"134 -14 OFFCURVE",
"247 -14 CURVE SMOOTH",
"328 -14 OFFCURVE",
"384 45 OFFCURVE",
"407 128 CURVE",
"410 128 LINE",
"433 45 OFFCURVE",
"489 -14 OFFCURVE",
"569 -14 CURVE SMOOTH",
"679 -14 OFFCURVE",
"743 77 OFFCURVE",
"743 254 CURVE",
"743 391 OFFCURVE",
"671 508 OFFCURVE",
"569 508 CURVE SMOOTH",
"500 508 OFFCURVE",
"497 425 OFFCURVE",
"565 425 CURVE SMOOTH",
"644 425 OFFCURVE",
"702 370 OFFCURVE",
"702 254 CURVE",
"702 151 OFFCURVE",
"651 93 OFFCURVE",
"565 93 CURVE SMOOTH",
"491 93 OFFCURVE",
"426 148 OFFCURVE",
"413 223 CURVE",
"404 223 LINE",
"391 148 OFFCURVE",
"326 93 OFFCURVE",
"252 93 CURVE SMOOTH",
"161 93 OFFCURVE",
"115 151 OFFCURVE",
"115 265 CURVE SMOOTH"
);
}
);
};
layerId = "034236B8-3FA8-43DA-9EDA-EFF269A687EC";
leftMetricsKey = "=knDA";
name = Regular;
paths = (
{
closed = 1;
nodes = (
"127 519 OFFCURVE",
"55 374 OFFCURVE",
"55 253 CURVE",
"55 97 OFFCURVE",
"141 -14 OFFCURVE",
"247 -14 CURVE",
"317 -14 OFFCURVE",
"385 43 OFFCURVE",
"408 126 CURVE",
"410 126 LINE",
"433 43 OFFCURVE",
"501 -14 OFFCURVE",
"571 -14 CURVE",
"682 -14 OFFCURVE",
"744 78 OFFCURVE",
"744 224 CURVE SMOOTH",
"744 426 OFFCURVE",
"620 509 OFFCURVE",
"487 509 CURVE",
"527 434 LINE",
"656 434 OFFCURVE",
"703 362 OFFCURVE",
"703 237 CURVE SMOOTH",
"703 168 OFFCURVE",
"663 71 OFFCURVE",
"565 71 CURVE",
"492 71 OFFCURVE",
"426 146 OFFCURVE",
"413 221 CURVE",
"404 221 LINE",
"390 145 OFFCURVE",
"325 71 OFFCURVE",
"242 71 CURVE",
"146 71 OFFCURVE",
"103 178 OFFCURVE",
"103 264 CURVE",
"103 367 OFFCURVE",
"141 454 OFFCURVE",
"234 454 CURVE",
"272 454 OFFCURVE",
"306 440 OFFCURVE",
"306 401 CURVE SMOOTH",
"306 365 OFFCURVE",
"278 344 OFFCURVE",
"231 344 CURVE SMOOTH",
"189 344 OFFCURVE",
"161 362 OFFCURVE",
"161 408 CURVE SMOOTH",
"161 419 OFFCURVE",
"162 440 OFFCURVE",
"165 450 CURVE",
"176 475 OFFCURVE",
"171 481 OFFCURVE",
"156 477 CURVE",
"135 429 LINE",
"132 407 OFFCURVE",
"131 394 OFFCURVE",
"131 381 CURVE SMOOTH",
"131 308 OFFCURVE",
"173 273 OFFCURVE",
"231 273 CURVE SMOOTH",
"294 273 OFFCURVE",
"336 325 OFFCURVE",
"336 391 CURVE SMOOTH",
"336 457 OFFCURVE",
"300 519 OFFCURVE",
"229 519 CURVE SMOOTH"
);
},
{
closed = 1;
nodes = (
"399 46 LINE",
"388 -34 OFFCURVE",
"344 -90 OFFCURVE",
"344 -131 CURVE SMOOTH",
"344 -180 OFFCURVE",
"382 -200 OFFCURVE",
"408 -200 CURVE",
"433 -200 OFFCURVE",
"473 -184 OFFCURVE",
"473 -131 CURVE SMOOTH",
"473 -90 OFFCURVE",
"430 -34 OFFCURVE",
"418 46 CURVE"
);
},
{
closed = 1;
nodes = (
"656 644 LINE",
"680 635 OFFCURVE",
"702 610 OFFCURVE",
"702 576 CURVE SMOOTH",
"702 536 OFFCURVE",
"671 509 OFFCURVE",
"610 509 CURVE SMOOTH",
"449 509 LINE",
"449 434 LINE",
"610 434 LINE SMOOTH",
"691 434 OFFCURVE",
"745 480 OFFCURVE",
"745 552 CURVE SMOOTH",
"745 607 OFFCURVE",
"714 648 OFFCURVE",
"671 664 CURVE"
);
}
);
width = 810;
}
);
leftMetricsKey = "trq\U00C7\001";
unicode = 0C9B;
},
{
color = 3;
glyphname = knJA;
lastChange = "2015-12-04 14:39:57 +0000";
layers = (
{
background = {
paths = (
{
closed = 1;
nodes = (
"678 185 OFFCURVE",
"651 220 OFFCURVE",
"620 250 CURVE",
"594 233 LINE",
"616 209 OFFCURVE",
"628 184 OFFCURVE",
"628 154 CURVE",
"628 116 OFFCURVE",
"595 71 OFFCURVE",
"547 71 CURVE SMOOTH",
"474 71 OFFCURVE",
"408 146 OFFCURVE",
"395 221 CURVE",
"386 221 LINE",
"372 145 OFFCURVE",
"307 71 OFFCURVE",
"234 71 CURVE SMOOTH",
"181 71 OFFCURVE",
"154 114 OFFCURVE",
"154 156 CURVE",
"154 187 OFFCURVE",
"184 219 OFFCURVE",
"216 253 CURVE SMOOTH",
"256 294 OFFCURVE",
"301 340 OFFCURVE",
"301 399 CURVE SMOOTH",
"301 473 OFFCURVE",
"243 519 OFFCURVE",
"177 519 CURVE SMOOTH",
"119 519 OFFCURVE",
"60 485 OFFCURVE",
"60 416 CURVE SMOOTH",
"60 384 OFFCURVE",
"71 352 OFFCURVE",
"92 330 CURVE",
"123 350 LINE",
"115 365 OFFCURVE",
"113 377 OFFCURVE",
"113 388 CURVE SMOOTH",
"113 425 OFFCURVE",
"138 452 OFFCURVE",
"177 452 CURVE SMOOTH",
"214 452 OFFCURVE",
"248 427 OFFCURVE",
"248 385 CURVE SMOOTH",
"248 344 OFFCURVE",
"217 311 OFFCURVE",
"185 278 CURVE SMOOTH",
"146 238 OFFCURVE",
"103 193 OFFCURVE",
"103 125 CURVE",
"103 38 OFFCURVE",
"164 -14 OFFCURVE",
"231 -14 CURVE SMOOTH",
"299 -14 OFFCURVE",
"367 43 OFFCURVE",
"390 126 CURVE",
"392 126 LINE",
"415 43 OFFCURVE",
"483 -14 OFFCURVE",
"551 -14 CURVE SMOOTH",
"617 -14 OFFCURVE",
"678 38 OFFCURVE",
"678 125 CURVE"
);
}
);
};
layerId = "034236B8-3FA8-43DA-9EDA-EFF269A687EC";
leftMetricsKey = "=knNGA";
rightMetricsKey = "=knNGA";
name = Regular;
paths = (
{
closed = 1;
nodes = (
"567 287 OFFCURVE",
"620 350 OFFCURVE",
"620 432 CURVE SMOOTH",
"620 477 OFFCURVE",
"597 510 OFFCURVE",
"561 536 CURVE",
"542 519 LINE",
"567 500 OFFCURVE",
"577 480 OFFCURVE",
"577 452 CURVE SMOOTH",
"577 396 OFFCURVE",
"529 356 OFFCURVE",
"455 356 CURVE SMOOTH",
"382 356 OFFCURVE",
"308 410 OFFCURVE",
"229 480 CURVE",
"194 477 LINE",
"270 396 OFFCURVE",
"352 287 OFFCURVE",
"475 287 CURVE SMOOTH"
);
},
{
closed = 1;
nodes = (
"638 185 OFFCURVE",
"611 220 OFFCURVE",
"580 250 CURVE",
"554 233 LINE",
"576 209 OFFCURVE",
"588 184 OFFCURVE",
"588 154 CURVE",
"588 116 OFFCURVE",
"565 71 OFFCURVE",
"507 71 CURVE SMOOTH",
"434 71 OFFCURVE",
"368 146 OFFCURVE",
"355 221 CURVE",
"346 221 LINE",
"332 145 OFFCURVE",
"267 71 OFFCURVE",
"194 71 CURVE SMOOTH",
"141 71 OFFCURVE",
"114 114 OFFCURVE",
"114 156 CURVE",
"114 187 OFFCURVE",
"144 219 OFFCURVE",
"176 253 CURVE SMOOTH",
"216 294 OFFCURVE",
"261 340 OFFCURVE",
"261 399 CURVE SMOOTH",
"261 473 OFFCURVE",
"203 519 OFFCURVE",
"137 519 CURVE SMOOTH",
"79 519 OFFCURVE",
"20 485 OFFCURVE",
"20 416 CURVE SMOOTH",
"20 384 OFFCURVE",
"31 352 OFFCURVE",
"52 330 CURVE",
"83 350 LINE",
"75 365 OFFCURVE",
"73 377 OFFCURVE",
"73 388 CURVE SMOOTH",
"73 425 OFFCURVE",
"98 452 OFFCURVE",
"137 452 CURVE SMOOTH",
"174 452 OFFCURVE",
"208 427 OFFCURVE",
"208 385 CURVE SMOOTH",
"208 344 OFFCURVE",
"177 311 OFFCURVE",
"145 278 CURVE SMOOTH",
"106 238 OFFCURVE",
"63 193 OFFCURVE",
"63 125 CURVE",
"63 38 OFFCURVE",
"124 -14 OFFCURVE",
"191 -14 CURVE SMOOTH",
"259 -14 OFFCURVE",
"327 43 OFFCURVE",
"350 126 CURVE",
"352 126 LINE",
"375 43 OFFCURVE",
"443 -14 OFFCURVE",
"511 -14 CURVE SMOOTH",
"577 -14 OFFCURVE",
"638 38 OFFCURVE",
"638 125 CURVE"
);
}
);
width = 703;
}
);
leftMetricsKey = "=ba-kannada";
rightMetricsKey = "=nga-kannada";
unicode = 0C9C;
},
{
color = 3;
glyphname = knJHA;
lastChange = "2015-12-04 14:39:57 +0000";
layers = (
{
layerId = "034236B8-3FA8-43DA-9EDA-EFF269A687EC";
leftMetricsKey = "=knRA";
name = Regular;
paths = (
{
closed = 1;
nodes = (
"874 -90 OFFCURVE",
"832 -34 OFFCURVE",
"819 46 CURVE",
"801 46 LINE",
"789 -34 OFFCURVE",
"746 -90 OFFCURVE",
"746 -131 CURVE SMOOTH",
"746 -180 OFFCURVE",
"784 -200 OFFCURVE",
"810 -200 CURVE",
"834 -200 OFFCURVE",
"874 -184 OFFCURVE",
"874 -131 CURVE SMOOTH"
);
},
{
closed = 1;
nodes = (
"244 461 OFFCURVE",
"207 453 OFFCURVE",
"175 436 CURVE SMOOTH",
"101 398 OFFCURVE",
"55 315 OFFCURVE",
"55 226 CURVE SMOOTH",
"55 86 OFFCURVE",
"157 -14 OFFCURVE",
"285 -14 CURVE",
"413 -14 OFFCURVE",
"515 86 OFFCURVE",
"515 226 CURVE SMOOTH",
"515 315 OFFCURVE",
"469 398 OFFCURVE",
"395 436 CURVE SMOOTH",
"363 453 OFFCURVE",
"326 461 OFFCURVE",
"285 461 CURVE"
);
},
{
closed = 1;
nodes = (
"386 433 OFFCURVE",
"463 360 OFFCURVE",
"463 261 CURVE SMOOTH",
"463 161 OFFCURVE",
"396 71 OFFCURVE",
"285 71 CURVE",
"174 71 OFFCURVE",
"107 161 OFFCURVE",
"107 261 CURVE SMOOTH",
"107 360 OFFCURVE",
"184 433 OFFCURVE",
"285 433 CURVE"
);
},
{
closed = 1;
nodes = (
"426 644 LINE",
"450 635 OFFCURVE",
"472 610 OFFCURVE",
"472 576 CURVE SMOOTH",
"472 536 OFFCURVE",
"441 509 OFFCURVE",
"380 509 CURVE SMOOTH",
"55 509 LINE",
"55 434 LINE",
"218 434 LINE",
"284 451 LINE",
"348 434 LINE",
"380 434 LINE SMOOTH",
"461 434 OFFCURVE",
"515 480 OFFCURVE",
"515 552 CURVE SMOOTH",
"515 607 OFFCURVE",
"484 648 OFFCURVE",
"441 664 CURVE"
);
},
{
closed = 1;
nodes = (
"831 392 OFFCURVE",
"717 509 OFFCURVE",
"631 509 CURVE SMOOTH",
"595 509 OFFCURVE",
"576 496 OFFCURVE",
"576 473 CURVE SMOOTH",
"576 450 OFFCURVE",
"587 434 OFFCURVE",
"617 434 CURVE",
"716 434 OFFCURVE",
"789 338 OFFCURVE",
"789 257 CURVE SMOOTH",
"789 158 OFFCURVE",
"720 71 OFFCURVE",
"635 71 CURVE",
"548 71 OFFCURVE",
"499 145 OFFCURVE",
"479 189 CURVE",
"455 139 LINE",
"467 82 OFFCURVE",
"542 -14 OFFCURVE",
"647 -14 CURVE",
"772 -14 OFFCURVE",
"831 109 OFFCURVE",
"831 245 CURVE SMOOTH"
);
},
{
closed = 1;
nodes = (
"888 71 OFFCURVE",
"839 145 OFFCURVE",
"819 189 CURVE",
"795 139 LINE",
"807 82 OFFCURVE",
"882 -14 OFFCURVE",
"978 -14 CURVE",
"1091 -14 OFFCURVE",
"1171 115 OFFCURVE",
"1171 242 CURVE",
"1171 415 OFFCURVE",
"1085 513 OFFCURVE",
"1014 513 CURVE SMOOTH",
"983 513 OFFCURVE",
"966 493 OFFCURVE",
"966 470 CURVE SMOOTH",
"966 451 OFFCURVE",
"978 435 OFFCURVE",
"994 430 CURVE SMOOTH",
"1017 423 OFFCURVE",
"1038 428 OFFCURVE",
"1062 420 CURVE SMOOTH",
"1099 407 OFFCURVE",
"1130 344 OFFCURVE",
"1130 255 CURVE",
"1130 159 OFFCURVE",
"1060 71 OFFCURVE",
"978 71 CURVE"
);
}
);
width = 1226;
}
);
leftMetricsKey = "=ra-kannada";
unicode = 0C9D;
},
{
color = 3;
glyphname = knTTA;
lastChange = "2015-12-04 14:39:57 +0000";
layers = (
{
background = {
paths = (
{
closed = 1;
nodes = (
"177 455 OFFCURVE",
"190 459 OFFCURVE",
"204 459 CURVE SMOOTH",
"252 459 OFFCURVE",
"277 440 OFFCURVE",
"277 401 CURVE SMOOTH",
"277 375 OFFCURVE",
"258 354 OFFCURVE",
"221 354 CURVE SMOOTH",
"189 354 OFFCURVE",
"162 372 OFFCURVE",
"162 418 CURVE SMOOTH",
"162 429 OFFCURVE",
"163 440 OFFCURVE",
"165 451 CURVE"
);
},
{
closed = 0;
nodes = (
"92 294 LINE",
"92 354 OFFCURVE",
"108 400 OFFCURVE",
"135 429 CURVE",
"133 417 OFFCURVE",
"132 405 OFFCURVE",
"132 391 CURVE SMOOTH",
"132 318 OFFCURVE",
"173 283 OFFCURVE",
"221 283 CURVE SMOOTH",
"274 283 OFFCURVE",
"306 336 OFFCURVE",
"306 401 CURVE SMOOTH",
"306 467 OFFCURVE",
"280 519 OFFCURVE",
"210 519 CURVE SMOOTH",
"124 519 OFFCURVE",
"45 414 OFFCURVE",
"45 283 CURVE SMOOTH"
);
}
);
};
layerId = "034236B8-3FA8-43DA-9EDA-EFF269A687EC";
leftMetricsKey = "=knCHA";
rightMetricsKey = "=|knCHA";
name = Regular;
paths = (
{
closed = 1;
nodes = (
"177 530 OFFCURVE",
"165 560 OFFCURVE",
"165 590 CURVE SMOOTH",
"165 623 OFFCURVE",
"186 655 OFFCURVE",
"228 670 CURVE",
"209 692 LINE",
"145 680 OFFCURVE",
"107 639 OFFCURVE",
"107 596 CURVE SMOOTH",
"107 551 OFFCURVE",
"136 517 OFFCURVE",
"192 493 CURVE",
"213 508 LINE"
);
},
{
closed = 1;
nodes = (
"575 470 LINE",
"631 494 OFFCURVE",
"660 539 OFFCURVE",
"660 585 CURVE SMOOTH",
"660 639 OFFCURVE",
"622 680 OFFCURVE",
"558 692 CURVE",
"539 670 LINE",
"581 655 OFFCURVE",
"603 623 OFFCURVE",
"603 581 CURVE SMOOTH",
"603 549 OFFCURVE",
"590 507 OFFCURVE",
"554 485 CURVE"
);
},
{
closed = 1;
nodes = (
"551 465 LINE",
"642 421 OFFCURVE",
"683 352 OFFCURVE",
"683 263 CURVE SMOOTH",
"683 149 OFFCURVE",
"633 71 OFFCURVE",
"546 71 CURVE SMOOTH",
"473 71 OFFCURVE",
"407 146 OFFCURVE",
"395 221 CURVE",
"385 221 LINE",
"373 146 OFFCURVE",
"307 71 OFFCURVE",
"234 71 CURVE SMOOTH",
"143 71 OFFCURVE",
"97 149 OFFCURVE",
"97 263 CURVE SMOOTH",
"97 331 OFFCURVE",
"114 392 OFFCURVE",
"147 425 CURVE",
"145 414 OFFCURVE",
"144 401 OFFCURVE",
"144 389 CURVE SMOOTH",
"144 316 OFFCURVE",
"185 281 OFFCURVE",
"234 281 CURVE SMOOTH",
"287 281 OFFCURVE",
"319 333 OFFCURVE",
"319 399 CURVE SMOOTH",
"319 465 OFFCURVE",
"292 517 OFFCURVE",
"222 517 CURVE SMOOTH",
"129 517 OFFCURVE",
"55 397 OFFCURVE",
"55 263 CURVE SMOOTH",
"55 75 OFFCURVE",
"115 -14 OFFCURVE",
"229 -14 CURVE SMOOTH",
"298 -14 OFFCURVE",
"366 43 OFFCURVE",
"389 126 CURVE",
"391 126 LINE",
"414 43 OFFCURVE",
"482 -14 OFFCURVE",
"551 -14 CURVE SMOOTH",
"660 -14 OFFCURVE",
"725 75 OFFCURVE",
"725 240 CURVE SMOOTH",
"725 401 OFFCURVE",
"625 475 OFFCURVE",
"554 485 CURVE"
);
},
{
closed = 1;
nodes = (
"289 373 OFFCURVE",
"270 352 OFFCURVE",
"234 352 CURVE SMOOTH",
"201 352 OFFCURVE",
"174 370 OFFCURVE",
"174 416 CURVE SMOOTH",
"174 427 OFFCURVE",
"175 438 OFFCURVE",
"177 448 CURVE",
"189 453 OFFCURVE",
"203 457 OFFCURVE",
"216 457 CURVE SMOOTH",
"265 457 OFFCURVE",
"289 438 OFFCURVE",
"289 399 CURVE SMOOTH"
);
}
);
width = 780;
}
);
leftMetricsKey = "=cha-kannada";
rightMetricsKey = "=cha-kannada";
unicode = 0C9F;
},
{
color = 3;
glyphname = knTTHA;
lastChange = "2015-12-04 14:39:57 +0000";
layers = (
{
background = {
paths = (
{
closed = 1;
nodes = (
"219 300 OFFCURVE",
"248 329 OFFCURVE",
"285 329 CURVE SMOOTH",
"322 329 OFFCURVE",
"350 300 OFFCURVE",
"350 263 CURVE SMOOTH",
"350 226 OFFCURVE",
"322 199 OFFCURVE",
"285 199 CURVE SMOOTH",
"248 199 OFFCURVE",
"219 226 OFFCURVE",
"219 263 CURVE SMOOTH"
);
},
{
closed = 1;
nodes = (
"386 433 OFFCURVE",
"461 360 OFFCURVE",
"461 261 CURVE SMOOTH",
"461 161 OFFCURVE",
"386 89 OFFCURVE",
"285 89 CURVE",
"184 89 OFFCURVE",
"109 161 OFFCURVE",
"109 261 CURVE SMOOTH",
"109 360 OFFCURVE",
"184 433 OFFCURVE",
"285 433 CURVE"
);
},
{
closed = 1;
nodes = (
"433 643 LINE",
"461 625 OFFCURVE",
"470 600 OFFCURVE",
"470 578 CURVE SMOOTH",
"470 537 OFFCURVE",
"439 508 OFFCURVE",
"387 508 CURVE SMOOTH",
"55 508 LINE",
"55 425 LINE",
"218 425 LINE",
"285 444 LINE",
"349 425 LINE",
"387 425 LINE SMOOTH",
"466 425 OFFCURVE",
"523 480 OFFCURVE",
"523 549 CURVE SMOOTH",
"523 594 OFFCURVE",
"500 636 OFFCURVE",
"448 663 CURVE"
);
},
{
closed = 1;
nodes = (
"243 461 OFFCURVE",
"207 448 OFFCURVE",
"174 431 CURVE SMOOTH",
"101 393 OFFCURVE",
"55 315 OFFCURVE",
"55 226 CURVE SMOOTH",
"55 86 OFFCURVE",
"157 -14 OFFCURVE",
"285 -14 CURVE",
"412 -14 OFFCURVE",
"515 86 OFFCURVE",
"515 226 CURVE SMOOTH",
"515 315 OFFCURVE",
"469 393 OFFCURVE",
"395 431 CURVE SMOOTH",
"363 448 OFFCURVE",
"326 461 OFFCURVE",
"285 461 CURVE"
);
}
);
};
guideLines = (
{
angle = 270;
position = "{55, -78}";
}
);
layerId = "034236B8-3FA8-43DA-9EDA-EFF269A687EC";
leftMetricsKey = "=knRA";
rightMetricsKey = "=knRA";
name = Regular;
paths = (
{
closed = 1;
nodes = (
"244 461 OFFCURVE",
"207 453 OFFCURVE",
"175 436 CURVE SMOOTH",
"101 398 OFFCURVE",
"55 315 OFFCURVE",
"55 226 CURVE SMOOTH",
"55 86 OFFCURVE",
"157 -14 OFFCURVE",
"285 -14 CURVE",
"413 -14 OFFCURVE",
"515 86 OFFCURVE",
"515 226 CURVE SMOOTH",
"515 315 OFFCURVE",
"469 398 OFFCURVE",
"395 436 CURVE SMOOTH",
"363 453 OFFCURVE",
"326 461 OFFCURVE",
"285 461 CURVE"
);
},
{
closed = 1;
nodes = (
"386 433 OFFCURVE",
"463 360 OFFCURVE",
"463 261 CURVE SMOOTH",
"463 161 OFFCURVE",
"396 71 OFFCURVE",
"285 71 CURVE",
"174 71 OFFCURVE",
"107 161 OFFCURVE",
"107 261 CURVE SMOOTH",
"107 360 OFFCURVE",
"184 433 OFFCURVE",
"285 433 CURVE"
);
},
{
closed = 1;
nodes = (
"426 644 LINE",
"450 635 OFFCURVE",
"472 610 OFFCURVE",
"472 576 CURVE SMOOTH",
"472 536 OFFCURVE",
"441 509 OFFCURVE",
"380 509 CURVE SMOOTH",
"55 509 LINE",
"55 434 LINE",
"218 434 LINE",
"284 451 LINE",
"348 434 LINE",
"380 434 LINE SMOOTH",
"461 434 OFFCURVE",
"515 480 OFFCURVE",
"515 552 CURVE SMOOTH",
"515 607 OFFCURVE",
"484 648 OFFCURVE",
"441 664 CURVE"
);
},
{
closed = 1;
nodes = (
"219 300 OFFCURVE",
"248 329 OFFCURVE",
"285 329 CURVE SMOOTH",
"322 329 OFFCURVE",
"350 300 OFFCURVE",
"350 263 CURVE SMOOTH",
"350 226 OFFCURVE",
"322 199 OFFCURVE",
"285 199 CURVE SMOOTH",
"248 199 OFFCURVE",
"219 226 OFFCURVE",
"219 263 CURVE SMOOTH"
);
}
);
width = 580;
}
);
leftMetricsKey = "=ra-kannada";
rightMetricsKey = "=ra-kannada";
unicode = 0CA0;
},
{
color = 3;
glyphname = knDDA;
lastChange = "2015-12-04 14:39:57 +0000";
layers = (
{
background = {
paths = (
{
closed = 1;
nodes = (
"208 465 OFFCURVE",
"55 339 OFFCURVE",
"55 160 CURVE SMOOTH",
"55 33 OFFCURVE",
"117 -14 OFFCURVE",
"185 -14 CURVE SMOOTH",
"253 -14 OFFCURVE",
"321 43 OFFCURVE",
"344 126 CURVE",
"346 126 LINE",
"369 43 OFFCURVE",
"437 -14 OFFCURVE",
"505 -14 CURVE SMOOTH",
"572 -14 OFFCURVE",
"635 33 OFFCURVE",
"635 160 CURVE SMOOTH",
"635 339 OFFCURVE",
"482 465 OFFCURVE",
"345 465 CURVE"
);
},
{
closed = 1;
nodes = (
"477 441 OFFCURVE",
"584 300 OFFCURVE",
"584 192 CURVE SMOOTH",
"584 124 OFFCURVE",
"552 71 OFFCURVE",
"495 71 CURVE SMOOTH",
"429 71 OFFCURVE",
"364 145 OFFCURVE",
"350 221 CURVE SMOOTH",
"341 221 LINE",
"327 145 OFFCURVE",
"261 71 OFFCURVE",
"196 71 CURVE SMOOTH",
"138 71 OFFCURVE",
"106 124 OFFCURVE",
"106 192 CURVE SMOOTH",
"106 300 OFFCURVE",
"213 441 OFFCURVE",
"345 441 CURVE"
);
},
{
closed = 1;
nodes = (
"545 644 LINE",
"569 635 OFFCURVE",
"591 610 OFFCURVE",
"591 576 CURVE SMOOTH",
"591 536 OFFCURVE",
"560 509 OFFCURVE",
"499 509 CURVE SMOOTH",
"55 509 LINE",
"55 434 LINE",
"241 434 LINE",
"345 444 LINE",
"448 434 LINE",
"499 434 LINE SMOOTH",
"580 434 OFFCURVE",
"634 480 OFFCURVE",
"634 552 CURVE SMOOTH",
"634 607 OFFCURVE",
"603 648 OFFCURVE",
"560 664 CURVE"
);
}
);
};
layerId = "034236B8-3FA8-43DA-9EDA-EFF269A687EC";
leftMetricsKey = "=knDA";
rightMetricsKey = "=knDA";
name = Regular;
paths = (
{
closed = 1;
nodes = (
"466 441 OFFCURVE",
"544 355 OFFCURVE",
"544 299 CURVE SMOOTH",
"544 274 OFFCURVE",
"526 243 OFFCURVE",
"475 243 CURVE",
"438 243 OFFCURVE",
"417 262 OFFCURVE",
"417 285 CURVE SMOOTH",
"417 307 OFFCURVE",
"439 326 OFFCURVE",
"475 326 CURVE SMOOTH",
"536 326 OFFCURVE",
"583 254 OFFCURVE",
"584 174 CURVE",
"584 125 OFFCURVE",
"552 71 OFFCURVE",
"495 71 CURVE",
"429 71 OFFCURVE",
"364 145 OFFCURVE",
"350 221 CURVE SMOOTH",
"341 221 LINE",
"327 145 OFFCURVE",
"261 71 OFFCURVE",
"196 71 CURVE SMOOTH",
"138 71 OFFCURVE",
"106 124 OFFCURVE",
"106 192 CURVE SMOOTH",
"106 300 OFFCURVE",
"213 441 OFFCURVE",
"345 441 CURVE"
);
},
{
closed = 1;
nodes = (
"208 465 OFFCURVE",
"55 339 OFFCURVE",
"55 160 CURVE SMOOTH",
"55 33 OFFCURVE",
"117 -14 OFFCURVE",
"185 -14 CURVE SMOOTH",
"253 -14 OFFCURVE",
"321 43 OFFCURVE",
"344 126 CURVE",
"346 126 LINE",
"369 43 OFFCURVE",
"437 -14 OFFCURVE",
"505 -14 CURVE",
"572 -14 OFFCURVE",
"635 33 OFFCURVE",
"635 145 CURVE",
"635 218 OFFCURVE",
"575 355 OFFCURVE",
"468 355 CURVE",
"407 355 OFFCURVE",
"378 315 OFFCURVE",
"378 277 CURVE SMOOTH",
"378 229 OFFCURVE",
"420 185 OFFCURVE",
"476 185 CURVE SMOOTH",
"527 185 OFFCURVE",
"572 216 OFFCURVE",
"572 284 CURVE",
"572 397 OFFCURVE",
"450 465 OFFCURVE",
"345 465 CURVE"
);
},
{
closed = 1;
nodes = (
"448 434 LINE",
"499 434 LINE SMOOTH",
"580 434 OFFCURVE",
"634 480 OFFCURVE",
"634 552 CURVE SMOOTH",
"634 607 OFFCURVE",
"603 648 OFFCURVE",
"560 664 CURVE",
"545 644 LINE",
"569 635 OFFCURVE",
"591 610 OFFCURVE",
"591 576 CURVE SMOOTH",
"591 536 OFFCURVE",
"560 509 OFFCURVE",
"499 509 CURVE SMOOTH",
"55 509 LINE",
"55 434 LINE",
"241 434 LINE",
"345 444 LINE"
);
}
);
width = 700;
}
);
leftMetricsKey = "=da-kannada";
rightMetricsKey = "=knDA";
unicode = 0CA1;
},
{
color = 3;
glyphname = knDDHA;
lastChange = "2015-12-04 14:39:57 +0000";
layers = (
{
background = {
paths = (
{
closed = 1;
nodes = (
"208 465 OFFCURVE",
"55 339 OFFCURVE",
"55 160 CURVE SMOOTH",
"55 33 OFFCURVE",
"117 -14 OFFCURVE",
"185 -14 CURVE SMOOTH",
"253 -14 OFFCURVE",
"321 43 OFFCURVE",
"344 126 CURVE",
"346 126 LINE",
"369 43 OFFCURVE",
"437 -14 OFFCURVE",
"505 -14 CURVE SMOOTH",
"572 -14 OFFCURVE",
"635 33 OFFCURVE",
"635 160 CURVE SMOOTH",
"635 339 OFFCURVE",
"482 465 OFFCURVE",
"345 465 CURVE"
);
},
{
closed = 1;
nodes = (
"477 441 OFFCURVE",
"584 300 OFFCURVE",
"584 192 CURVE SMOOTH",
"584 124 OFFCURVE",
"552 71 OFFCURVE",
"495 71 CURVE SMOOTH",
"429 71 OFFCURVE",
"364 145 OFFCURVE",
"350 221 CURVE SMOOTH",
"341 221 LINE",
"327 145 OFFCURVE",
"261 71 OFFCURVE",
"196 71 CURVE SMOOTH",
"138 71 OFFCURVE",
"106 124 OFFCURVE",
"106 192 CURVE SMOOTH",
"106 300 OFFCURVE",
"213 441 OFFCURVE",
"345 441 CURVE"
);
},
{
closed = 1;
nodes = (
"545 644 LINE",
"569 635 OFFCURVE",
"591 610 OFFCURVE",
"591 576 CURVE SMOOTH",
"591 536 OFFCURVE",
"560 509 OFFCURVE",
"499 509 CURVE SMOOTH",
"55 509 LINE",
"55 434 LINE",
"241 434 LINE",
"345 444 LINE",
"448 434 LINE",
"499 434 LINE SMOOTH",
"580 434 OFFCURVE",
"634 480 OFFCURVE",
"634 552 CURVE SMOOTH",
"634 607 OFFCURVE",
"603 648 OFFCURVE",
"560 664 CURVE"
);
}
);
};
layerId = "034236B8-3FA8-43DA-9EDA-EFF269A687EC";
leftMetricsKey = "=knDDA";
rightMetricsKey = "=knDDA";
name = Regular;
paths = (
{
closed = 1;
nodes = (
"466 441 OFFCURVE",
"544 355 OFFCURVE",
"544 299 CURVE SMOOTH",
"544 274 OFFCURVE",
"526 243 OFFCURVE",
"475 243 CURVE",
"438 243 OFFCURVE",
"417 262 OFFCURVE",
"417 285 CURVE SMOOTH",
"417 307 OFFCURVE",
"439 326 OFFCURVE",
"475 326 CURVE SMOOTH",
"536 326 OFFCURVE",
"583 254 OFFCURVE",
"584 174 CURVE",
"584 125 OFFCURVE",
"552 71 OFFCURVE",
"495 71 CURVE",
"429 71 OFFCURVE",
"364 145 OFFCURVE",
"350 221 CURVE SMOOTH",
"341 221 LINE",
"327 145 OFFCURVE",
"261 71 OFFCURVE",
"196 71 CURVE SMOOTH",
"138 71 OFFCURVE",
"106 124 OFFCURVE",
"106 192 CURVE SMOOTH",
"106 300 OFFCURVE",
"213 441 OFFCURVE",
"345 441 CURVE"
);
},
{
closed = 1;
nodes = (
"208 465 OFFCURVE",
"55 339 OFFCURVE",
"55 160 CURVE SMOOTH",
"55 33 OFFCURVE",
"117 -14 OFFCURVE",
"185 -14 CURVE SMOOTH",
"253 -14 OFFCURVE",
"321 43 OFFCURVE",
"344 126 CURVE",
"346 126 LINE",
"369 43 OFFCURVE",
"437 -14 OFFCURVE",
"505 -14 CURVE",
"572 -14 OFFCURVE",
"635 33 OFFCURVE",
"635 145 CURVE",
"635 218 OFFCURVE",
"575 355 OFFCURVE",
"468 355 CURVE",
"407 355 OFFCURVE",
"378 315 OFFCURVE",
"378 277 CURVE SMOOTH",
"378 229 OFFCURVE",
"420 185 OFFCURVE",
"476 185 CURVE SMOOTH",
"527 185 OFFCURVE",
"572 216 OFFCURVE",
"572 284 CURVE",
"572 397 OFFCURVE",
"450 465 OFFCURVE",
"345 465 CURVE"
);
},
{
closed = 1;
nodes = (
"448 434 LINE",
"499 434 LINE SMOOTH",
"580 434 OFFCURVE",
"634 480 OFFCURVE",
"634 552 CURVE SMOOTH",
"634 607 OFFCURVE",
"603 648 OFFCURVE",
"560 664 CURVE",
"545 644 LINE",
"569 635 OFFCURVE",
"591 610 OFFCURVE",
"591 576 CURVE SMOOTH",
"591 536 OFFCURVE",
"560 509 OFFCURVE",
"499 509 CURVE SMOOTH",
"55 509 LINE",
"55 434 LINE",
"241 434 LINE",
"345 444 LINE"
);
},
{
closed = 1;
nodes = (
"336 44 LINE",
"325 -36 OFFCURVE",
"281 -92 OFFCURVE",
"281 -133 CURVE SMOOTH",
"281 -182 OFFCURVE",
"319 -202 OFFCURVE",
"345 -202 CURVE SMOOTH",
"369 -202 OFFCURVE",
"410 -186 OFFCURVE",
"410 -133 CURVE SMOOTH",
"410 -92 OFFCURVE",
"367 -36 OFFCURVE",
"354 44 CURVE"
);
}
);
width = 700;
}
);
leftMetricsKey = "=da-kannada";
rightMetricsKey = "=dda-kannada";
unicode = 0CA2;
},
{
color = 3;
glyphname = knNNA;
lastChange = "2015-12-01 16:54:37 +0000";
layers = (
{
background = {
paths = (
{
closed = 1;
nodes = (
"630 209 LINE",
"647 219 LINE",
"647 338 OFFCURVE",
"594 450 OFFCURVE",
"496 450 CURVE SMOOTH",
"436 450 OFFCURVE",
"377 399 OFFCURVE",
"357 326 CURVE",
"355 326 LINE",
"335 399 OFFCURVE",
"275 450 OFFCURVE",
"215 450 CURVE",
"138 450 OFFCURVE",
"84 373 OFFCURVE",
"84 303 CURVE",
"111 285 LINE",
"125 326 OFFCURVE",
"157 368 OFFCURVE",
"218 368 CURVE SMOOTH",
"283 368 OFFCURVE",
"340 310 OFFCURVE",
"352 244 CURVE",
"360 244 LINE",
"371 309 OFFCURVE",
"428 368 OFFCURVE",
"492 368 CURVE SMOOTH",
"561 368 OFFCURVE",
"611 320 OFFCURVE",
"611 219 CURVE"
);
}
);
};
layerId = "034236B8-3FA8-43DA-9EDA-EFF269A687EC";
rightMetricsKey = "=knDA";
name = Regular;
paths = (
{
closed = 1;
nodes = (
"656 -14 OFFCURVE",
"730 97 OFFCURVE",
"730 235 CURVE SMOOTH",
"730 392 OFFCURVE",
"651 519 OFFCURVE",
"529 519 CURVE SMOOTH",
"443 519 OFFCURVE",
"375 461 OFFCURVE",
"352 377 CURVE",
"349 377 LINE",
"326 461 OFFCURVE",
"264 519 OFFCURVE",
"188 519 CURVE SMOOTH",
"118 519 OFFCURVE",
"55 461 OFFCURVE",
"55 369 CURVE SMOOTH",
"55 309 OFFCURVE",
"91 243 OFFCURVE",
"138 235 CURVE",
"96 214 OFFCURVE",
"55 168 OFFCURVE",
"55 104 CURVE SMOOTH",
"55 40 OFFCURVE",
"96 -14 OFFCURVE",
"168 -14 CURVE SMOOTH",
"249 -14 OFFCURVE",
"287 84 OFFCURVE",
"290 139 CURVE",
"271 157 LINE",
"249 108 OFFCURVE",
"218 71 OFFCURVE",
"173 71 CURVE SMOOTH",
"126 71 OFFCURVE",
"108 97 OFFCURVE",
"108 128 CURVE SMOOTH",
"108 176 OFFCURVE",
"150 217 OFFCURVE",
"233 231 CURVE",
"233 240 LINE",
"162 253 OFFCURVE",
"108 287 OFFCURVE",
"108 352 CURVE SMOOTH",
"108 392 OFFCURVE",
"138 434 OFFCURVE",
"196 434 CURVE SMOOTH",
"267 434 OFFCURVE",
"332 358 OFFCURVE",
"346 283 CURVE",
"355 283 LINE",
"368 357 OFFCURVE",
"433 434 OFFCURVE",
"517 434 CURVE SMOOTH",
"620 434 OFFCURVE",
"683 345 OFFCURVE",
"683 257 CURVE SMOOTH",
"683 146 OFFCURVE",
"622 71 OFFCURVE",
"547 71 CURVE",
"483 71 OFFCURVE",
"443 125 OFFCURVE",
"443 165 CURVE SMOOTH",
"443 203 OFFCURVE",
"469 227 OFFCURVE",
"506 227 CURVE SMOOTH",
"536 227 OFFCURVE",
"561 217 OFFCURVE",
"571 193 CURVE",
"587 208 LINE",
"575 250 OFFCURVE",
"551 287 OFFCURVE",
"502 287 CURVE SMOOTH",
"443 287 OFFCURVE",
"400 232 OFFCURVE",
"400 143 CURVE SMOOTH",
"400 56 OFFCURVE",
"453 -14 OFFCURVE",
"552 -14 CURVE"
);
}
);
width = 795;
}
);
rightMetricsKey = "=da-kannada";
unicode = 0CA3;
},
{
color = 3;
glyphname = knTA;
lastChange = "2015-12-04 16:26:17 +0000";
layers = (
{
components = (
{
name = lip;
transform = "{1, 0, 0, 1, 40, 0}";
}
);
layerId = "034236B8-3FA8-43DA-9EDA-EFF269A687EC";
name = Regular;
paths = (
{
closed = 1;
nodes = (
"349 440 OFFCURVE",
"410 394 OFFCURVE",
"410 338 CURVE SMOOTH",
"410 279 OFFCURVE",
"368 247 OFFCURVE",
"312 247 CURVE SMOOTH",
"264 247 OFFCURVE",
"234 265 OFFCURVE",
"234 294 CURVE SMOOTH",
"234 325 OFFCURVE",
"272 344 OFFCURVE",
"332 344 CURVE SMOOTH",
"421 344 OFFCURVE",
"494 293 OFFCURVE",
"494 213 CURVE SMOOTH",
"494 122 OFFCURVE",
"423 71 OFFCURVE",
"301 71 CURVE SMOOTH",
"174 71 OFFCURVE",
"100 136 OFFCURVE",
"100 206 CURVE SMOOTH",
"100 226 OFFCURVE",
"103 243 OFFCURVE",
"113 254 CURVE",
"87 258 LINE",
"70 242 OFFCURVE",
"55 215 OFFCURVE",
"55 164 CURVE SMOOTH",
"55 77 OFFCURVE",
"146 -14 OFFCURVE",
"297 -14 CURVE SMOOTH",
"445 -14 OFFCURVE",
"540 75 OFFCURVE",
"540 191 CURVE SMOOTH",
"540 307 OFFCURVE",
"441 380 OFFCURVE",
"333 380 CURVE SMOOTH",
"236 380 OFFCURVE",
"179 342 OFFCURVE",
"179 287 CURVE SMOOTH",
"179 230 OFFCURVE",
"236 191 OFFCURVE",
"307 191 CURVE SMOOTH",
"387 191 OFFCURVE",
"455 242 OFFCURVE",
"455 322 CURVE SMOOTH",
"455 383 OFFCURVE",
"398 437 OFFCURVE",
"360 449 CURVE",
"295 440 LINE"
);
}
);
width = 595;
}
);
unicode = 0CA4;
},
{
color = 3;
glyphname = knTHA;
lastChange = "2015-12-04 14:39:57 +0000";
layers = (
{
background = {
paths = (
{
closed = 1;
nodes = (
"477 431 OFFCURVE",
"584 290 OFFCURVE",
"584 182 CURVE SMOOTH",
"584 114 OFFCURVE",
"552 61 OFFCURVE",
"495 61 CURVE SMOOTH",
"429 61 OFFCURVE",
"364 135 OFFCURVE",
"350 211 CURVE SMOOTH",
"341 211 LINE",
"327 135 OFFCURVE",
"261 61 OFFCURVE",
"196 61 CURVE SMOOTH",
"138 61 OFFCURVE",
"106 114 OFFCURVE",
"106 182 CURVE SMOOTH",
"106 290 OFFCURVE",
"213 431 OFFCURVE",
"345 431 CURVE"
);
},
{
closed = 1;
nodes = (
"208 465 OFFCURVE",
"55 339 OFFCURVE",
"55 160 CURVE SMOOTH",
"55 33 OFFCURVE",
"117 -14 OFFCURVE",
"185 -14 CURVE SMOOTH",
"253 -14 OFFCURVE",
"321 43 OFFCURVE",
"344 126 CURVE",
"346 126 LINE",
"369 43 OFFCURVE",
"437 -14 OFFCURVE",
"505 -14 CURVE SMOOTH",
"572 -14 OFFCURVE",
"635 33 OFFCURVE",
"635 160 CURVE SMOOTH",
"635 339 OFFCURVE",
"482 465 OFFCURVE",
"345 465 CURVE"
);
}
);
};
guideLines = (
{
angle = 270;
position = "{55, -78}";
}
);
layerId = "034236B8-3FA8-43DA-9EDA-EFF269A687EC";
leftMetricsKey = "=knDA";
rightMetricsKey = "=knDA";
name = Regular;
paths = (
{
closed = 1;
nodes = (
"336 44 LINE",
"325 -36 OFFCURVE",
"281 -92 OFFCURVE",
"281 -133 CURVE SMOOTH",
"281 -182 OFFCURVE",
"319 -202 OFFCURVE",
"345 -202 CURVE SMOOTH",
"369 -202 OFFCURVE",
"410 -186 OFFCURVE",
"410 -133 CURVE SMOOTH",
"410 -92 OFFCURVE",
"367 -36 OFFCURVE",
"354 44 CURVE"
);
},
{
closed = 1;
nodes = (
"313 375 OFFCURVE",
"287 348 OFFCURVE",
"287 315 CURVE SMOOTH",
"287 282 OFFCURVE",
"313 256 OFFCURVE",
"345 256 CURVE SMOOTH",
"379 256 OFFCURVE",
"405 282 OFFCURVE",
"405 315 CURVE SMOOTH",
"405 348 OFFCURVE",
"379 375 OFFCURVE",
"345 375 CURVE SMOOTH"
);
},
{
closed = 1;
nodes = (
"208 465 OFFCURVE",
"55 339 OFFCURVE",
"55 160 CURVE SMOOTH",
"55 33 OFFCURVE",
"117 -14 OFFCURVE",
"185 -14 CURVE SMOOTH",
"253 -14 OFFCURVE",
"321 43 OFFCURVE",
"344 126 CURVE",
"346 126 LINE",
"369 43 OFFCURVE",
"437 -14 OFFCURVE",
"505 -14 CURVE SMOOTH",
"572 -14 OFFCURVE",
"635 33 OFFCURVE",
"635 160 CURVE SMOOTH",
"635 339 OFFCURVE",
"482 465 OFFCURVE",
"345 465 CURVE"
);
},
{
closed = 1;
nodes = (
"477 441 OFFCURVE",
"584 300 OFFCURVE",
"584 192 CURVE SMOOTH",
"584 124 OFFCURVE",
"552 71 OFFCURVE",
"495 71 CURVE SMOOTH",
"429 71 OFFCURVE",
"364 145 OFFCURVE",
"350 221 CURVE SMOOTH",
"341 221 LINE",
"327 145 OFFCURVE",
"261 71 OFFCURVE",
"196 71 CURVE SMOOTH",
"138 71 OFFCURVE",
"106 124 OFFCURVE",
"106 192 CURVE SMOOTH",
"106 300 OFFCURVE",
"213 441 OFFCURVE",
"345 441 CURVE"
);
},
{
closed = 1;
nodes = (
"545 644 LINE",
"569 635 OFFCURVE",
"591 610 OFFCURVE",
"591 576 CURVE SMOOTH",
"591 536 OFFCURVE",
"560 509 OFFCURVE",
"499 509 CURVE SMOOTH",
"55 509 LINE",
"55 434 LINE",
"241 434 LINE",
"345 444 LINE",
"448 434 LINE",
"499 434 LINE SMOOTH",
"580 434 OFFCURVE",
"634 480 OFFCURVE",
"634 552 CURVE SMOOTH",
"634 607 OFFCURVE",
"603 648 OFFCURVE",
"560 664 CURVE"
);
}
);
width = 700;
}
);
leftMetricsKey = "=da-kannada";
rightMetricsKey = "=da-kannada";
unicode = 0CA5;
},
{
color = 3;
glyphname = knDA;
lastChange = "2015-12-04 12:59:52 +0000";
layers = (
{
guideLines = (
{
angle = 270;
position = "{55, -78}";
}
);
layerId = "034236B8-3FA8-43DA-9EDA-EFF269A687EC";
name = Regular;
paths = (
{
closed = 1;
nodes = (
"208 465 OFFCURVE",
"55 339 OFFCURVE",
"55 160 CURVE SMOOTH",
"55 33 OFFCURVE",
"117 -14 OFFCURVE",
"185 -14 CURVE SMOOTH",
"253 -14 OFFCURVE",
"321 43 OFFCURVE",
"344 126 CURVE",
"346 126 LINE",
"369 43 OFFCURVE",
"437 -14 OFFCURVE",
"505 -14 CURVE SMOOTH",
"572 -14 OFFCURVE",
"635 33 OFFCURVE",
"635 160 CURVE SMOOTH",
"635 339 OFFCURVE",
"482 465 OFFCURVE",
"345 465 CURVE"
);
},
{
closed = 1;
nodes = (
"477 441 OFFCURVE",
"584 300 OFFCURVE",
"584 192 CURVE SMOOTH",
"584 124 OFFCURVE",
"552 71 OFFCURVE",
"495 71 CURVE SMOOTH",
"429 71 OFFCURVE",
"364 145 OFFCURVE",
"350 221 CURVE SMOOTH",
"341 221 LINE",
"327 145 OFFCURVE",
"261 71 OFFCURVE",
"196 71 CURVE SMOOTH",
"138 71 OFFCURVE",
"106 124 OFFCURVE",
"106 192 CURVE SMOOTH",
"106 300 OFFCURVE",
"213 441 OFFCURVE",
"345 441 CURVE"
);
},
{
closed = 1;
nodes = (
"545 644 LINE",
"569 635 OFFCURVE",
"591 610 OFFCURVE",
"591 576 CURVE SMOOTH",
"591 536 OFFCURVE",
"560 509 OFFCURVE",
"499 509 CURVE SMOOTH",
"55 509 LINE",
"55 434 LINE",
"241 434 LINE",
"345 444 LINE",
"448 434 LINE",
"499 434 LINE SMOOTH",
"580 434 OFFCURVE",
"634 480 OFFCURVE",
"634 552 CURVE SMOOTH",
"634 607 OFFCURVE",
"603 648 OFFCURVE",
"560 664 CURVE"
);
}
);
width = 700;
}
);
unicode = 0CA6;
},
{
color = 3;
glyphname = knDHA;
lastChange = "2015-12-04 14:39:57 +0000";
layers = (
{
guideLines = (
{
angle = 270;
position = "{55, -78}";
}
);
layerId = "034236B8-3FA8-43DA-9EDA-EFF269A687EC";
leftMetricsKey = "=knDA";
rightMetricsKey = "=knDA";
name = Regular;
paths = (
{
closed = 1;
nodes = (
"336 44 LINE",
"325 -36 OFFCURVE",
"281 -92 OFFCURVE",
"281 -133 CURVE SMOOTH",
"281 -182 OFFCURVE",
"319 -202 OFFCURVE",
"345 -202 CURVE SMOOTH",
"369 -202 OFFCURVE",
"410 -186 OFFCURVE",
"410 -133 CURVE SMOOTH",
"410 -92 OFFCURVE",
"367 -36 OFFCURVE",
"354 44 CURVE"
);
},
{
closed = 1;
nodes = (
"208 465 OFFCURVE",
"55 339 OFFCURVE",
"55 160 CURVE SMOOTH",
"55 33 OFFCURVE",
"117 -14 OFFCURVE",
"185 -14 CURVE SMOOTH",
"253 -14 OFFCURVE",
"321 43 OFFCURVE",
"344 126 CURVE",
"346 126 LINE",
"369 43 OFFCURVE",
"437 -14 OFFCURVE",
"505 -14 CURVE SMOOTH",
"572 -14 OFFCURVE",
"635 33 OFFCURVE",
"635 160 CURVE SMOOTH",
"635 339 OFFCURVE",
"482 465 OFFCURVE",
"345 465 CURVE"
);
},
{
closed = 1;
nodes = (
"477 441 OFFCURVE",
"584 300 OFFCURVE",
"584 192 CURVE SMOOTH",
"584 124 OFFCURVE",
"552 71 OFFCURVE",
"495 71 CURVE SMOOTH",
"429 71 OFFCURVE",
"364 145 OFFCURVE",
"350 221 CURVE SMOOTH",
"341 221 LINE",
"327 145 OFFCURVE",
"261 71 OFFCURVE",
"196 71 CURVE SMOOTH",
"138 71 OFFCURVE",
"106 124 OFFCURVE",
"106 192 CURVE SMOOTH",
"106 300 OFFCURVE",
"213 441 OFFCURVE",
"345 441 CURVE"
);
},
{
closed = 1;
nodes = (
"545 644 LINE",
"569 635 OFFCURVE",
"591 610 OFFCURVE",
"591 576 CURVE SMOOTH",
"591 536 OFFCURVE",
"560 509 OFFCURVE",
"499 509 CURVE SMOOTH",
"55 509 LINE",
"55 434 LINE",
"241 434 LINE",
"345 444 LINE",
"448 434 LINE",
"499 434 LINE SMOOTH",
"580 434 OFFCURVE",
"634 480 OFFCURVE",
"634 552 CURVE SMOOTH",
"634 607 OFFCURVE",
"603 648 OFFCURVE",
"560 664 CURVE"
);
}
);
width = 700;
}
);
leftMetricsKey = "=da-kannada";
rightMetricsKey = "=da-kannada";
unicode = 0CA7;
},
{
color = 3;
glyphname = knNA;
lastChange = "2015-12-01 16:54:04 +0000";
layers = (
{
layerId = "034236B8-3FA8-43DA-9EDA-EFF269A687EC";
rightMetricsKey = "=knDA";
name = Regular;
paths = (
{
closed = 1;
nodes = (
"430 425 LINE SMOOTH",
"509 425 OFFCURVE",
"566 480 OFFCURVE",
"566 549 CURVE SMOOTH",
"566 594 OFFCURVE",
"543 636 OFFCURVE",
"491 663 CURVE",
"476 643 LINE",
"503 625 OFFCURVE",
"513 600 OFFCURVE",
"513 578 CURVE SMOOTH",
"513 537 OFFCURVE",
"482 508 OFFCURVE",
"430 508 CURVE SMOOTH",
"75 508 LINE",
"75 425 LINE",
"311 425 LINE",
"434 391 OFFCURVE",
"525 321 OFFCURVE",
"525 211 CURVE SMOOTH",
"525 146 OFFCURVE",
"489 93 OFFCURVE",
"441 93 CURVE SMOOTH",
"296 93 OFFCURVE",
"349 294 OFFCURVE",
"204 294 CURVE SMOOTH",
"133 294 OFFCURVE",
"75 225 OFFCURVE",
"75 140 CURVE SMOOTH",
"75 54 OFFCURVE",
"115 -23 OFFCURVE",
"181 -61 CURVE SMOOTH",
"204 -75 OFFCURVE",
"234 -66 OFFCURVE",
"234 -43 CURVE SMOOTH",
"234 -20 OFFCURVE",
"218 1 OFFCURVE",
"193 10 CURVE SMOOTH",
"142 27 OFFCURVE",
"110 65 OFFCURVE",
"110 104 CURVE SMOOTH",
"110 163 OFFCURVE",
"153 211 OFFCURVE",
"204 211 CURVE SMOOTH",
"362 211 OFFCURVE",
"275 -14 OFFCURVE",
"441 -14 CURVE SMOOTH",
"521 -14 OFFCURVE",
"584 72 OFFCURVE",
"584 176 CURVE SMOOTH",
"584 284 OFFCURVE",
"524 372 OFFCURVE",
"400 425 CURVE"
);
}
);
width = 649;
}
);
rightMetricsKey = "=da-kannada";
unicode = 0CA8;
},
{
color = 3;
glyphname = knPA;
lastChange = "2015-12-01 16:48:03 +0000";
layers = (
{
guideLines = (
{
angle = 270;
position = "{60, -78}";
}
);
layerId = "034236B8-3FA8-43DA-9EDA-EFF269A687EC";
name = Regular;
paths = (
{
closed = 1;
nodes = (
"598 -14 OFFCURVE",
"635 84 OFFCURVE",
"635 179 CURVE SMOOTH",
"635 271 OFFCURVE",
"613 392 OFFCURVE",
"561 392 CURVE SMOOTH",
"536 392 OFFCURVE",
"519 375 OFFCURVE",
"519 352 CURVE SMOOTH",
"519 304 OFFCURVE",
"597 339 OFFCURVE",
"597 202 CURVE SMOOTH",
"597 141 OFFCURVE",
"569 71 OFFCURVE",
"493 71 CURVE",
"428 71 OFFCURVE",
"363 145 OFFCURVE",
"349 221 CURVE",
"340 221 LINE",
"326 145 OFFCURVE",
"261 71 OFFCURVE",
"186 71 CURVE",
"135 71 OFFCURVE",
"103 114 OFFCURVE",
"103 156 CURVE SMOOTH",
"103 203 OFFCURVE",
"129 227 OFFCURVE",
"166 227 CURVE SMOOTH",
"196 227 OFFCURVE",
"221 217 OFFCURVE",
"232 193 CURVE",
"248 208 LINE",
"235 250 OFFCURVE",
"211 287 OFFCURVE",
"163 287 CURVE",
"103 287 OFFCURVE",
"60 232 OFFCURVE",
"60 143 CURVE SMOOTH",
"60 56 OFFCURVE",
"94 -14 OFFCURVE",
"183 -14 CURVE",
"251 -14 OFFCURVE",
"321 43 OFFCURVE",
"344 126 CURVE",
"346 126 LINE",
"369 43 OFFCURVE",
"438 -14 OFFCURVE",
"503 -14 CURVE"
);
},
{
closed = 1;
nodes = (
"567 644 LINE",
"591 635 OFFCURVE",
"613 610 OFFCURVE",
"613 576 CURVE SMOOTH",
"613 536 OFFCURVE",
"582 509 OFFCURVE",
"521 509 CURVE SMOOTH",
"60 509 LINE",
"60 434 LINE",
"521 434 LINE SMOOTH",
"602 434 OFFCURVE",
"656 480 OFFCURVE",
"656 552 CURVE SMOOTH",
"656 607 OFFCURVE",
"625 648 OFFCURVE",
"582 664 CURVE"
);
},
{
closed = 1;
nodes = (
"309 390 OFFCURVE",
"284 363 OFFCURVE",
"284 331 CURVE SMOOTH",
"284 298 OFFCURVE",
"309 271 OFFCURVE",
"343 271 CURVE SMOOTH",
"376 271 OFFCURVE",
"403 298 OFFCURVE",
"403 331 CURVE SMOOTH",
"403 363 OFFCURVE",
"376 390 OFFCURVE",
"343 390 CURVE SMOOTH"
);
}
);
width = 716;
}
);
unicode = 0CAA;
},
{
color = 3;
glyphname = knPHA;
lastChange = "2015-12-04 14:39:57 +0000";
layers = (
{
guideLines = (
{
angle = 270;
position = "{60, -78}";
}
);
layerId = "034236B8-3FA8-43DA-9EDA-EFF269A687EC";
leftMetricsKey = "=knPA";
rightMetricsKey = "=knPA";
name = Regular;
paths = (
{
closed = 1;
nodes = (
"598 -14 OFFCURVE",
"635 84 OFFCURVE",
"635 179 CURVE SMOOTH",
"635 271 OFFCURVE",
"613 392 OFFCURVE",
"561 392 CURVE SMOOTH",
"536 392 OFFCURVE",
"519 375 OFFCURVE",
"519 352 CURVE SMOOTH",
"519 304 OFFCURVE",
"597 339 OFFCURVE",
"597 202 CURVE SMOOTH",
"597 141 OFFCURVE",
"569 71 OFFCURVE",
"493 71 CURVE",
"428 71 OFFCURVE",
"363 145 OFFCURVE",
"349 221 CURVE",
"340 221 LINE",
"326 145 OFFCURVE",
"261 71 OFFCURVE",
"186 71 CURVE",
"135 71 OFFCURVE",
"103 114 OFFCURVE",
"103 156 CURVE SMOOTH",
"103 203 OFFCURVE",
"129 227 OFFCURVE",
"166 227 CURVE SMOOTH",
"196 227 OFFCURVE",
"221 217 OFFCURVE",
"232 193 CURVE",
"248 208 LINE",
"235 250 OFFCURVE",
"211 287 OFFCURVE",
"163 287 CURVE",
"103 287 OFFCURVE",
"60 232 OFFCURVE",
"60 143 CURVE SMOOTH",
"60 56 OFFCURVE",
"94 -14 OFFCURVE",
"183 -14 CURVE",
"251 -14 OFFCURVE",
"321 43 OFFCURVE",
"344 126 CURVE",
"346 126 LINE",
"369 43 OFFCURVE",
"438 -14 OFFCURVE",
"503 -14 CURVE"
);
},
{
closed = 1;
nodes = (
"567 644 LINE",
"591 635 OFFCURVE",
"613 610 OFFCURVE",
"613 576 CURVE SMOOTH",
"613 536 OFFCURVE",
"582 509 OFFCURVE",
"521 509 CURVE SMOOTH",
"60 509 LINE",
"60 434 LINE",
"521 434 LINE SMOOTH",
"602 434 OFFCURVE",
"656 480 OFFCURVE",
"656 552 CURVE SMOOTH",
"656 607 OFFCURVE",
"625 648 OFFCURVE",
"582 664 CURVE"
);
},
{
closed = 1;
nodes = (
"309 390 OFFCURVE",
"284 363 OFFCURVE",
"284 331 CURVE SMOOTH",
"284 298 OFFCURVE",
"309 271 OFFCURVE",
"343 271 CURVE SMOOTH",
"376 271 OFFCURVE",
"403 298 OFFCURVE",
"403 331 CURVE SMOOTH",
"403 363 OFFCURVE",
"376 390 OFFCURVE",
"343 390 CURVE SMOOTH"
);
},
{
closed = 1;
nodes = (
"408 -90 OFFCURVE",
"365 -34 OFFCURVE",
"353 46 CURVE",
"334 46 LINE",
"323 -34 OFFCURVE",
"279 -90 OFFCURVE",
"279 -131 CURVE SMOOTH",
"279 -180 OFFCURVE",
"317 -200 OFFCURVE",
"343 -200 CURVE",
"367 -200 OFFCURVE",
"408 -184 OFFCURVE",
"408 -131 CURVE SMOOTH"
);
}
);
width = 716;
}
);
leftMetricsKey = "=knPA";
rightMetricsKey = "=knPA";
unicode = 0CAB;
},
{
color = 3;
glyphname = knBA;
lastChange = "2015-12-01 16:51:20 +0000";
layers = (
{
background = {
paths = (
{
closed = 1;
nodes = (
"343 71 OFFCURVE",
"294 145 OFFCURVE",
"274 189 CURVE",
"250 139 LINE",
"262 82 OFFCURVE",
"337 -14 OFFCURVE",
"433 -14 CURVE",
"546 -14 OFFCURVE",
"626 115 OFFCURVE",
"626 242 CURVE",
"626 415 OFFCURVE",
"540 513 OFFCURVE",
"469 513 CURVE SMOOTH",
"438 513 OFFCURVE",
"421 493 OFFCURVE",
"421 470 CURVE SMOOTH",
"421 451 OFFCURVE",
"433 435 OFFCURVE",
"449 430 CURVE SMOOTH",
"472 423 OFFCURVE",
"493 428 OFFCURVE",
"517 420 CURVE SMOOTH",
"554 407 OFFCURVE",
"585 344 OFFCURVE",
"585 255 CURVE",
"585 159 OFFCURVE",
"515 71 OFFCURVE",
"433 71 CURVE"
);
}
);
};
layerId = "034236B8-3FA8-43DA-9EDA-EFF269A687EC";
name = Regular;
paths = (
{
closed = 1;
nodes = (
"434 71 OFFCURVE",
"368 146 OFFCURVE",
"355 221 CURVE",
"346 221 LINE",
"332 145 OFFCURVE",
"267 71 OFFCURVE",
"194 71 CURVE SMOOTH",
"141 71 OFFCURVE",
"114 104 OFFCURVE",
"114 146 CURVE SMOOTH",
"114 187 OFFCURVE",
"144 217 OFFCURVE",
"176 251 CURVE SMOOTH",
"216 292 OFFCURVE",
"261 338 OFFCURVE",
"261 397 CURVE SMOOTH",
"261 471 OFFCURVE",
"202 519 OFFCURVE",
"137 519 CURVE SMOOTH",
"79 519 OFFCURVE",
"20 483 OFFCURVE",
"20 414 CURVE SMOOTH",
"20 382 OFFCURVE",
"31 350 OFFCURVE",
"52 328 CURVE",
"83 348 LINE",
"75 363 OFFCURVE",
"72 375 OFFCURVE",
"72 386 CURVE SMOOTH",
"72 423 OFFCURVE",
"98 450 OFFCURVE",
"137 450 CURVE SMOOTH",
"174 450 OFFCURVE",
"208 425 OFFCURVE",
"208 383 CURVE SMOOTH",
"208 342 OFFCURVE",
"177 309 OFFCURVE",
"145 276 CURVE SMOOTH",
"106 236 OFFCURVE",
"63 193 OFFCURVE",
"63 125 CURVE SMOOTH",
"63 38 OFFCURVE",
"124 -14 OFFCURVE",
"191 -14 CURVE SMOOTH",
"259 -14 OFFCURVE",
"327 43 OFFCURVE",
"350 126 CURVE",
"352 126 LINE",
"375 43 OFFCURVE",
"443 -14 OFFCURVE",
"514 -14 CURVE SMOOTH",
"627 -14 OFFCURVE",
"667 115 OFFCURVE",
"667 242 CURVE SMOOTH",
"667 415 OFFCURVE",
"581 513 OFFCURVE",
"510 513 CURVE SMOOTH",
"479 513 OFFCURVE",
"462 493 OFFCURVE",
"462 470 CURVE SMOOTH",
"462 451 OFFCURVE",
"474 435 OFFCURVE",
"490 430 CURVE SMOOTH",
"513 423 OFFCURVE",
"534 428 OFFCURVE",
"558 420 CURVE SMOOTH",
"595 407 OFFCURVE",
"626 344 OFFCURVE",
"626 255 CURVE SMOOTH",
"626 159 OFFCURVE",
"589 71 OFFCURVE",
"507 71 CURVE SMOOTH"
);
}
);
width = 727;
}
);
unicode = 0CAC;
},
{
color = 3;
glyphname = knBHA;
lastChange = "2015-12-04 14:39:57 +0000";
layers = (
{
background = {
paths = (
{
closed = 0;
nodes = (
"532 434 LINE"
);
},
{
closed = 1;
nodes = (
"616 -14 OFFCURVE",
"670 84 OFFCURVE",
"670 171 CURVE SMOOTH",
"670 360 OFFCURVE",
"527 474 OFFCURVE",
"391 474 CURVE",
"381 434 LINE",
"533 424 OFFCURVE",
"630 301 OFFCURVE",
"630 203 CURVE SMOOTH",
"630 121 OFFCURVE",
"583 71 OFFCURVE",
"507 71 CURVE",
"434 71 OFFCURVE",
"368 146 OFFCURVE",
"355 221 CURVE",
"346 221 LINE",
"332 145 OFFCURVE",
"267 71 OFFCURVE",
"194 71 CURVE SMOOTH",
"141 71 OFFCURVE",
"114 114 OFFCURVE",
"114 156 CURVE",
"114 187 OFFCURVE",
"144 217 OFFCURVE",
"176 251 CURVE SMOOTH",
"216 292 OFFCURVE",
"261 338 OFFCURVE",
"261 397 CURVE SMOOTH",
"261 471 OFFCURVE",
"202 519 OFFCURVE",
"137 519 CURVE SMOOTH",
"79 519 OFFCURVE",
"20 483 OFFCURVE",
"20 414 CURVE SMOOTH",
"20 382 OFFCURVE",
"31 350 OFFCURVE",
"52 328 CURVE",
"83 348 LINE",
"75 363 OFFCURVE",
"72 375 OFFCURVE",
"72 386 CURVE SMOOTH",
"72 423 OFFCURVE",
"98 450 OFFCURVE",
"137 450 CURVE SMOOTH",
"174 450 OFFCURVE",
"208 425 OFFCURVE",
"208 383 CURVE SMOOTH",
"208 342 OFFCURVE",
"177 309 OFFCURVE",
"145 276 CURVE SMOOTH",
"106 236 OFFCURVE",
"63 193 OFFCURVE",
"63 125 CURVE",
"63 38 OFFCURVE",
"124 -14 OFFCURVE",
"191 -14 CURVE SMOOTH",
"259 -14 OFFCURVE",
"327 43 OFFCURVE",
"350 126 CURVE",
"352 126 LINE",
"375 43 OFFCURVE",
"443 -14 OFFCURVE",
"514 -14 CURVE"
);
}
);
};
layerId = "034236B8-3FA8-43DA-9EDA-EFF269A687EC";
leftMetricsKey = "=knBA";
rightMetricsKey = "=knBA";
name = Regular;
paths = (
{
closed = 1;
nodes = (
"416 -90 OFFCURVE",
"373 -34 OFFCURVE",
"361 46 CURVE",
"342 46 LINE",
"331 -34 OFFCURVE",
"287 -90 OFFCURVE",
"287 -131 CURVE SMOOTH",
"287 -180 OFFCURVE",
"325 -200 OFFCURVE",
"351 -200 CURVE",
"375 -200 OFFCURVE",
"416 -184 OFFCURVE",
"416 -131 CURVE SMOOTH"
);
},
{
closed = 1;
nodes = (
"581 644 LINE",
"605 635 OFFCURVE",
"627 610 OFFCURVE",
"627 576 CURVE SMOOTH",
"627 536 OFFCURVE",
"596 509 OFFCURVE",
"535 509 CURVE SMOOTH",
"344 509 LINE",
"344 434 LINE",
"535 434 LINE SMOOTH",
"616 434 OFFCURVE",
"670 480 OFFCURVE",
"670 552 CURVE SMOOTH",
"670 607 OFFCURVE",
"639 648 OFFCURVE",
"596 664 CURVE"
);
},
{
closed = 0;
nodes = (
"532 434 LINE"
);
},
{
closed = 1;
nodes = (
"616 -14 OFFCURVE",
"670 84 OFFCURVE",
"670 171 CURVE SMOOTH",
"670 360 OFFCURVE",
"527 474 OFFCURVE",
"391 474 CURVE",
"381 434 LINE",
"533 424 OFFCURVE",
"630 301 OFFCURVE",
"630 203 CURVE SMOOTH",
"630 121 OFFCURVE",
"583 71 OFFCURVE",
"507 71 CURVE",
"434 71 OFFCURVE",
"368 146 OFFCURVE",
"355 221 CURVE",
"346 221 LINE",
"332 145 OFFCURVE",
"267 71 OFFCURVE",
"194 71 CURVE SMOOTH",
"141 71 OFFCURVE",
"114 104 OFFCURVE",
"114 146 CURVE",
"114 187 OFFCURVE",
"144 217 OFFCURVE",
"176 251 CURVE SMOOTH",
"216 292 OFFCURVE",
"261 338 OFFCURVE",
"261 397 CURVE SMOOTH",
"261 471 OFFCURVE",
"202 519 OFFCURVE",
"137 519 CURVE SMOOTH",
"79 519 OFFCURVE",
"20 483 OFFCURVE",
"20 414 CURVE SMOOTH",
"20 382 OFFCURVE",
"31 350 OFFCURVE",
"52 328 CURVE",
"83 348 LINE",
"75 363 OFFCURVE",
"72 375 OFFCURVE",
"72 386 CURVE SMOOTH",
"72 423 OFFCURVE",
"98 450 OFFCURVE",
"137 450 CURVE SMOOTH",
"174 450 OFFCURVE",
"208 425 OFFCURVE",
"208 383 CURVE SMOOTH",
"208 342 OFFCURVE",
"177 309 OFFCURVE",
"145 276 CURVE SMOOTH",
"106 236 OFFCURVE",
"63 193 OFFCURVE",
"63 125 CURVE",
"63 38 OFFCURVE",
"124 -14 OFFCURVE",
"191 -14 CURVE SMOOTH",
"259 -14 OFFCURVE",
"327 43 OFFCURVE",
"350 126 CURVE",
"352 126 LINE",
"375 43 OFFCURVE",
"443 -14 OFFCURVE",
"514 -14 CURVE"
);
}
);
width = 730;
}
);
leftMetricsKey = "=ba-kannada";
rightMetricsKey = "=ba-kannada";
unicode = 0CAD;
},
{
color = 3;
glyphname = knMA;
lastChange = "2015-12-04 14:39:57 +0000";
layers = (
{
background = {
paths = (
{
closed = 1;
nodes = (
"345 425 LINE",
"477 425 OFFCURVE",
"584 302 OFFCURVE",
"584 194 CURVE SMOOTH",
"584 126 OFFCURVE",
"552 93 OFFCURVE",
"495 93 CURVE SMOOTH",
"429 93 OFFCURVE",
"368 148 OFFCURVE",
"356 223 CURVE",
"346 223 LINE",
"333 147 OFFCURVE",
"267 93 OFFCURVE",
"192 93 CURVE",
"130 93 OFFCURVE",
"101 126 OFFCURVE",
"101 166 CURVE SMOOTH",
"101 203 OFFCURVE",
"127 227 OFFCURVE",
"164 227 CURVE SMOOTH",
"193 227 OFFCURVE",
"220 217 OFFCURVE",
"230 193 CURVE",
"246 208 LINE",
"234 250 OFFCURVE",
"208 287 OFFCURVE",
"160 287 CURVE",
"100 287 OFFCURVE",
"59 232 OFFCURVE",
"59 143 CURVE SMOOTH",
"59 56 OFFCURVE",
"103 -14 OFFCURVE",
"187 -14 CURVE",
"258 -14 OFFCURVE",
"327 45 OFFCURVE",
"350 128 CURVE",
"352 128 LINE",
"375 45 OFFCURVE",
"443 -14 OFFCURVE",
"508 -14 CURVE SMOOTH",
"572 -14 OFFCURVE",
"635 35 OFFCURVE",
"635 162 CURVE SMOOTH",
"635 341 OFFCURVE",
"482 465 OFFCURVE",
"345 465 CURVE"
);
},
{
closed = 1;
nodes = (
"542 643 LINE",
"569 625 OFFCURVE",
"579 600 OFFCURVE",
"579 578 CURVE SMOOTH",
"579 537 OFFCURVE",
"548 508 OFFCURVE",
"496 508 CURVE SMOOTH",
"58 508 LINE",
"58 425 LINE",
"241 425 LINE",
"344 425 LINE",
"448 425 LINE",
"496 425 LINE",
"575 425 OFFCURVE",
"632 480 OFFCURVE",
"632 549 CURVE SMOOTH",
"632 594 OFFCURVE",
"609 636 OFFCURVE",
"557 663 CURVE"
);
},
{
closed = 1;
nodes = (
"643 45 OFFCURVE",
"711 -14 OFFCURVE",
"783 -14 CURVE SMOOTH",
"889 -14 OFFCURVE",
"954 78 OFFCURVE",
"954 224 CURVE SMOOTH",
"954 392 OFFCURVE",
"840 514 OFFCURVE",
"753 514 CURVE SMOOTH",
"718 514 OFFCURVE",
"698 494 OFFCURVE",
"698 471 CURVE SMOOTH",
"698 454 OFFCURVE",
"709 439 OFFCURVE",
"722 432 CURVE SMOOTH",
"737 424 OFFCURVE",
"760 427 OFFCURVE",
"793 422 CURVE SMOOTH",
"865 409 OFFCURVE",
"912 339 OFFCURVE",
"912 237 CURVE SMOOTH",
"912 168 OFFCURVE",
"873 93 OFFCURVE",
"772 93 CURVE SMOOTH",
"703 93 OFFCURVE",
"636 148 OFFCURVE",
"623 223 CURVE",
"620 128 LINE"
);
}
);
};
layerId = "034236B8-3FA8-43DA-9EDA-EFF269A687EC";
leftMetricsKey = "=knSSA";
rightMetricsKey = "=knBA";
name = Regular;
paths = (
{
closed = 1;
nodes = (
"541 644 LINE",
"565 635 OFFCURVE",
"587 610 OFFCURVE",
"587 576 CURVE SMOOTH",
"587 536 OFFCURVE",
"556 509 OFFCURVE",
"495 509 CURVE SMOOTH",
"60 509 LINE",
"60 434 LINE",
"495 434 LINE SMOOTH",
"576 434 OFFCURVE",
"630 480 OFFCURVE",
"630 552 CURVE SMOOTH",
"630 607 OFFCURVE",
"599 648 OFFCURVE",
"556 664 CURVE"
);
},
{
closed = 1;
nodes = (
"428 71 OFFCURVE",
"363 145 OFFCURVE",
"349 221 CURVE",
"340 221 LINE",
"326 145 OFFCURVE",
"261 71 OFFCURVE",
"186 71 CURVE",
"135 71 OFFCURVE",
"103 114 OFFCURVE",
"103 156 CURVE SMOOTH",
"103 203 OFFCURVE",
"129 227 OFFCURVE",
"166 227 CURVE SMOOTH",
"196 227 OFFCURVE",
"221 217 OFFCURVE",
"232 193 CURVE",
"248 208 LINE",
"235 250 OFFCURVE",
"211 287 OFFCURVE",
"163 287 CURVE",
"103 287 OFFCURVE",
"60 232 OFFCURVE",
"60 143 CURVE SMOOTH",
"60 56 OFFCURVE",
"94 -14 OFFCURVE",
"183 -14 CURVE",
"251 -14 OFFCURVE",
"321 43 OFFCURVE",
"344 126 CURVE",
"346 126 LINE",
"369 43 OFFCURVE",
"438 -14 OFFCURVE",
"503 -14 CURVE SMOOTH",
"598 -14 OFFCURVE",
"636 84 OFFCURVE",
"636 171 CURVE SMOOTH",
"636 360 OFFCURVE",
"493 474 OFFCURVE",
"357 474 CURVE",
"347 434 LINE",
"499 424 OFFCURVE",
"596 301 OFFCURVE",
"596 193 CURVE SMOOTH",
"596 121 OFFCURVE",
"559 71 OFFCURVE",
"493 71 CURVE SMOOTH"
);
},
{
closed = 1;
nodes = (
"698 71 OFFCURVE",
"649 145 OFFCURVE",
"629 189 CURVE",
"605 139 LINE",
"617 82 OFFCURVE",
"692 -14 OFFCURVE",
"788 -14 CURVE",
"901 -14 OFFCURVE",
"981 115 OFFCURVE",
"981 242 CURVE",
"981 415 OFFCURVE",
"895 513 OFFCURVE",
"824 513 CURVE SMOOTH",
"793 513 OFFCURVE",
"776 493 OFFCURVE",
"776 470 CURVE SMOOTH",
"776 451 OFFCURVE",
"788 435 OFFCURVE",
"804 430 CURVE SMOOTH",
"827 423 OFFCURVE",
"848 428 OFFCURVE",
"872 420 CURVE SMOOTH",
"909 407 OFFCURVE",
"940 344 OFFCURVE",
"940 255 CURVE",
"940 159 OFFCURVE",
"870 71 OFFCURVE",
"788 71 CURVE"
);
}
);
width = 1041;
}
);
leftMetricsKey = "ssa-kannada";
rightMetricsKey = "ba-kannada";
unicode = 0CAE;
},
{
color = 3;
glyphname = knYA;
lastChange = "2015-12-04 15:37:47 +0000";
layers = (
{
background = {
paths = (
{
closed = 1;
nodes = (
"244 461 OFFCURVE",
"207 453 OFFCURVE",
"175 436 CURVE SMOOTH",
"101 398 OFFCURVE",
"55 315 OFFCURVE",
"55 226 CURVE SMOOTH",
"55 86 OFFCURVE",
"157 -14 OFFCURVE",
"285 -14 CURVE",
"413 -14 OFFCURVE",
"515 86 OFFCURVE",
"515 226 CURVE SMOOTH",
"515 315 OFFCURVE",
"469 398 OFFCURVE",
"395 436 CURVE SMOOTH",
"363 453 OFFCURVE",
"326 461 OFFCURVE",
"285 461 CURVE"
);
},
{
closed = 1;
nodes = (
"386 433 OFFCURVE",
"463 360 OFFCURVE",
"463 261 CURVE SMOOTH",
"463 161 OFFCURVE",
"396 71 OFFCURVE",
"285 71 CURVE",
"174 71 OFFCURVE",
"107 161 OFFCURVE",
"107 261 CURVE SMOOTH",
"107 360 OFFCURVE",
"184 433 OFFCURVE",
"285 433 CURVE"
);
}
);
};
layerId = "034236B8-3FA8-43DA-9EDA-EFF269A687EC";
leftMetricsKey = "=knRA";
rightMetricsKey = "=knJHA";
name = Regular;
paths = (
{
closed = 1;
nodes = (
"836 392 OFFCURVE",
"722 509 OFFCURVE",
"636 509 CURVE SMOOTH",
"600 509 OFFCURVE",
"581 496 OFFCURVE",
"581 473 CURVE SMOOTH",
"581 450 OFFCURVE",
"592 434 OFFCURVE",
"622 434 CURVE",
"721 434 OFFCURVE",
"794 338 OFFCURVE",
"794 257 CURVE SMOOTH",
"794 158 OFFCURVE",
"725 71 OFFCURVE",
"640 71 CURVE",
"553 71 OFFCURVE",
"504 145 OFFCURVE",
"484 189 CURVE",
"460 139 LINE",
"472 82 OFFCURVE",
"547 -14 OFFCURVE",
"652 -14 CURVE",
"777 -14 OFFCURVE",
"836 109 OFFCURVE",
"836 245 CURVE SMOOTH"
);
},
{
closed = 1;
nodes = (
"146 519 OFFCURVE",
"55 402 OFFCURVE",
"55 250 CURVE SMOOTH",
"55 99 OFFCURVE",
"146 -14 OFFCURVE",
"285 -14 CURVE",
"424 -14 OFFCURVE",
"515 99 OFFCURVE",
"515 250 CURVE SMOOTH",
"515 402 OFFCURVE",
"424 519 OFFCURVE",
"285 519 CURVE SMOOTH"
);
},
{
closed = 1;
nodes = (
"386 434 OFFCURVE",
"473 371 OFFCURVE",
"473 256 CURVE SMOOTH",
"473 146 OFFCURVE",
"386 70 OFFCURVE",
"285 70 CURVE",
"184 70 OFFCURVE",
"99 146 OFFCURVE",
"99 261 CURVE SMOOTH",
"99 371 OFFCURVE",
"184 434 OFFCURVE",
"285 434 CURVE SMOOTH"
);
},
{
closed = 1;
nodes = (
"778 644 LINE",
"802 635 OFFCURVE",
"824 610 OFFCURVE",
"824 576 CURVE SMOOTH",
"824 536 OFFCURVE",
"793 509 OFFCURVE",
"732 509 CURVE SMOOTH",
"540 509 LINE",
"540 434 LINE",
"732 434 LINE SMOOTH",
"813 434 OFFCURVE",
"867 480 OFFCURVE",
"867 552 CURVE SMOOTH",
"867 607 OFFCURVE",
"836 648 OFFCURVE",
"793 664 CURVE"
);
},
{
closed = 1;
nodes = (
"893 71 OFFCURVE",
"844 145 OFFCURVE",
"824 189 CURVE",
"800 139 LINE",
"812 82 OFFCURVE",
"887 -14 OFFCURVE",
"983 -14 CURVE",
"1096 -14 OFFCURVE",
"1176 115 OFFCURVE",
"1176 242 CURVE",
"1176 415 OFFCURVE",
"1090 513 OFFCURVE",
"1019 513 CURVE SMOOTH",
"988 513 OFFCURVE",
"971 493 OFFCURVE",
"971 470 CURVE SMOOTH",
"971 451 OFFCURVE",
"983 435 OFFCURVE",
"999 430 CURVE SMOOTH",
"1022 423 OFFCURVE",
"1043 428 OFFCURVE",
"1067 420 CURVE SMOOTH",
"1104 407 OFFCURVE",
"1135 344 OFFCURVE",
"1135 255 CURVE",
"1135 159 OFFCURVE",
"1065 71 OFFCURVE",
"983 71 CURVE"
);
}
);
width = 1231;
}
);
leftMetricsKey = "jha-kannada";
rightMetricsKey = "jha-kannada";
unicode = 0CAF;
},
{
color = 3;
glyphname = knRA;
lastChange = "2015-12-01 16:14:47 +0000";
layers = (
{
layerId = "034236B8-3FA8-43DA-9EDA-EFF269A687EC";
leftMetricsKey = "=knDA";
rightMetricsKey = "=knDA";
name = Regular;
paths = (
{
closed = 1;
nodes = (
"244 461 OFFCURVE",
"207 453 OFFCURVE",
"175 436 CURVE SMOOTH",
"101 398 OFFCURVE",
"55 315 OFFCURVE",
"55 226 CURVE SMOOTH",
"55 86 OFFCURVE",
"157 -14 OFFCURVE",
"285 -14 CURVE",
"413 -14 OFFCURVE",
"515 86 OFFCURVE",
"515 226 CURVE SMOOTH",
"515 315 OFFCURVE",
"469 398 OFFCURVE",
"395 436 CURVE SMOOTH",
"363 453 OFFCURVE",
"326 461 OFFCURVE",
"285 461 CURVE"
);
},
{
closed = 1;
nodes = (
"386 433 OFFCURVE",
"463 360 OFFCURVE",
"463 261 CURVE SMOOTH",
"463 161 OFFCURVE",
"396 71 OFFCURVE",
"285 71 CURVE",
"174 71 OFFCURVE",
"107 161 OFFCURVE",
"107 261 CURVE SMOOTH",
"107 360 OFFCURVE",
"184 433 OFFCURVE",
"285 433 CURVE"
);
},
{
closed = 1;
nodes = (
"426 644 LINE",
"450 635 OFFCURVE",
"472 610 OFFCURVE",
"472 576 CURVE SMOOTH",
"472 536 OFFCURVE",
"441 509 OFFCURVE",
"380 509 CURVE SMOOTH",
"55 509 LINE",
"55 434 LINE",
"218 434 LINE",
"284 451 LINE",
"348 434 LINE",
"380 434 LINE SMOOTH",
"461 434 OFFCURVE",
"515 480 OFFCURVE",
"515 552 CURVE SMOOTH",
"515 607 OFFCURVE",
"484 648 OFFCURVE",
"441 664 CURVE"
);
}
);
width = 580;
}
);
leftMetricsKey = "=da-kannada";
rightMetricsKey = "=da-kannada";
unicode = 0CB0;
},
{
color = 3;
glyphname = knLA;
lastChange = "2015-12-01 16:56:41 +0000";
layers = (
{
background = {
paths = (
{
closed = 0;
nodes = (
"636 283 LINE"
);
},
{
closed = 0;
nodes = (
"595 293 LINE"
);
}
);
};
layerId = "034236B8-3FA8-43DA-9EDA-EFF269A687EC";
leftMetricsKey = "=knDA";
rightMetricsKey = "=|knCHA";
name = Regular;
paths = (
{
closed = 1;
nodes = (
"55 103 OFFCURVE",
"172 -14 OFFCURVE",
"344 -14 CURVE",
"515 -14 OFFCURVE",
"636 126 OFFCURVE",
"636 283 CURVE",
"636 416 OFFCURVE",
"551 514 OFFCURVE",
"487 514 CURVE SMOOTH",
"452 514 OFFCURVE",
"432 494 OFFCURVE",
"432 471 CURVE SMOOTH",
"432 452 OFFCURVE",
"444 436 OFFCURVE",
"460 431 CURVE SMOOTH",
"483 424 OFFCURVE",
"504 429 OFFCURVE",
"528 421 CURVE SMOOTH",
"565 408 OFFCURVE",
"595 365 OFFCURVE",
"595 293 CURVE",
"595 167 OFFCURVE",
"483 71 OFFCURVE",
"342 71 CURVE",
"203 71 OFFCURVE",
"96 158 OFFCURVE",
"96 273 CURVE",
"96 341 OFFCURVE",
"113 392 OFFCURVE",
"146 425 CURVE",
"144 414 OFFCURVE",
"143 401 OFFCURVE",
"143 389 CURVE SMOOTH",
"143 316 OFFCURVE",
"184 281 OFFCURVE",
"233 281 CURVE SMOOTH",
"286 281 OFFCURVE",
"318 333 OFFCURVE",
"318 399 CURVE SMOOTH",
"318 465 OFFCURVE",
"291 517 OFFCURVE",
"221 517 CURVE SMOOTH",
"128 517 OFFCURVE",
"55 397 OFFCURVE",
"55 273 CURVE"
);
},
{
closed = 1;
nodes = (
"288 373 OFFCURVE",
"269 352 OFFCURVE",
"233 352 CURVE SMOOTH",
"200 352 OFFCURVE",
"173 370 OFFCURVE",
"173 416 CURVE SMOOTH",
"173 427 OFFCURVE",
"174 438 OFFCURVE",
"176 448 CURVE",
"188 453 OFFCURVE",
"202 457 OFFCURVE",
"215 457 CURVE SMOOTH",
"264 457 OFFCURVE",
"288 438 OFFCURVE",
"288 399 CURVE SMOOTH"
);
}
);
width = 691;
}
);
leftMetricsKey = "=knDA";
rightMetricsKey = "=|knCHA";
unicode = 0CB2;
},
{
color = 3;
glyphname = knVA;
lastChange = "2015-12-04 14:39:57 +0000";
layers = (
{
background = {
paths = (
{
closed = 0;
nodes = (
"493 71 LINE",
"428 71 OFFCURVE",
"363 145 OFFCURVE",
"349 221 CURVE",
"340 221 LINE",
"326 145 OFFCURVE",
"261 71 OFFCURVE",
"186 71 CURVE",
"135 71 OFFCURVE",
"103 114 OFFCURVE",
"103 156 CURVE SMOOTH",
"103 203 OFFCURVE",
"129 227 OFFCURVE",
"166 227 CURVE SMOOTH",
"196 227 OFFCURVE",
"221 217 OFFCURVE",
"232 193 CURVE",
"248 208 LINE",
"235 250 OFFCURVE",
"211 287 OFFCURVE",
"163 287 CURVE",
"103 287 OFFCURVE",
"60 232 OFFCURVE",
"60 143 CURVE SMOOTH",
"60 56 OFFCURVE",
"94 -14 OFFCURVE",
"183 -14 CURVE",
"251 -14 OFFCURVE",
"321 43 OFFCURVE",
"344 126 CURVE",
"346 126 LINE",
"369 43 OFFCURVE",
"438 -14 OFFCURVE",
"503 -14 CURVE"
);
},
{
closed = 0;
nodes = (
"503 -14 LINE",
"598 -14 OFFCURVE",
"635 84 OFFCURVE",
"635 179 CURVE SMOOTH",
"635 271 OFFCURVE",
"613 392 OFFCURVE",
"561 392 CURVE SMOOTH",
"536 392 OFFCURVE",
"519 375 OFFCURVE",
"519 352 CURVE SMOOTH",
"519 304 OFFCURVE",
"597 339 OFFCURVE",
"597 202 CURVE SMOOTH",
"597 141 OFFCURVE",
"569 71 OFFCURVE",
"493 71 CURVE"
);
},
{
closed = 0;
nodes = (
"493 71 LINE",
"428 71 OFFCURVE",
"363 145 OFFCURVE",
"349 221 CURVE",
"340 221 LINE",
"326 145 OFFCURVE",
"261 71 OFFCURVE",
"186 71 CURVE",
"135 71 OFFCURVE",
"103 114 OFFCURVE",
"103 156 CURVE SMOOTH",
"103 203 OFFCURVE",
"129 227 OFFCURVE",
"166 227 CURVE SMOOTH",
"196 227 OFFCURVE",
"221 217 OFFCURVE",
"232 193 CURVE",
"248 208 LINE",
"235 250 OFFCURVE",
"211 287 OFFCURVE",
"163 287 CURVE",
"103 287 OFFCURVE",
"60 232 OFFCURVE",
"60 143 CURVE SMOOTH",
"60 56 OFFCURVE",
"94 -14 OFFCURVE",
"183 -14 CURVE",
"251 -14 OFFCURVE",
"321 43 OFFCURVE",
"344 126 CURVE",
"346 126 LINE",
"369 43 OFFCURVE",
"438 -14 OFFCURVE",
"503 -14 CURVE"
);
}
);
};
guideLines = (
{
angle = 270;
position = "{60, -78}";
}
);
layerId = "034236B8-3FA8-43DA-9EDA-EFF269A687EC";
leftMetricsKey = "=knSSA";
rightMetricsKey = "=knDA";
name = Regular;
paths = (
{
closed = 1;
nodes = (
"541 644 LINE",
"565 635 OFFCURVE",
"587 610 OFFCURVE",
"587 576 CURVE SMOOTH",
"587 536 OFFCURVE",
"556 509 OFFCURVE",
"495 509 CURVE SMOOTH",
"60 509 LINE",
"60 434 LINE",
"495 434 LINE SMOOTH",
"576 434 OFFCURVE",
"630 480 OFFCURVE",
"630 552 CURVE SMOOTH",
"630 607 OFFCURVE",
"599 648 OFFCURVE",
"556 664 CURVE"
);
},
{
closed = 1;
nodes = (
"428 71 OFFCURVE",
"363 145 OFFCURVE",
"349 221 CURVE",
"340 221 LINE",
"326 145 OFFCURVE",
"261 71 OFFCURVE",
"186 71 CURVE",
"135 71 OFFCURVE",
"103 114 OFFCURVE",
"103 156 CURVE SMOOTH",
"103 203 OFFCURVE",
"129 227 OFFCURVE",
"166 227 CURVE SMOOTH",
"196 227 OFFCURVE",
"221 217 OFFCURVE",
"232 193 CURVE",
"248 208 LINE",
"235 250 OFFCURVE",
"211 287 OFFCURVE",
"163 287 CURVE",
"103 287 OFFCURVE",
"60 232 OFFCURVE",
"60 143 CURVE SMOOTH",
"60 56 OFFCURVE",
"94 -14 OFFCURVE",
"183 -14 CURVE",
"251 -14 OFFCURVE",
"321 43 OFFCURVE",
"344 126 CURVE",
"346 126 LINE",
"369 43 OFFCURVE",
"438 -14 OFFCURVE",
"503 -14 CURVE SMOOTH",
"598 -14 OFFCURVE",
"636 84 OFFCURVE",
"636 171 CURVE SMOOTH",
"636 360 OFFCURVE",
"493 474 OFFCURVE",
"357 474 CURVE",
"347 434 LINE",
"499 424 OFFCURVE",
"596 301 OFFCURVE",
"596 193 CURVE SMOOTH",
"596 121 OFFCURVE",
"559 71 OFFCURVE",
"493 71 CURVE SMOOTH"
);
}
);
width = 701;
}
);
leftMetricsKey = "ssa-kannada";
rightMetricsKey = "da-kannada";
unicode = 0CB5;
},
{
color = 3;
glyphname = knSHA;
lastChange = "2015-12-01 17:00:11 +0000";
layers = (
{
layerId = "034236B8-3FA8-43DA-9EDA-EFF269A687EC";
name = Regular;
paths = (
{
closed = 1;
nodes = (
"175 461 OFFCURVE",
"124 426 OFFCURVE",
"124 377 CURVE SMOOTH",
"124 342 OFFCURVE",
"148 309 OFFCURVE",
"196 309 CURVE SMOOTH",
"230 309 OFFCURVE",
"248 331 OFFCURVE",
"248 353 CURVE",
"248 375 OFFCURVE",
"232 393 OFFCURVE",
"210 393 CURVE",
"190 393 OFFCURVE",
"176 376 OFFCURVE",
"176 354 CURVE SMOOTH",
"176 351 OFFCURVE",
"175 347 OFFCURVE",
"171 347 CURVE",
"162 347 OFFCURVE",
"159 366 OFFCURVE",
"159 378 CURVE",
"159 408 OFFCURVE",
"188 439 OFFCURVE",
"231 439 CURVE",
"274 439 OFFCURVE",
"311 399 OFFCURVE",
"311 346 CURVE SMOOTH",
"311 291 OFFCURVE",
"277 268 OFFCURVE",
"226 268 CURVE",
"209 268 OFFCURVE",
"171 268 OFFCURVE",
"157 268 CURVE SMOOTH",
"84 268 OFFCURVE",
"40 224 OFFCURVE",
"40 165 CURVE",
"40 75 OFFCURVE",
"114 -14 OFFCURVE",
"260 -14 CURVE SMOOTH",
"390 -14 OFFCURVE",
"501 90 OFFCURVE",
"501 236 CURVE SMOOTH",
"501 379 OFFCURVE",
"391 461 OFFCURVE",
"268 462 CURVE SMOOTH"
);
},
{
closed = 1;
nodes = (
"354 434 OFFCURVE",
"439 373 OFFCURVE",
"439 263 CURVE",
"439 138 OFFCURVE",
"372 71 OFFCURVE",
"241 71 CURVE SMOOTH",
"131 71 OFFCURVE",
"79 116 OFFCURVE",
"79 169 CURVE SMOOTH",
"79 203 OFFCURVE",
"104 226 OFFCURVE",
"153 226 CURVE",
"229 226 LINE",
"304 226 OFFCURVE",
"349 277 OFFCURVE",
"349 342 CURVE",
"349 396 OFFCURVE",
"315 429 OFFCURVE",
"283 439 CURVE"
);
},
{
closed = 1;
nodes = (
"431 644 LINE",
"455 635 OFFCURVE",
"477 610 OFFCURVE",
"477 576 CURVE SMOOTH",
"477 536 OFFCURVE",
"446 509 OFFCURVE",
"385 509 CURVE SMOOTH",
"40 509 LINE",
"40 434 LINE",
"176 434 LINE",
"277 459 LINE",
"385 434 LINE",
"466 434 OFFCURVE",
"520 480 OFFCURVE",
"520 552 CURVE SMOOTH",
"520 607 OFFCURVE",
"489 648 OFFCURVE",
"446 664 CURVE"
);
}
);
width = 560;
}
);
unicode = 0CB6;
},
{
color = 3;
glyphname = knSSA;
lastChange = "2015-12-04 17:06:30 +0000";
layers = (
{
background = {
paths = (
{
closed = 1;
nodes = (
"744 0 OFFCURVE",
"778 34 OFFCURVE",
"778 77 CURVE SMOOTH",
"778 120 OFFCURVE",
"744 154 OFFCURVE",
"701 154 CURVE SMOOTH",
"658 154 OFFCURVE",
"624 120 OFFCURVE",
"624 77 CURVE SMOOTH",
"624 34 OFFCURVE",
"658 0 OFFCURVE",
"701 0 CURVE SMOOTH"
);
}
);
};
layerId = "034236B8-3FA8-43DA-9EDA-EFF269A687EC";
leftMetricsKey = "=knPA";
rightMetricsKey = "=knPA-60";
name = Regular;
paths = (
{
closed = 1;
nodes = (
"598 -14 OFFCURVE",
"635 84 OFFCURVE",
"635 179 CURVE SMOOTH",
"635 271 OFFCURVE",
"613 392 OFFCURVE",
"561 392 CURVE SMOOTH",
"536 392 OFFCURVE",
"519 375 OFFCURVE",
"519 352 CURVE SMOOTH",
"519 304 OFFCURVE",
"597 339 OFFCURVE",
"597 202 CURVE SMOOTH",
"597 141 OFFCURVE",
"569 71 OFFCURVE",
"493 71 CURVE",
"428 71 OFFCURVE",
"363 145 OFFCURVE",
"349 221 CURVE",
"340 221 LINE",
"326 145 OFFCURVE",
"261 71 OFFCURVE",
"186 71 CURVE",
"135 71 OFFCURVE",
"103 114 OFFCURVE",
"103 156 CURVE SMOOTH",
"103 203 OFFCURVE",
"129 227 OFFCURVE",
"166 227 CURVE SMOOTH",
"196 227 OFFCURVE",
"221 217 OFFCURVE",
"232 193 CURVE",
"248 208 LINE",
"235 250 OFFCURVE",
"211 287 OFFCURVE",
"163 287 CURVE",
"103 287 OFFCURVE",
"60 232 OFFCURVE",
"60 143 CURVE SMOOTH",
"60 56 OFFCURVE",
"94 -14 OFFCURVE",
"183 -14 CURVE",
"251 -14 OFFCURVE",
"321 43 OFFCURVE",
"344 126 CURVE",
"346 126 LINE",
"369 43 OFFCURVE",
"438 -14 OFFCURVE",
"503 -14 CURVE"
);
},
{
closed = 1;
nodes = (
"567 644 LINE",
"591 635 OFFCURVE",
"613 610 OFFCURVE",
"613 576 CURVE SMOOTH",
"613 536 OFFCURVE",
"582 509 OFFCURVE",
"521 509 CURVE SMOOTH",
"60 509 LINE",
"60 434 LINE",
"521 434 LINE SMOOTH",
"602 434 OFFCURVE",
"656 480 OFFCURVE",
"656 552 CURVE SMOOTH",
"656 607 OFFCURVE",
"625 648 OFFCURVE",
"582 664 CURVE"
);
},
{
closed = 1;
nodes = (
"309 390 OFFCURVE",
"284 363 OFFCURVE",
"284 331 CURVE SMOOTH",
"284 298 OFFCURVE",
"309 271 OFFCURVE",
"343 271 CURVE SMOOTH",
"376 271 OFFCURVE",
"403 298 OFFCURVE",
"403 331 CURVE SMOOTH",
"403 363 OFFCURVE",
"376 390 OFFCURVE",
"343 390 CURVE SMOOTH"
);
},
{
closed = 1;
nodes = (
"412 238 LINE",
"553 57 LINE SMOOTH",
"602 -9 OFFCURVE",
"612 -41 OFFCURVE",
"633 -67 CURVE SMOOTH",
"650 -89 OFFCURVE",
"676 -97 OFFCURVE",
"699 -79 CURVE",
"720 -61 OFFCURVE",
"719 -33 OFFCURVE",
"701 -12 CURVE SMOOTH",
"680 13 OFFCURVE",
"651 30 OFFCURVE",
"597 95 CURVE SMOOTH",
"448 268 LINE"
);
}
);
width = 715;
}
);
leftMetricsKey = "=knPA";
rightMetricsKey = "=knPA";
unicode = 0CB7;
},
{
color = 3;
glyphname = knSA;
lastChange = "2015-12-01 16:54:11 +0000";
layers = (
{
background = {
paths = (
{
closed = 1;
nodes = (
"50 118 OFFCURVE",
"118 247 OFFCURVE",
"238 247 CURVE SMOOTH",
"376 247 OFFCURVE",
"379 93 OFFCURVE",
"497 93 CURVE SMOOTH",
"582 93 OFFCURVE",
"591 279 OFFCURVE",
"508 360 CURVE",
"533 377 LINE",
"655 260 OFFCURVE",
"660 -14 OFFCURVE",
"510 -14 CURVE SMOOTH",
"409 -14 OFFCURVE",
"416 153 OFFCURVE",
"238 153 CURVE SMOOTH",
"136 153 OFFCURVE",
"97 78 OFFCURVE",
"74 -14 CURVE",
"38 -3 LINE"
);
}
);
};
layerId = "034236B8-3FA8-43DA-9EDA-EFF269A687EC";
rightMetricsKey = "=knDA-10";
name = Regular;
paths = (
{
closed = 1;
nodes = (
"60 121 OFFCURVE",
"118 247 OFFCURVE",
"238 247 CURVE SMOOTH",
"376 247 OFFCURVE",
"389 71 OFFCURVE",
"497 71 CURVE SMOOTH",
"592 71 OFFCURVE",
"591 279 OFFCURVE",
"508 360 CURVE",
"533 377 LINE",
"655 270 OFFCURVE",
"660 -14 OFFCURVE",
"510 -14 CURVE SMOOTH",
"389 -14 OFFCURVE",
"386 175 OFFCURVE",
"238 175 CURVE SMOOTH",
"136 175 OFFCURVE",
"97 78 OFFCURVE",
"74 -14 CURVE",
"48 0 LINE"
);
},
{
closed = 1;
nodes = (
"355 288 OFFCURVE",
"377 314 OFFCURVE",
"377 347 CURVE SMOOTH",
"377 380 OFFCURVE",
"355 404 OFFCURVE",
"319 404 CURVE SMOOTH",
"283 404 OFFCURVE",
"261 380 OFFCURVE",
"261 347 CURVE SMOOTH",
"261 314 OFFCURVE",
"283 288 OFFCURVE",
"319 288 CURVE SMOOTH"
);
},
{
closed = 1;
nodes = (
"535 644 LINE",
"559 635 OFFCURVE",
"581 610 OFFCURVE",
"581 576 CURVE SMOOTH",
"581 536 OFFCURVE",
"550 509 OFFCURVE",
"489 509 CURVE SMOOTH",
"45 509 LINE",
"45 434 LINE",
"489 434 LINE",
"570 434 OFFCURVE",
"624 480 OFFCURVE",
"624 552 CURVE SMOOTH",
"624 607 OFFCURVE",
"593 648 OFFCURVE",
"550 664 CURVE"
);
}
);
width = 679;
}
);
rightMetricsKey = "=da-kannada-10";
unicode = 0CB8;
},
{
color = 3;
glyphname = knHA;
lastChange = "2015-12-01 17:00:31 +0000";
layers = (
{
background = {
paths = (
{
closed = 1;
nodes = (
"130 338 OFFCURVE",
"51 259 OFFCURVE",
"51 162 CURVE SMOOTH",
"51 65 OFFCURVE",
"130 -14 OFFCURVE",
"227 -14 CURVE SMOOTH",
"324 -14 OFFCURVE",
"403 65 OFFCURVE",
"403 162 CURVE SMOOTH",
"403 259 OFFCURVE",
"324 338 OFFCURVE",
"227 338 CURVE SMOOTH"
);
},
{
closed = 1;
nodes = (
"289 295 OFFCURVE",
"339 245 OFFCURVE",
"339 183 CURVE SMOOTH",
"339 120 OFFCURVE",
"289 70 OFFCURVE",
"227 70 CURVE SMOOTH",
"164 70 OFFCURVE",
"114 120 OFFCURVE",
"114 183 CURVE SMOOTH",
"114 245 OFFCURVE",
"164 295 OFFCURVE",
"227 295 CURVE SMOOTH"
);
},
{
closed = 1;
nodes = (
"398 338 OFFCURVE",
"319 259 OFFCURVE",
"319 162 CURVE SMOOTH",
"319 65 OFFCURVE",
"398 -14 OFFCURVE",
"495 -14 CURVE SMOOTH",
"592 -14 OFFCURVE",
"671 65 OFFCURVE",
"671 162 CURVE SMOOTH",
"671 259 OFFCURVE",
"592 338 OFFCURVE",
"495 338 CURVE SMOOTH"
);
},
{
closed = 1;
nodes = (
"557 295 OFFCURVE",
"607 245 OFFCURVE",
"607 183 CURVE SMOOTH",
"607 120 OFFCURVE",
"557 70 OFFCURVE",
"495 70 CURVE SMOOTH",
"432 70 OFFCURVE",
"382 120 OFFCURVE",
"382 183 CURVE SMOOTH",
"382 245 OFFCURVE",
"432 295 OFFCURVE",
"495 295 CURVE SMOOTH"
);
}
);
};
layerId = "034236B8-3FA8-43DA-9EDA-EFF269A687EC";
name = Regular;
paths = (
{
closed = 1;
nodes = (
"579 644 LINE",
"603 635 OFFCURVE",
"625 610 OFFCURVE",
"625 576 CURVE SMOOTH",
"625 536 OFFCURVE",
"594 509 OFFCURVE",
"533 509 CURVE SMOOTH",
"55 509 LINE",
"55 434 LINE",
"533 434 LINE SMOOTH",
"614 434 OFFCURVE",
"668 480 OFFCURVE",
"668 552 CURVE SMOOTH",
"668 607 OFFCURVE",
"637 648 OFFCURVE",
"594 664 CURVE"
);
},
{
closed = 1;
nodes = (
"229 435 LINE",
"311 427 OFFCURVE",
"340 363 OFFCURVE",
"340 269 CURVE",
"380 234 LINE",
"380 391 OFFCURVE",
"346 450 OFFCURVE",
"230 472 CURVE"
);
},
{
closed = 1;
nodes = (
"428 340 OFFCURVE",
"386 302 OFFCURVE",
"359 247 CURVE",
"356 99 LINE",
"382 25 OFFCURVE",
"435 -14 OFFCURVE",
"503 -14 CURVE SMOOTH",
"598 -14 OFFCURVE",
"669 64 OFFCURVE",
"669 162 CURVE SMOOTH",
"669 261 OFFCURVE",
"598 340 OFFCURVE",
"503 340 CURVE SMOOTH"
);
},
{
closed = 1;
nodes = (
"558 296 OFFCURVE",
"608 251 OFFCURVE",
"608 182 CURVE SMOOTH",
"608 111 OFFCURVE",
"558 71 OFFCURVE",
"498 71 CURVE SMOOTH",
"434 71 OFFCURVE",
"383 111 OFFCURVE",
"383 182 CURVE SMOOTH",
"383 251 OFFCURVE",
"433 296 OFFCURVE",
"498 296 CURVE SMOOTH"
);
},
{
closed = 1;
nodes = (
"126 340 OFFCURVE",
"55 261 OFFCURVE",
"55 162 CURVE SMOOTH",
"55 64 OFFCURVE",
"126 -14 OFFCURVE",
"221 -14 CURVE SMOOTH",
"289 -14 OFFCURVE",
"342 25 OFFCURVE",
"368 99 CURVE",
"365 247 LINE",
"338 302 OFFCURVE",
"296 340 OFFCURVE",
"221 340 CURVE SMOOTH"
);
},
{
closed = 1;
nodes = (
"291 296 OFFCURVE",
"341 251 OFFCURVE",
"341 182 CURVE SMOOTH",
"341 111 OFFCURVE",
"290 71 OFFCURVE",
"226 71 CURVE SMOOTH",
"166 71 OFFCURVE",
"116 111 OFFCURVE",
"116 182 CURVE SMOOTH",
"116 251 OFFCURVE",
"166 296 OFFCURVE",
"226 296 CURVE SMOOTH"
);
}
);
width = 724;
}
);
unicode = 0CB9;
},
{
color = 3;
glyphname = knRRA;
lastChange = "2015-12-04 14:39:57 +0000";
layers = (
{
background = {
paths = (
{
closed = 1;
nodes = (
"176 293 LINE",
"624 293 LINE",
"624 354 LINE",
"176 354 LINE"
);
},
{
closed = 1;
nodes = (
"168 71 OFFCURVE",
"102 154 OFFCURVE",
"102 265 CURVE",
"102 396 OFFCURVE",
"146 459 OFFCURVE",
"215 459 CURVE SMOOTH",
"263 459 OFFCURVE",
"287 440 OFFCURVE",
"287 401 CURVE SMOOTH",
"287 375 OFFCURVE",
"269 354 OFFCURVE",
"232 354 CURVE",
"232 293 LINE",
"285 293 OFFCURVE",
"317 335 OFFCURVE",
"317 401 CURVE SMOOTH",
"317 467 OFFCURVE",
"291 519 OFFCURVE",
"220 519 CURVE SMOOTH",
"134 519 OFFCURVE",
"55 421 OFFCURVE",
"55 239 CURVE",
"55 130 OFFCURVE",
"124 -14 OFFCURVE",
"246 -14 CURVE",
"314 -14 OFFCURVE",
"382 43 OFFCURVE",
"405 126 CURVE",
"407 126 LINE",
"430 43 OFFCURVE",
"498 -14 OFFCURVE",
"567 -14 CURVE",
"698 -14 OFFCURVE",
"757 130 OFFCURVE",
"757 239 CURVE",
"757 421 OFFCURVE",
"678 519 OFFCURVE",
"592 519 CURVE SMOOTH",
"521 519 OFFCURVE",
"495 467 OFFCURVE",
"495 401 CURVE SMOOTH",
"495 335 OFFCURVE",
"527 293 OFFCURVE",
"580 293 CURVE",
"580 354 LINE",
"543 354 OFFCURVE",
"525 375 OFFCURVE",
"525 401 CURVE SMOOTH",
"525 440 OFFCURVE",
"549 459 OFFCURVE",
"597 459 CURVE SMOOTH",
"666 459 OFFCURVE",
"710 396 OFFCURVE",
"710 265 CURVE",
"710 154 OFFCURVE",
"645 71 OFFCURVE",
"563 71 CURVE",
"490 71 OFFCURVE",
"425 145 OFFCURVE",
"411 221 CURVE",
"402 221 LINE",
"389 146 OFFCURVE",
"323 71 OFFCURVE",
"250 71 CURVE"
);
}
);
};
layerId = "034236B8-3FA8-43DA-9EDA-EFF269A687EC";
leftMetricsKey = "=knCHA";
rightMetricsKey = "=|knCHA";
name = Regular;
paths = (
{
closed = 1;
nodes = (
"182 354 LINE",
"182 293 LINE",
"630 293 LINE",
"630 354 LINE"
);
},
{
closed = 1;
nodes = (
"489 71 OFFCURVE",
"423 146 OFFCURVE",
"410 221 CURVE",
"401 221 LINE",
"387 145 OFFCURVE",
"322 71 OFFCURVE",
"249 71 CURVE",
"167 71 OFFCURVE",
"102 154 OFFCURVE",
"102 265 CURVE",
"102 396 OFFCURVE",
"146 459 OFFCURVE",
"215 459 CURVE SMOOTH",
"263 459 OFFCURVE",
"287 440 OFFCURVE",
"287 401 CURVE SMOOTH",
"287 375 OFFCURVE",
"269 354 OFFCURVE",
"232 354 CURVE",
"232 293 LINE",
"285 293 OFFCURVE",
"317 335 OFFCURVE",
"317 401 CURVE SMOOTH",
"317 467 OFFCURVE",
"291 519 OFFCURVE",
"220 519 CURVE SMOOTH",
"134 519 OFFCURVE",
"55 421 OFFCURVE",
"55 244 CURVE",
"55 130 OFFCURVE",
"118 -14 OFFCURVE",
"245 -14 CURVE",
"314 -14 OFFCURVE",
"382 43 OFFCURVE",
"405 126 CURVE",
"407 126 LINE",
"430 43 OFFCURVE",
"498 -14 OFFCURVE",
"566 -14 CURVE",
"692 -14 OFFCURVE",
"757 130 OFFCURVE",
"757 244 CURVE",
"757 421 OFFCURVE",
"678 519 OFFCURVE",
"592 519 CURVE SMOOTH",
"521 519 OFFCURVE",
"495 467 OFFCURVE",
"495 401 CURVE SMOOTH",
"495 335 OFFCURVE",
"527 293 OFFCURVE",
"580 293 CURVE",
"580 354 LINE",
"543 354 OFFCURVE",
"525 375 OFFCURVE",
"525 401 CURVE SMOOTH",
"525 440 OFFCURVE",
"549 459 OFFCURVE",
"597 459 CURVE SMOOTH",
"666 459 OFFCURVE",
"710 396 OFFCURVE",
"710 265 CURVE",
"710 154 OFFCURVE",
"644 71 OFFCURVE",
"562 71 CURVE"
);
}
);
width = 812;
}
);
leftMetricsKey = "=cha-kannada";
rightMetricsKey = "=cha-kannada";
unicode = 0CB1;
},
{
color = 3;
glyphname = knLLA;
lastChange = "2015-12-01 17:01:10 +0000";
layers = (
{
background = {
paths = (
{
closed = 0;
nodes = (
"47 274 LINE",
"47 397 OFFCURVE",
"85 459 OFFCURVE",
"168 459 CURVE SMOOTH",
"216 459 OFFCURVE",
"250 440 OFFCURVE",
"250 401 CURVE SMOOTH",
"250 365 OFFCURVE",
"222 344 OFFCURVE",
"175 344 CURVE SMOOTH",
"133 344 OFFCURVE",
"105 362 OFFCURVE",
"105 408 CURVE SMOOTH",
"105 419 OFFCURVE",
"106 440 OFFCURVE",
"109 450 CURVE",
"90 447 LINE",
"79 429 LINE",
"76 407 OFFCURVE",
"75 394 OFFCURVE",
"75 381 CURVE SMOOTH",
"75 308 OFFCURVE",
"117 273 OFFCURVE",
"175 273 CURVE SMOOTH",
"238 273 OFFCURVE",
"280 325 OFFCURVE",
"280 391 CURVE SMOOTH",
"280 457 OFFCURVE",
"244 519 OFFCURVE",
"173 519 CURVE SMOOTH",
"71 519 OFFCURVE",
"-1 414 OFFCURVE",
"-1 253 CURVE"
);
}
);
};
layerId = "034236B8-3FA8-43DA-9EDA-EFF269A687EC";
name = Regular;
paths = (
{
closed = 1;
nodes = (
"53 435 OFFCURVE",
"116 459 OFFCURVE",
"184 459 CURVE SMOOTH",
"235 459 OFFCURVE",
"250 445 OFFCURVE",
"250 428 CURVE SMOOTH",
"250 405 OFFCURVE",
"227 394 OFFCURVE",
"191 394 CURVE SMOOTH",
"144 394 OFFCURVE",
"128 418 OFFCURVE",
"128 441 CURVE SMOOTH",
"128 464 OFFCURVE",
"136 471 OFFCURVE",
"143 477 CURVE",
"119 482 LINE",
"107 460 OFFCURVE",
"98 450 OFFCURVE",
"98 414 CURVE SMOOTH",
"98 364 OFFCURVE",
"138 336 OFFCURVE",
"187 336 CURVE SMOOTH",
"251 336 OFFCURVE",
"280 373 OFFCURVE",
"280 429 CURVE SMOOTH",
"280 482 OFFCURVE",
"247 519 OFFCURVE",
"177 519 CURVE SMOOTH",
"90 519 OFFCURVE",
"15 460 OFFCURVE",
"15 363 CURVE",
"15 127 OFFCURVE",
"362 197 OFFCURVE",
"362 109 CURVE",
"362 83 OFFCURVE",
"333 71 OFFCURVE",
"296 71 CURVE",
"253 71 OFFCURVE",
"223 85 OFFCURVE",
"223 112 CURVE",
"223 203 OFFCURVE",
"512 206 OFFCURVE",
"512 354 CURVE SMOOTH",
"512 442 OFFCURVE",
"426 471 OFFCURVE",
"348 471 CURVE",
"388 434 LINE",
"408 434 OFFCURVE",
"473 423 OFFCURVE",
"473 354 CURVE SMOOTH",
"473 232 OFFCURVE",
"175 245 OFFCURVE",
"175 86 CURVE",
"175 28 OFFCURVE",
"220 -14 OFFCURVE",
"291 -14 CURVE",
"358 -14 OFFCURVE",
"402 34 OFFCURVE",
"402 97 CURVE SMOOTH",
"402 291 OFFCURVE",
"53 198 OFFCURVE",
"53 370 CURVE"
);
},
{
closed = 1;
nodes = (
"461 644 LINE",
"485 635 OFFCURVE",
"507 610 OFFCURVE",
"507 576 CURVE SMOOTH",
"507 536 OFFCURVE",
"476 509 OFFCURVE",
"415 509 CURVE SMOOTH",
"334 509 LINE",
"334 434 LINE",
"415 434 LINE SMOOTH",
"496 434 OFFCURVE",
"550 480 OFFCURVE",
"550 552 CURVE SMOOTH",
"550 607 OFFCURVE",
"519 648 OFFCURVE",
"476 664 CURVE"
);
}
);
width = 560;
},
{
associatedMasterId = "034236B8-3FA8-43DA-9EDA-EFF269A687EC";
background = {
paths = (
{
closed = 0;
nodes = (
"602 83 LINE",
"602 209 OFFCURVE",
"852 194 OFFCURVE",
"852 311 CURVE SMOOTH",
"852 366 OFFCURVE",
"820 388 OFFCURVE",
"789 388 CURVE",
"771 427 LINE",
"839 427 OFFCURVE",
"883 380 OFFCURVE",
"883 300 CURVE SMOOTH",
"883 174 OFFCURVE",
"654 179 OFFCURVE",
"654 102 CURVE"
);
},
{
closed = 0;
nodes = (
"75 304 LINE",
"75 361 OFFCURVE",
"115 397 OFFCURVE",
"173 397 CURVE SMOOTH",
"215 397 OFFCURVE",
"236 381 OFFCURVE",
"236 347 CURVE SMOOTH",
"236 324 OFFCURVE",
"220 306 OFFCURVE",
"188 306 CURVE SMOOTH",
"160 306 OFFCURVE",
"136 322 OFFCURVE",
"136 362 CURVE SMOOTH",
"136 382 OFFCURVE",
"140 403 OFFCURVE",
"149 413 CURVE",
"128 417 LINE",
"117 398 OFFCURVE",
"110 370 OFFCURVE",
"110 338 CURVE SMOOTH",
"110 275 OFFCURVE",
"146 244 OFFCURVE",
"188 244 CURVE SMOOTH",
"234 244 OFFCURVE",
"262 290 OFFCURVE",
"262 347 CURVE SMOOTH",
"262 404 OFFCURVE",
"239 450 OFFCURVE",
"178 450 CURVE SMOOTH",
"103 450 OFFCURVE",
"34 378 OFFCURVE",
"34 294 CURVE"
);
},
{
closed = 1;
nodes = (
"447 567 LINE",
"471 552 OFFCURVE",
"479 530 OFFCURVE",
"479 511 CURVE SMOOTH",
"479 475 OFFCURVE",
"452 450 OFFCURVE",
"407 450 CURVE SMOOTH",
"308 450 LINE",
"308 378 LINE",
"407 378 LINE",
"476 378 OFFCURVE",
"525 426 OFFCURVE",
"525 486 CURVE SMOOTH",
"525 525 OFFCURVE",
"505 561 OFFCURVE",
"460 585 CURVE"
);
},
{
closed = 0;
nodes = (
"243 84 LINE",
"243 195 OFFCURVE",
"488 157.003 OFFCURVE",
"488 306 CURVE",
"488 373.903 OFFCURVE",
"429.889 432 OFFCURVE",
"344 432 CURVE",
"344 410 LINE",
"404 410 OFFCURVE",
"451 366 OFFCURVE",
"451 306 CURVE",
"451 191 OFFCURVE",
"203 213 OFFCURVE",
"203 84 CURVE"
);
}
);
};
layerId = "FBCCC402-C4FF-4F03-A8F7-176D79FB55DA";
name = "Regular Oct 30 15, 12:54";
paths = (
{
closed = 0;
nodes = (
"602 83 LINE",
"602 209 OFFCURVE",
"852 194 OFFCURVE",
"852 311 CURVE SMOOTH",
"852 366 OFFCURVE",
"820 388 OFFCURVE",
"789 388 CURVE",
"771 427 LINE",
"839 427 OFFCURVE",
"883 380 OFFCURVE",
"883 300 CURVE SMOOTH",
"883 174 OFFCURVE",
"654 179 OFFCURVE",
"654 102 CURVE"
);
},
{
closed = 1;
nodes = (
"75 361 OFFCURVE",
"115 397 OFFCURVE",
"173 397 CURVE SMOOTH",
"215 397 OFFCURVE",
"236 381 OFFCURVE",
"236 347 CURVE SMOOTH",
"236 324 OFFCURVE",
"220 306 OFFCURVE",
"188 306 CURVE SMOOTH",
"160 306 OFFCURVE",
"136 322 OFFCURVE",
"136 362 CURVE SMOOTH",
"136 382 OFFCURVE",
"140 403 OFFCURVE",
"149 413 CURVE",
"128 417 LINE",
"117 398 OFFCURVE",
"110 370 OFFCURVE",
"110 338 CURVE SMOOTH",
"110 275 OFFCURVE",
"146 244 OFFCURVE",
"188 244 CURVE SMOOTH",
"234 244 OFFCURVE",
"262 290 OFFCURVE",
"262 347 CURVE SMOOTH",
"262 404 OFFCURVE",
"239 450 OFFCURVE",
"178 450 CURVE SMOOTH",
"103 450 OFFCURVE",
"34 378 OFFCURVE",
"34 294 CURVE",
"34 67 OFFCURVE",
"316 146 OFFCURVE",
"316 98 CURVE",
"316 86 OFFCURVE",
"301 77 OFFCURVE",
"282 77 CURVE",
"263 77 OFFCURVE",
"253 85 OFFCURVE",
"253 104 CURVE",
"253 175 OFFCURVE",
"487 177 OFFCURVE",
"487 306 CURVE",
"487 374 OFFCURVE",
"430 432 OFFCURVE",
"344 432 CURVE",
"344 400 LINE",
"414 400 OFFCURVE",
"453 366 OFFCURVE",
"453 306 CURVE",
"453 191 OFFCURVE",
"203 213 OFFCURVE",
"203 63 CURVE",
"203 23 OFFCURVE",
"233 -14 OFFCURVE",
"286 -14 CURVE",
"344 -14 OFFCURVE",
"374 28 OFFCURVE",
"374 63 CURVE SMOOTH",
"374 243 OFFCURVE",
"75 135 OFFCURVE",
"75 304 CURVE"
);
},
{
closed = 1;
nodes = (
"447 567 LINE",
"471 552 OFFCURVE",
"479 530 OFFCURVE",
"479 511 CURVE SMOOTH",
"479 475 OFFCURVE",
"452 450 OFFCURVE",
"407 450 CURVE SMOOTH",
"308 450 LINE",
"308 378 LINE",
"407 378 LINE",
"476 378 OFFCURVE",
"525 426 OFFCURVE",
"525 486 CURVE SMOOTH",
"525 525 OFFCURVE",
"505 561 OFFCURVE",
"460 585 CURVE"
);
}
);
width = 540;
}
);
unicode = 0CB3;
},
{
color = 3;
glyphname = knLLLA;
lastChange = "2015-12-04 14:39:57 +0000";
layers = (
{
background = {
paths = (
{
closed = 0;
nodes = (
"552 71 LINE",
"479 71 OFFCURVE",
"414 146 OFFCURVE",
"401 221 CURVE",
"392 221 LINE",
"378 145 OFFCURVE",
"312 71 OFFCURVE",
"239 71 CURVE",
"124 71 OFFCURVE",
"103 218 OFFCURVE",
"103 284 CURVE",
"103 407 OFFCURVE",
"141 459 OFFCURVE",
"234 459 CURVE SMOOTH",
"272 459 OFFCURVE",
"306 440 OFFCURVE",
"306 401 CURVE SMOOTH",
"306 365 OFFCURVE",
"278 344 OFFCURVE",
"231 344 CURVE SMOOTH",
"189 344 OFFCURVE",
"161 362 OFFCURVE",
"161 408 CURVE SMOOTH",
"161 419 OFFCURVE",
"162 440 OFFCURVE",
"165 450 CURVE",
"146 447 LINE",
"135 429 LINE",
"132 407 OFFCURVE",
"131 394 OFFCURVE",
"131 381 CURVE SMOOTH",
"131 308 OFFCURVE",
"173 273 OFFCURVE",
"231 273 CURVE SMOOTH",
"294 273 OFFCURVE",
"336 325 OFFCURVE",
"336 391 CURVE SMOOTH",
"336 457 OFFCURVE",
"300 519 OFFCURVE",
"229 519 CURVE SMOOTH",
"127 519 OFFCURVE",
"55 414 OFFCURVE",
"55 253 CURVE",
"55 97 OFFCURVE",
"123 -14 OFFCURVE",
"236 -14 CURVE",
"304 -14 OFFCURVE",
"373 43 OFFCURVE",
"396 126 CURVE",
"398 126 LINE",
"421 43 OFFCURVE",
"488 -14 OFFCURVE",
"556 -14 CURVE"
);
},
{
closed = 0;
nodes = (
"236 -14 LINE",
"304 -14 OFFCURVE",
"371 43 OFFCURVE",
"394 126 CURVE",
"396 126 LINE",
"419 43 OFFCURVE",
"488 -14 OFFCURVE",
"556 -14 CURVE",
"669 -14 OFFCURVE",
"737 97 OFFCURVE",
"737 253 CURVE",
"737 414 OFFCURVE",
"665 519 OFFCURVE",
"563 519 CURVE SMOOTH",
"492 519 OFFCURVE",
"456 457 OFFCURVE",
"456 391 CURVE SMOOTH",
"456 325 OFFCURVE",
"498 273 OFFCURVE",
"561 273 CURVE SMOOTH",
"619 273 OFFCURVE",
"661 308 OFFCURVE",
"661 381 CURVE SMOOTH",
"661 394 OFFCURVE",
"660 407 OFFCURVE",
"657 429 CURVE",
"646 447 LINE",
"627 450 LINE",
"630 440 OFFCURVE",
"631 419 OFFCURVE",
"631 408 CURVE SMOOTH",
"631 362 OFFCURVE",
"603 344 OFFCURVE",
"561 344 CURVE SMOOTH",
"514 344 OFFCURVE",
"486 365 OFFCURVE",
"486 401 CURVE SMOOTH",
"486 440 OFFCURVE",
"520 459 OFFCURVE",
"558 459 CURVE SMOOTH",
"651 459 OFFCURVE",
"689 407 OFFCURVE",
"689 284 CURVE",
"689 218 OFFCURVE",
"668 71 OFFCURVE",
"553 71 CURVE",
"480 71 OFFCURVE",
"414 145 OFFCURVE",
"400 221 CURVE",
"391 221 LINE",
"378 146 OFFCURVE",
"313 71 OFFCURVE",
"240 71 CURVE"
);
}
);
};
layerId = "034236B8-3FA8-43DA-9EDA-EFF269A687EC";
leftMetricsKey = "=knDA";
rightMetricsKey = "=knCHA";
name = Regular;
paths = (
{
closed = 1;
nodes = (
"392 221 LINE",
"378 145 OFFCURVE",
"312 71 OFFCURVE",
"239 71 CURVE",
"134 71 OFFCURVE",
"103 188 OFFCURVE",
"103 274 CURVE",
"103 397 OFFCURVE",
"141 459 OFFCURVE",
"224 459 CURVE SMOOTH",
"272 459 OFFCURVE",
"306 440 OFFCURVE",
"306 401 CURVE SMOOTH",
"306 365 OFFCURVE",
"278 344 OFFCURVE",
"231 344 CURVE SMOOTH",
"189 344 OFFCURVE",
"161 362 OFFCURVE",
"161 408 CURVE SMOOTH",
"161 419 OFFCURVE",
"162 440 OFFCURVE",
"165 450 CURVE",
"146 447 LINE",
"135 429 LINE",
"132 407 OFFCURVE",
"131 394 OFFCURVE",
"131 381 CURVE SMOOTH",
"131 308 OFFCURVE",
"173 273 OFFCURVE",
"231 273 CURVE SMOOTH",
"294 273 OFFCURVE",
"336 325 OFFCURVE",
"336 391 CURVE SMOOTH",
"336 457 OFFCURVE",
"300 519 OFFCURVE",
"229 519 CURVE SMOOTH",
"127 519 OFFCURVE",
"55 414 OFFCURVE",
"55 253 CURVE",
"55 97 OFFCURVE",
"123 -14 OFFCURVE",
"236 -14 CURVE",
"304 -14 OFFCURVE",
"373 43 OFFCURVE",
"396 126 CURVE",
"398 126 LINE",
"421 43 OFFCURVE",
"490 -14 OFFCURVE",
"558 -14 CURVE",
"671 -14 OFFCURVE",
"739 97 OFFCURVE",
"739 253 CURVE",
"739 414 OFFCURVE",
"667 519 OFFCURVE",
"565 519 CURVE SMOOTH",
"494 519 OFFCURVE",
"458 457 OFFCURVE",
"458 391 CURVE SMOOTH",
"458 325 OFFCURVE",
"500 273 OFFCURVE",
"563 273 CURVE SMOOTH",
"621 273 OFFCURVE",
"663 308 OFFCURVE",
"663 381 CURVE SMOOTH",
"663 394 OFFCURVE",
"662 407 OFFCURVE",
"659 429 CURVE",
"648 447 LINE",
"629 450 LINE",
"632 440 OFFCURVE",
"633 419 OFFCURVE",
"633 408 CURVE SMOOTH",
"633 362 OFFCURVE",
"605 344 OFFCURVE",
"563 344 CURVE SMOOTH",
"516 344 OFFCURVE",
"488 365 OFFCURVE",
"488 401 CURVE SMOOTH",
"488 440 OFFCURVE",
"522 459 OFFCURVE",
"570 459 CURVE SMOOTH",
"653 459 OFFCURVE",
"691 397 OFFCURVE",
"691 274 CURVE",
"691 188 OFFCURVE",
"660 71 OFFCURVE",
"555 71 CURVE",
"482 71 OFFCURVE",
"415 145 OFFCURVE",
"401 221 CURVE"
);
}
);
width = 804;
}
);
leftMetricsKey = "=cha-kannada";
rightMetricsKey = "=cha-kannada";
unicode = 0CDE;
},
